<?xml version="1.0" standalone="no"?>
<!DOCTYPE svg PUBLIC "-//W3C//DTD SVG 1.1//EN" "http://www.w3.org/Graphics/SVG/1.1/DTD/svg11.dtd" >
<svg xmlns="http://www.w3.org/2000/svg">
<metadata>
Created by FontPrep 20130207 at Sat May 24 03:11:09 2014
 By Sorajate H.
Copyright (c) 2008 by Prinya R. nont. All rights reserved.
</metadata>
<defs>
<font id="aeb665c37dec9aceafa0c28a6030bc0f" horiz-adv-x='1024' >
  <font-face 
    font-family="DBHelvethaicaX-BdIt"
    font-weight="700"
    font-style="italic"
    font-stretch="normal"
    units-per-em="2048"
    panose-1="2 0 5 6 9 0 0 2 0 4"
    ascent="1638"
    descent="-410"
    x-height="727"
    cap-height="1000"
    bbox="-905 -723 1972 1686"
    underline-thickness="41"
    underline-position="-232"
    unicode-range="U+0020-F882"
  />
<missing-glyph horiz-adv-x="575" 
d="M164 133q-31 0 -31 51q0 18 15.5 33t34.5 15q30 0 46.5 -16.5t16.5 -32.5q0 -42 -25 -50q-2 -5 -17.5 -19t-26.5 -26t-39 -38t-50 -48h-45v192q0 93 59.5 113.5t87.5 20.5q60 0 101 -33.5t41 -96.5v-161h152v283h38v-318h-266v35h41v166q0 62 -41.5 74t-75 12t-66 -24
t-32.5 -67v-147zM188 156q24 0 23 21q1 21 -23 21t-24 -21t24 -21zM56 396q13 63 72 109t158 46t143.5 -40.5t54.5 -54.5v95h38v-199q-175 50 -336 50q-66 0 -130 -6zM215 440h63q14 -2 32 -4t84 -12t90 -28q-41 79 -109.5 96.5t-95.5 17.5q-107 0 -165 -74q50 4 101 4z
M557 536q-1 38 35 38t36 -38q0 -11 -8 -20.5t-26 -9.5t-27.5 10t-9.5 20zM561 536q-1 -26 31 -26t32 30t-31.5 30t-31.5 -34zM610 551q0 -17 -14 -17l14 -18h-6l-14 18h-4v-18h-6v47h14q16 0 16 -12zM594 536q10 0 10 10t-10 11h-8v-21h8z" />
    <glyph glyph-name="plusminus" unicode="&#x2b;&#x2d;" horiz-adv-x="833" 
d="M811 158l-33 -158h-725l33 158h725zM914 643l-34 -153h-280l-60 -287h-161l59 287h-282l32 153h283l61 289h162l-61 -289h281z" />
    <glyph glyph-name="ellipsis" unicode="&#x2e;&#x2e;&#x2e;" horiz-adv-x="1388" 
d="M1300 213l-44 -213h-214l46 213h212zM844 213l-46 -213h-212l45 213h213zM389 213l-45 -213h-213l45 213h213z" />
    <glyph glyph-name="lessequal" unicode="&#x3c;&#x3d;" horiz-adv-x="897" 
d="M92 164h774l-34 -164h-774zM420 614l490 -244l-38 -170l-700 347l28 137l850 348l-36 -172z" />
    <glyph glyph-name="greaterequal" unicode="&#x3e;&#x3d;" horiz-adv-x="897" 
d="M66 0l34 164h774l-34 -164h-774zM248 860l36 172l699 -348l-29 -137l-848 -347l38 170l591 244z" />
    <glyph glyph-name="fongmanfunnuthai" unicode="&#xe4f;&#x22;" horiz-adv-x="1014" 
d="M510 336q19 -24 65 -24q47 0 81 32q58 48 47 119q-8 37 -34 51q-27 14 -61 14t-63 -23q-103 -82 -35 -169zM293 422q-38 -176 115 -274q49 -32 108 -32q96 0 177 43t133 110q87 105 80 227q-6 121 -100 186q-62 41 -143 41t-163 -42t-136 -111t-71 -148zM646 654
q96 0 149 -70t33 -164q-20 -93 -101 -162q-82 -70 -177 -70q-96 0 -152 69t-36 163t104 164t180 70zM350 729q158 129 341 129t282 -126q100 -126 62 -310q-37 -183 -193 -316q-92 -77 -185 -102q-91 -26 -153 -26q-122 0 -212 60q-136 90 -148 266q-13 176 118 336
q40 49 88 89zM592 1218h143l-69 -250h-113zM803 1218h145l-68 -250h-114z" />
    <glyph glyph-name="dochadaphinthuthai" unicode="&#xe0e;&#xe3a;" horiz-adv-x="936" 
d="M760 556q0 69 -50 96q-38 26 -92 26q-128 0 -187 -55q-17 -15 -25 -29q33 -39 29 -78q-3 -38 -9 -66l-94 -450h-287l33 162h80l61 290q3 14 3 29q0 52 -50 84q76 170 250 248q101 45 199 45q236 0 310 -110q43 -64 42 -132t-9 -114l-170 -795h-192q-34 95 -163 95
t-279 -126l38 187q83 67 198 92t206 -15q16 -8 29 -14l125 590q4 20 4 40zM536 -572q-48 61 3 142q15 24 49 52t87 28q54 0 84 -39t19 -91q-12 -52 -58 -91t-100 -39t-84 38z" />
    <glyph glyph-name="topatakphintuthai" unicode="&#xe0f;&#xe3a;" horiz-adv-x="936" 
d="M222 481q0 52 -50 84q76 170 250 248q101 45 199 45q236 0 310 -110q43 -64 42 -132t-9 -114l-172 -801h-204q7 58 -23 85q-11 9 -30 9t-39 -28q-21 -28 -31 -66h-158q14 54 -19 87q-10 9 -25 9q-41 0 -71 -64q-8 -17 -12 -32h-184q27 126 104 189t176 63q65 3 110 -42
q14 -13 22 -27q65 65 131 65t89 -31l128 598q4 20 4 40q0 69 -50 96q-38 26 -92 26q-128 0 -187 -55q-17 -15 -25 -29q33 -39 29 -78q-3 -38 -9 -66l-94 -450h-287l33 162h80l61 290q3 14 3 29zM536 -572q-48 61 3 142q15 24 49 52t87 28q54 0 84 -39t19 -91
q-12 -52 -58 -91t-100 -39t-84 38z" />
    <glyph glyph-name="dochadasarauthai" unicode="&#xe0e;&#xe38;" horiz-adv-x="936" 
d="M760 556q0 69 -50 96q-38 26 -92 26q-128 0 -187 -55q-17 -15 -25 -29q33 -39 29 -78q-3 -38 -9 -66l-94 -450h-287l33 162h80l61 290q3 14 3 29q0 52 -50 84q76 170 250 248q101 45 199 45q236 0 310 -110q43 -64 42 -132t-9 -114l-170 -795h-192q-34 95 -163 95
t-279 -126l38 187q83 67 198 92t206 -15q16 -8 29 -14l125 590q4 20 4 40zM512 -723l45 211h-94l33 150h284l-78 -361h-190z" />
    <glyph glyph-name="topataksarauthai" unicode="&#xe0f;&#xe38;" horiz-adv-x="936" 
d="M222 481q0 52 -50 84q76 170 250 248q101 45 199 45q236 0 310 -110q43 -64 42 -132t-9 -114l-172 -801h-204q7 58 -23 85q-11 9 -30 9t-39 -28q-21 -28 -31 -66h-158q14 54 -19 87q-10 9 -25 9q-41 0 -71 -64q-8 -17 -12 -32h-184q27 126 104 189t176 63q65 3 110 -42
q14 -13 22 -27q65 65 131 65t89 -31l128 598q4 20 4 40q0 69 -50 96q-38 26 -92 26q-128 0 -187 -55q-17 -15 -25 -29q33 -39 29 -78q-3 -38 -9 -66l-94 -450h-287l33 162h80l61 290q3 14 3 29zM512 -723l45 211h-94l33 150h284l-78 -361h-190z" />
    <glyph glyph-name="dochadasarauuthai" unicode="&#xe0e;&#xe39;" horiz-adv-x="936" 
d="M760 556q0 69 -50 96q-38 26 -92 26q-128 0 -187 -55q-17 -15 -25 -29q33 -39 29 -78q-3 -38 -9 -66l-94 -450h-287l33 162h80l61 290q3 14 3 29q0 52 -50 84q76 170 250 248q101 45 199 45q236 0 310 -110q43 -64 42 -132t-9 -114l-170 -795h-192q-34 95 -163 95
t-279 -126l38 187q83 67 198 92t206 -15q16 -8 29 -14l125 590q4 20 4 40zM720 -582q-74 -141 -254 -141t-206 119q-8 36 -2 80h-76l35 162h267l-30 -132q-12 -63 40 -65q57 2 67 65l29 132h190l-28 -132q-10 -47 -32 -88z" />
    <glyph glyph-name="topataksarauuthai" unicode="&#xe0f;&#xe39;" horiz-adv-x="936" 
d="M222 481q0 52 -50 84q76 170 250 248q101 45 199 45q236 0 310 -110q43 -64 42 -132t-9 -114l-172 -801h-204q7 58 -23 85q-11 9 -30 9t-39 -28q-21 -28 -31 -66h-158q14 54 -19 87q-10 9 -25 9q-41 0 -71 -64q-8 -17 -12 -32h-184q27 126 104 189t176 63q65 3 110 -42
q14 -13 22 -27q65 65 131 65t89 -31l128 598q4 20 4 40q0 69 -50 96q-38 26 -92 26q-128 0 -187 -55q-17 -15 -25 -29q33 -39 29 -78q-3 -38 -9 -66l-94 -450h-287l33 162h80l61 290q3 14 3 29zM720 -582q-74 -141 -254 -141t-206 119q-8 36 -2 80h-76l35 162h267l-30 -132
q-12 -63 40 -65q57 2 67 65l29 132h190l-28 -132q-10 -47 -32 -88z" />
    <glyph glyph-name=".notdef" horiz-adv-x="575" 
d="M164 133q-31 0 -31 51q0 18 15.5 33t34.5 15q30 0 46.5 -16.5t16.5 -32.5q0 -42 -25 -50q-2 -5 -17.5 -19t-26.5 -26t-39 -38t-50 -48h-45v192q0 93 59.5 113.5t87.5 20.5q60 0 101 -33.5t41 -96.5v-161h152v283h38v-318h-266v35h41v166q0 62 -41.5 74t-75 12t-66 -24
t-32.5 -67v-147zM188 156q24 0 23 21q1 21 -23 21t-24 -21t24 -21zM56 396q13 63 72 109t158 46t143.5 -40.5t54.5 -54.5v95h38v-199q-175 50 -336 50q-66 0 -130 -6zM215 440h63q14 -2 32 -4t84 -12t90 -28q-41 79 -109.5 96.5t-95.5 17.5q-107 0 -165 -74q50 4 101 4z
M557 536q-1 38 35 38t36 -38q0 -11 -8 -20.5t-26 -9.5t-27.5 10t-9.5 20zM561 536q-1 -26 31 -26t32 30t-31.5 30t-31.5 -34zM610 551q0 -17 -14 -17l14 -18h-6l-14 18h-4v-18h-6v47h14q16 0 16 -12zM594 536q10 0 10 10t-10 11h-8v-21h8z" />
    <glyph glyph-name=".null" 
 />
    <glyph glyph-name="nonmarkingreturn" horiz-adv-x="395" 
 />
    <glyph glyph-name="space" unicode=" " horiz-adv-x="348" 
 />
    <glyph glyph-name="exclam" unicode="!" horiz-adv-x="532" 
d="M398 280h-144l47 394l69 326h214l-70 -326zM414 203l-44 -203h-210l43 203h211z" />
    <glyph glyph-name="quotedbl" unicode="&#x22;" horiz-adv-x="633" 
d="M496 1010l-82 -386h-166l82 386h166zM731 1010l-82 -386h-165l81 386h166z" />
    <glyph glyph-name="numbersign" unicode="#" horiz-adv-x="854" 
d="M404 258l-92 -258h-162l88 258h-130l36 160h151q6 19 12 35.5t16.5 46t22.5 61.5h-135l33 158h156l94 258h160l-93 -258h107l92 258h162l-90 -258h118l-32 -158h-138q-13 -34 -28 -72.5t-25 -70.5h119l-35 -160h-141l-90 -258h-164l90 258h-102zM459 418h104q9 28 20 57
t17 47t14 39h-104z" />
    <glyph glyph-name="dollar" unicode="$" horiz-adv-x="901" 
d="M572 846q-113 -21 -130 -108q-8 -39 9.5 -59t76.5 -42zM553 156q131 22 151 120q20 80 -100 120zM326 338q-29 -143 100 -180l58 270l-23 8q-267 79 -227 264q42 195 167.5 254.5t208.5 67.5l18 94h128l-21 -98q198 -30 220.5 -139t6.5 -183h-200q12 89 -17 111.5
t-49 30.5l-49 -238l43 -12q99 -25 175 -84t49 -187q-17 -83 -86.5 -198t-313.5 -139l-24 -117h-128l25 117q-226 27 -253.5 151t-8.5 207h201z" />
    <glyph glyph-name="percent" unicode="%" horiz-adv-x="1388" 
d="M1316 1020l-836 -1040h-193l838 1040h191zM1154 568q60 0 94 -11t67 -38t47.5 -119.5t-60 -250t-261.5 -157.5q-127 0 -170 78t-17 204q42 202 141 248t159 46zM1067 121q27 0 56 21t44 65.5t21 69.5t8 53t-1.5 51t-17 39t-40.5 16q-48 0 -80 -54t-40.5 -118t-5 -87.5
t16 -39.5t39.5 -16zM547 1000q59 0 93 -11t68.5 -38.5t46.5 -111t-51.5 -250.5t-279.5 -167q-118 0 -159.5 79t-13.5 207q43 202 140 247t156 45zM462 553q48 0 81 55.5t40 117.5t2 102t-53 40t-83 -56t-44 -135t10 -101.5t47 -22.5z" />
    <glyph glyph-name="ampersand" unicode="&#x26;" horiz-adv-x="905" 
d="M504 802q-52 -34 28 -161q79 50 98.5 76.5t23.5 43.5t0.5 30t-17 29t-47.5 16t-86 -34zM424 142q85 0 160 79l-144 221q-146 -78 -164 -172q-13 -58 25 -93t123 -35zM605 989q115 0 180.5 -58.5t43.5 -163.5t-100.5 -164t-114.5 -79q12 -20 21.5 -35.5t18.5 -30.5
t19.5 -31.5t24.5 -39.5q24 61 40 111h170q-44 -135 -72 -181.5t-46 -72.5l160 -244h-221l-67 98q-124 -112 -298 -112q-238 0 -264.5 140t35 244t231.5 189q-51 88 -54.5 153.5t44.5 145t121 105.5t128 26z" />
    <glyph glyph-name="quotesingle" unicode="'" horiz-adv-x="385" 
d="M488 1010l-82 -386h-166l82 386h166z" />
    <glyph glyph-name="parenleft" unicode="(" horiz-adv-x="461" 
d="M238 -314q-78 177 -104.5 346.5t10.5 344.5q55 267 182.5 438t205.5 250h187q-507 -616 -419.5 -949.5t126.5 -429.5h-188z" />
    <glyph glyph-name="parenright" unicode=")" horiz-adv-x="461" 
d="M-98 -314q438 526 402 862t-112 517h187q129 -232 118.5 -545.5t-175 -532.5t-234.5 -301h-186z" />
    <glyph glyph-name="asterisk" unicode="*" horiz-adv-x="569" 
d="M684 930l26 -125l-155 -51l59 -119l-126 -78l-58 119l-108 -121l-103 76l113 123l-129 49l71 127l128 -50l30 144h140l-32 -144z" />
    <glyph glyph-name="plus" unicode="+" horiz-adv-x="833" 
d="M878 473l-32 -153h-281l-61 -287h-162l62 287h-283l33 153h282l62 289h162l-62 -289h280z" />
    <glyph glyph-name="comma" unicode="," horiz-adv-x="426" 
d="M362 203l-38 -181q-45 -207 -271 -274l29 127q89 24 108 121h-86l46 207h212z" />
    <glyph glyph-name="hyphen" unicode="-" horiz-adv-x="696" 
d="M744 473l-34 -153h-589l33 153h590z" />
    <glyph glyph-name="period" unicode="." horiz-adv-x="426" 
d="M364 213l-44 -213h-214l46 213h212z" />
    <glyph glyph-name="slash" unicode="/" horiz-adv-x="557" 
d="M805 1024l-637 -1044h-201l631 1044h207z" />
    <glyph glyph-name="zero" unicode="0" horiz-adv-x="813" 
d="M440 164q38 0 105.5 36t108.5 238l37 186q37 187 -113 187q-160 0 -224 -321q-28 -139 -24 -190.5t15.5 -77.5t34 -42t60.5 -16zM895 829.5q8 -164.5 -4.5 -232t-22.5 -115.5t-25.5 -107.5t-55 -152t-135.5 -165.5t-250 -73q-312 0 -286 288.5t128 505t372 216.5
q271 0 279 -164.5z" />
    <glyph glyph-name="one" unicode="1" horiz-adv-x="813" 
d="M266 798q122 4 179 31t89.5 60.5t55.5 87.5h170l-207 -977h-203l142 672q-92 -39 -158 -44.5t-104 -7.5z" />
    <glyph glyph-name="two" unicode="2" horiz-adv-x="813" 
d="M845.5 913.5q78.5 -80.5 49.5 -225.5q-20 -87 -59 -137.5t-69.5 -78.5t-62.5 -52t-66 -44t-67 -38q-93 -51 -154 -88t-91 -70h452l-36 -180h-709q39 127 85.5 193t96 115t106.5 84.5t108 65.5q135 78 187.5 121.5t69.5 120.5t-31.5 95t-81.5 18q-68 0 -118.5 -67
t-65.5 -160h-203q24 176 145.5 292t278.5 116t235.5 -80.5z" />
    <glyph glyph-name="three" unicode="3" horiz-adv-x="813" 
d="M591 981q236 0 263.5 -105.5t13.5 -168.5q-23 -110 -118 -183q106 -63 74 -218t-114 -214.5t-139 -84.5t-160 -25q-104 0 -198 30.5t-111.5 129t2.5 188.5h205q-34 -172 115 -172q111 0 157 66.5t28.5 135t-123.5 68.5h-18q-18 0 -34 -2l35 162h35q91 0 131.5 55.5
t25 106.5t-101.5 51q-130 0 -166 -168h-207q61 252 195.5 300t209.5 48z" />
    <glyph glyph-name="four" unicode="4" horiz-adv-x="813" 
d="M858 383l-37 -178h-127l-42 -205h-200l44 205h-414l34 161l580 611h162l-127 -594h127zM590 647l-250 -264h192z" />
    <glyph glyph-name="five" unicode="5" horiz-adv-x="813" 
d="M568 682q146 0 224.5 -91t43.5 -261q-32 -142 -151 -242t-278 -100q-160 0 -238 84.5t-59 236.5h204q-3 -100 44.5 -121.5t78.5 -21.5q67 0 119 44t72 130q25 111 -34.5 137.5t-97.5 26.5q-82 0 -166 -64l-170 2l212 537h550l-35 -168h-385l-62 -147q62 18 128 18z" />
    <glyph glyph-name="six" unicode="6" horiz-adv-x="813" 
d="M566 666q166 0 234.5 -93.5t40.5 -234.5t-136.5 -247.5t-296.5 -106.5q-262 0 -278 158.5t-6 220t21 115.5t33 119t68.5 157t152 166t240.5 74q268 0 258 -277h-193q0 121 -100 121q-114 0 -164 -95.5t-68 -158.5q102 82 194 82zM399.5 445.5q-50.5 -50.5 -62.5 -103.5
q-12 -52 -7.5 -83t19.5 -54t40 -36t61 -13t66 13.5t54 37t40 53.5t23 64t4.5 65t-23.5 69t-93 38q-71 0 -121.5 -50.5z" />
    <glyph glyph-name="seven" unicode="7" horiz-adv-x="813" 
d="M926 821q-170 -132 -321 -364t-212 -457h-211q125 453 488 790h-436l38 187h686z" />
    <glyph glyph-name="eight" unicode="8" horiz-adv-x="813" 
d="M518 440q-85 0 -141 -39t-70 -103q-14 -65 24.5 -102.5t110.5 -37.5t123.5 40t64.5 100t-24.5 101t-87.5 41zM538 598q26 0 75 17.5t67 96.5q11 49 -15.5 78t-68.5 29q-72 0 -114.5 -29t-50.5 -67q-9 -38 -2 -59t22 -35.5t38 -22.5t49 -8zM618 994q206 0 242.5 -102
t21.5 -166q-28 -124 -124 -192q108 -81 77 -230t-153 -234.5t-278 -85.5q-157 0 -242 83t-53 237q31 154 167 228q-68 72 -42 194t135 195t249 73z" />
    <glyph glyph-name="nine" unicode="9" horiz-adv-x="813" 
d="M612 994q297 0 291.5 -223t-99.5 -505t-429 -282q-197 0 -227 104t-25 174h193q0 -122 98 -122q113 0 163.5 94.5t67.5 158.5q-96 -81 -190 -81q-169 0 -237.5 92.5t-40.5 234.5q29 142 138.5 248.5t296.5 106.5zM498 484q38 0 101 26t87 144q16 69 -15.5 117t-100.5 48
q-107 0 -151 -82.5t-39.5 -130.5t17.5 -71.5t38 -37t63 -13.5z" />
    <glyph glyph-name="colon" unicode=":" horiz-adv-x="426" 
d="M473 727l-45 -213h-213l45 213h213zM364 213l-44 -213h-214l46 213h212z" />
    <glyph glyph-name="semicolon" unicode=";" horiz-adv-x="426" 
d="M362 203l-38 -181q-45 -207 -271 -274l29 127q89 24 108 121h-86l46 207h212zM473 727l-45 -213h-213l45 213h213z" />
    <glyph glyph-name="less" unicode="&#x3c;" horiz-adv-x="897" 
d="M377 410l489 -244l-38 -180l-701 346l33 158l848 348l-37 -182z" />
    <glyph glyph-name="equal" unicode="=" horiz-adv-x="833" 
d="M842 338l-35 -162h-709l35 162h709zM899 614l-35 -162h-708l34 162h709z" />
    <glyph glyph-name="greater" unicode="&#x3e;" horiz-adv-x="897" 
d="M205 656l37 182l700 -348l-32 -158l-848 -346l38 180l592 244z" />
    <glyph glyph-name="question" unicode="?" horiz-adv-x="772" 
d="M818.5 945q69.5 -79 41.5 -218q-24 -111 -105 -177t-111.5 -89t-59.5 -52.5t-39 -78.5l-13 -54h-186l14 66q24 104 90 157t88 72t87.5 73.5t47.5 136t-103 81.5q-152 0 -202 -221h-184q31 170 147 276.5t267 106.5t220.5 -79zM530 203l-42 -203h-212l44 203h210z" />
    <glyph glyph-name="at" unicode="@" horiz-adv-x="1192" 
d="M618 690q-20 0 -43 -10t-52 -35.5t-51 -80.5t-22 -87q0 -52 24.5 -78.5t52.5 -26.5q29 0 50 11t48 38t49 80.5t22 84.5q0 32 -5.5 48t-15 28t-23.5 20t-34 8zM523 248q-100 0 -154.5 60.5t-54.5 150.5q0 135 86 243.5t222 108.5q58 0 88 -25.5t40 -43.5l18 50h125
l-111 -366q-18 -70 12 -70q59 0 114.5 71.5t55.5 158.5q0 160 -102 244t-258 84t-270.5 -117.5t-114.5 -286.5t119 -283.5t282 -114.5q223 0 332 134h154q-82 -127 -211 -191.5t-277 -64.5q-227 0 -386.5 150t-159.5 374t159 375t372 151q214 0 359.5 -124.5t145.5 -301.5
t-122 -273t-242 -89q-63 4 -95 51q-69 -55 -126 -55z" />
    <glyph glyph-name="A" unicode="A" horiz-adv-x="987" 
d="M444 387h260l-48 367h-2zM592 1000h234l161 -1000h-231l-29 223h-375l-124 -223h-228z" />
    <glyph glyph-name="B" unicode="B" horiz-adv-x="973" 
d="M598 174q104 0 147.5 72.5t18.5 129t-140 56.5h-224l-54 -258h252zM670 1000q218 0 276 -42q119 -79 90 -223q-31 -132 -152 -201q96 -51 108 -157.5t-45 -179.5t-133 -135t-234 -62h-488l211 1000h367zM620 592q172 0 195 118q21 94 -45 105t-100 11h-186l-50 -234h186z
" />
    <glyph glyph-name="C" unicode="C" horiz-adv-x="1020" 
d="M574 166q97 0 167.5 60.5t106.5 162.5h213q-56 -187 -200.5 -298t-328.5 -111q-226 0 -327.5 147t-52.5 372q49 226 213 375.5t391 149.5q170 0 270 -95.5t84 -264.5h-213q6 75 -46.5 125.5t-130.5 50.5q-141 0 -245.5 -116t-114 -305.5t77 -221t136.5 -31.5z" />
    <glyph glyph-name="D" unicode="D" horiz-adv-x="999" 
d="M666 1000q242 0 346.5 -119.5t54.5 -358.5q-113 -522 -613 -522h-362l211 1000h363zM502 174q92 0 199 68.5t149 261.5q69 320 -207 320h-161l-138 -650h158z" />
    <glyph glyph-name="E" unicode="E" horiz-adv-x="868" 
d="M1042 1000l-36 -181h-524l-48 -219h488l-40 -176h-486l-52 -246h526l-36 -178h-742l211 1000h739z" />
    <glyph glyph-name="F" unicode="F" horiz-adv-x="817" 
d="M1010 1000l-37 -181h-491l-48 -217h428l-38 -178h-428l-89 -424h-215l211 1000h707z" />
    <glyph glyph-name="G" unicode="G" horiz-adv-x="1075" 
d="M893 672q1 168 -191 168q-56 0 -114.5 -29t-137 -116t-88 -276.5t77 -221t136.5 -31.5q103 0 177 55t105 156h-221l37 176h420l-117 -553h-139v102q-122 -122 -304 -122q-225 0 -327 147.5t-53 372.5t213 374.5t391 149.5q159 0 261 -94.5t85 -257.5h-211z" />
    <glyph glyph-name="H" unicode="H" horiz-adv-x="1024" 
d="M518 1000l-84 -398h410l84 398h215l-211 -1000h-215l88 422h-409l-89 -422h-215l211 1000h215z" />
    <glyph glyph-name="I" unicode="I" horiz-adv-x="426" 
d="M530 1000l-210 -1000h-214l212 1000h212z" />
    <glyph glyph-name="J" unicode="J" horiz-adv-x="764" 
d="M350 -16q-58 0 -96.5 7.5t-90.5 33t-83 95.5t-8 175l18 86h199l-11 -45q-18 -80 1 -124t83 -44t88 20t35 36t18 35t11 38t8 37l142 666h218l-142 -676q-24 -127 -113.5 -233.5t-276.5 -106.5z" />
    <glyph glyph-name="K" unicode="K" horiz-adv-x="946" 
d="M303 1000h221l-88 -414l478 414h270l-469 -396l279 -604h-254l-208 450l-151 -128l-67 -322h-222z" />
    <glyph glyph-name="L" unicode="L" horiz-adv-x="792" 
d="M520 1000l-172 -812h473l-39 -188h-690l211 1000h217z" />
    <glyph glyph-name="M" unicode="M" horiz-adv-x="1241" 
d="M303 1000h303l86 -686h2l363 686h303l-211 -1000h-205l150 708h-4l-390 -708h-158l-94 702h-2l-147 -702h-207z" />
    <glyph glyph-name="N" unicode="N" horiz-adv-x="1030" 
d="M303 1000h215l280 -670h3l141 670h207l-211 -1000h-217l-279 670h-2l-141 -670h-207z" />
    <glyph glyph-name="O" unicode="O" horiz-adv-x="1077" 
d="M1156 667.5q0 -99.5 -15 -167.5t-42 -133t-89 -154t-188.5 -160t-289.5 -71q-239 0 -335 150t-50 367t207 370t400 153q240 0 321 -127.5t81 -227zM585 168q127 0 217.5 96.5t121.5 235.5q51 259 -55.5 296.5t-156.5 37.5t-92 -13.5t-94.5 -48t-111 -130t-64 -254
t83 -189.5t151.5 -31z" />
    <glyph glyph-name="P" unicode="P" horiz-adv-x="921" 
d="M756 1000q249 0 267.5 -120t2.5 -194q-32 -150 -135 -227.5t-267 -75.5h-237l-80 -383h-215l211 1000h453zM676 819h-194l-58 -264h194q162 -4 193 131q19 96 -37 114.5t-98 18.5z" />
    <glyph glyph-name="Q" unicode="Q" horiz-adv-x="1077" 
d="M553 164q31 0 42 1t21 1l-57 57l151 137l101 -94q81 85 113 230q51 259 -55.5 296.5t-156.5 37.5t-92 -13.5t-94.5 -48t-111 -130t-64 -254t83 -189.5t119.5 -31zM552 -22q-106 0 -200.5 28t-157.5 125t-61.5 271t125.5 356t267 221t227 39t181 -30t159.5 -128t61 -278
t-85 -292t-120.5 -146l111 -101l-156 -141l-133 122q-112 -46 -218 -46z" />
    <glyph glyph-name="R" unicode="R" horiz-adv-x="973" 
d="M643 572q120 0 166 56.5t38.5 123.5t-101.5 67h-260l-54 -247h211zM790 1000q157 0 240 -85.5t28 -232.5t-142 -196q46 -44 43.5 -116t-14 -133t-13 -121t40.5 -116h-231q-30 47 -25 100.5t10 89.5t7 67q6 69 -9 105t-73 36h-256l-84 -398h-218l211 1000h485z" />
    <glyph glyph-name="S" unicode="S" horiz-adv-x="921" 
d="M488 152q211 0 235 124q16 70 -51 97.5t-122 40t-90 22.5t-69 22t-117.5 58.5t-55.5 185.5q42 207 193 264.5t226 57.5t123 -8t111.5 -34.5t104 -101t15.5 -184.5h-213q19 124 -51.5 139t-104.5 15q-108 0 -150.5 -48t-37 -87t50.5 -59.5t141 -46.5q96 -25 123.5 -33
t79.5 -30t92 -84.5t23 -148.5q-33 -158 -161.5 -247.5t-317.5 -89.5q-190 0 -294.5 93.5t-64.5 268.5h214q-19 -94 31.5 -140t136.5 -46z" />
    <glyph glyph-name="T" unicode="T" horiz-adv-x="821" 
d="M182 809l41 191h795l-41 -191h-291l-170 -809h-217l170 809h-287z" />
    <glyph glyph-name="U" unicode="U" horiz-adv-x="1036" 
d="M520 -16q-210 0 -300.5 96.5t-47.5 294.5l133 625h215l-133 -625q-45 -211 174 -211q199 0 244 211l133 625h215l-133 -625q-84 -391 -500 -391z" />
    <glyph glyph-name="V" unicode="V" horiz-adv-x="897" 
d="M342 0l-131 1000h233l72 -691l362 691h230l-557 -1000h-209z" />
    <glyph glyph-name="W" unicode="W" horiz-adv-x="1333" 
d="M1052 0h-216l-29 672h-4l-307 -672h-224l-53 1000h219l16 -676h2l318 676h205l27 -684h2l309 684h217z" />
    <glyph glyph-name="X" unicode="X" horiz-adv-x="942" 
d="M230 1000h262l120 -322l266 322h250l-424 -488l234 -512h-264l-134 338l-286 -338h-254l444 512z" />
    <glyph glyph-name="Y" unicode="Y" horiz-adv-x="989" 
d="M606 0h-219l86 406l-260 594h260l155 -394l318 394h252l-506 -594z" />
    <glyph glyph-name="Z" unicode="Z" horiz-adv-x="868" 
d="M723 809h-471l41 191h757l-34 -164l-670 -648h528l-38 -188h-822l33 160z" />
    <glyph glyph-name="bracketleft" unicode="[" horiz-adv-x="446" 
d="M488 889l-220 -1026h148l-37 -177h-353l294 1379h352l-37 -176h-147z" />
    <glyph glyph-name="backslash" unicode="\" horiz-adv-x="557" 
d="M396 1024l186 -1044h-203l-191 1044h208z" />
    <glyph glyph-name="bracketright" unicode="]" horiz-adv-x="446" 
d="M188 889l38 176h352l-294 -1379h-350l38 177h144l220 1026h-148z" />
    <glyph glyph-name="asciicircum" unicode="^" horiz-adv-x="925" 
d="M742 1006l192 -668h-168l-135 456l-322 -456h-174l477 668h130z" />
    <glyph glyph-name="underscore" unicode="_" horiz-adv-x="702" 
d="M688 -66l-30 -137h-701l31 137h700z" />
    <glyph glyph-name="grave" unicode="`" horiz-adv-x="502" 
d="M506 1052l102 -264h-149l-183 264h230z" />
    <glyph glyph-name="a" unicode="a" horiz-adv-x="778" 
d="M510 608q-125 0 -154 -110h-196q62 207 205.5 226.5t181.5 19.5t74.5 -3t131.5 -26t64 -177l-75 -360q-8 -34 11 -34t50 24l-33 -156q-48 -32 -79 -34t-63 -2t-59 24t-29 68q-95 -88 -266 -88t-190.5 82t-6.5 141t42 98t68 62t85 34t93 18.5t115 19.5t99 35.5t37 51.5
q12 53 -15 69.5t-91 16.5zM379 114q31 0 98.5 21t87.5 141l15 62q-30 -25 -90 -36.5t-84 -15.5t-71.5 -15t-62.5 -71q-16 -73 30 -79.5t77 -6.5z" />
    <glyph glyph-name="b" unicode="b" horiz-adv-x="850" 
d="M700 504q0 94 -134 94q-172 0 -222 -232q-22 -103 3.5 -169t114.5 -66t149.5 70.5t78.5 162.5q10 46 10 140zM649 750q100 0 194.5 -76.5t49.5 -303.5q-36 -162 -144 -276t-267 -114q-110 0 -147 37t-53 67h-4l-16 -84h-190l210 1000h202l-72 -344h2q94 94 235 94z" />
    <glyph glyph-name="c" unicode="c" horiz-adv-x="770" 
d="M437 148q54 0 104.5 43t74.5 125h201q-137 -334 -426 -334q-175 0 -246.5 101t-38.5 271q59 270 208 331t229 61q152 0 229 -78.5t62 -229.5h-201q12 142 -101 142q-91 0 -146.5 -65t-73.5 -161q-29 -137 21 -171.5t104 -34.5z" />
    <glyph glyph-name="d" unicode="d" horiz-adv-x="850" 
d="M530 598q-82 0 -139 -66t-82 -183q-25 -118 23 -168t102 -50q97 0 162 79t74 213t-45.5 154.5t-94.5 20.5zM516 750q142 0 199 -94h2l71 344h201l-211 -1000h-190l16 84h-4q-94 -104 -244 -104q-209 0 -242.5 168.5t39.5 348t191 216.5t172 37z" />
    <glyph glyph-name="e" unicode="e" horiz-adv-x="801" 
d="M668 436q4 158 -140 158q-84 0 -134 -50t-66 -108h340zM404 -28q-173 0 -251.5 106.5t-43.5 274.5t163 280.5t301 112.5t229 -106t51 -190t-21 -141h-531q-33 -186 139 -186q91 0 131.5 39.5t48.5 56.5h178q-135 -247 -394 -247z" />
    <glyph glyph-name="f" unicode="f" horiz-adv-x="438" 
d="M532 852q-43 0 -53 -49l-16 -76h115l-31 -143h-115l-123 -584h-201l124 584h-92l30 143h92l16 82q30 147 127 175t150 28t103 -23l-32 -149q-36 12 -42 12h-52z" />
    <glyph glyph-name="g" unicode="g" horiz-adv-x="833" 
d="M426 144q81 0 153.5 75t74 223t-129.5 148q-79 0 -147 -74.5t-71 -193.5t36 -148.5t84 -29.5zM240 -80q0 -104 125 -104t161 74t44 116l18 84q-79 -89 -144.5 -95.5t-109.5 -6.5t-107 20t-107.5 110t-9.5 249q36 159 143.5 270t256.5 111q107 0 143.5 -36t52.5 -65l17 80
h193l-152 -715q-24 -125 -125 -230.5t-327 -105.5q-121 0 -204.5 61t-66.5 183h199z" />
    <glyph glyph-name="h" unicode="h" horiz-adv-x="823" 
d="M645 748q217 0 217 -117t-14 -185l-94 -446h-201l86 410q20 90 0.5 135t-88.5 45q-120 0 -153.5 -77t-45.5 -132l-80 -381h-200l210 1000h191l-75 -355h4q103 103 243 103z" />
    <glyph glyph-name="i" unicode="i" horiz-adv-x="344" 
d="M426 727l-154 -727h-200l154 727h200zM244 815l38 185h202l-40 -185h-200z" />
    <glyph glyph-name="j" unicode="j" horiz-adv-x="364" 
d="M264 815l39 185h201l-39 -185h-201zM14 -129h27q23 0 33 49l172 807h200l-174 -823q-46 -207 -256 -207q-29 0 -96 8l37 172q54 -6 57 -6z" />
    <glyph glyph-name="k" unicode="k" horiz-adv-x="735" 
d="M482 1000l-105 -490l283 217h260l-352 -268l216 -459h-223l-159 330l-74 -56l-58 -274h-198l210 1000h200z" />
    <glyph glyph-name="l" unicode="l" horiz-adv-x="362" 
d="M492 1000l-212 -1000h-198l211 1000h199z" />
    <glyph glyph-name="m" unicode="m" horiz-adv-x="1253" 
d="M643 746q156 0 185 -122q112 122 245 122q263 0 211 -260l-102 -486h-199l86 412q19 86 10 117t-30.5 45t-110 14t-125.5 -182l-86 -406h-201l86 408q4 21 9 42.5t7.5 54t-18 58t-84.5 25.5t-108.5 -49.5t-59.5 -116.5l-88 -422h-198l154 727h188l-18 -82h2
q113 101 245 101z" />
    <glyph glyph-name="n" unicode="n" horiz-adv-x="825" 
d="M645 748q217 0 217 -117t-14 -185l-94 -446h-201l86 410q20 90 0.5 135t-88.5 45q-120 0 -153.5 -77t-45.5 -132l-80 -381h-200l154 727h190l-18 -82h4q103 103 243 103z" />
    <glyph glyph-name="o" unicode="o" horiz-adv-x="823" 
d="M449 135q43 0 112.5 35.5t104.5 191.5q37 179 -29.5 203.5t-108.5 24.5q-86 0 -147 -72.5t-75.5 -207t43 -155t100.5 -20.5zM570 746q86 0 149.5 -27.5t102 -78t50 -120.5t-7 -157t-60.5 -158t-102 -121t-135 -77t-161 -27t-149 27t-101.5 77t-50 121t7 158t60 157
t101.5 120.5t135 78t161 27.5z" />
    <glyph glyph-name="p" unicode="p" horiz-adv-x="850" 
d="M473 129q41 0 113.5 37t103.5 196q21 90 -9.5 162t-117.5 72q-175 0 -221 -236q-37 -183 26.5 -207t104.5 -24zM402 643q98 105 250 105t212.5 -114.5t26.5 -274.5t-143 -270.5t-258 -110.5t-201 92h-3l-73 -342h-201l214 999h190l-18 -84h4z" />
    <glyph glyph-name="q" unicode="q" horiz-adv-x="850" 
d="M546 596q-40 0 -67 -9.5t-60.5 -33.5t-75 -96t-41.5 -200t136 -128q92 0 161 82t70.5 204.5t-41 151.5t-82.5 29zM590 70q-92 -92 -242 -92t-211.5 110.5t-26.5 270.5q34 160 144 274.5t263 114.5t202 -105h4l19 84h190l-213 -999h-201l74 342h-2z" />
    <glyph glyph-name="r" unicode="r" horiz-adv-x="524" 
d="M418 727l-20 -99q114 114 272 114l-42 -195q-189 11 -233.5 -80t-56.5 -143l-68 -324h-198l154 727h192z" />
    <glyph glyph-name="s" unicode="s" horiz-adv-x="739" 
d="M396 119q135 0 151 88q7 40 -35.5 59t-117.5 37q-75 17 -168 45t-68 162q50 232 362 232q238 0 257 -93t13 -137h-186q11 74 -39.5 83t-72.5 9t-70 -3.5t-58 -58.5q-10 -46 37 -62t85.5 -24t72.5 -16t60.5 -17t90.5 -41t43 -140q-36 -181 -163.5 -220.5t-195 -39.5
t-107 5t-135.5 42t-68 207h188q-17 -90 40.5 -103.5t83.5 -13.5z" />
    <glyph glyph-name="t" unicode="t" horiz-adv-x="459" 
d="M387 156h95l-34 -156h-126q-117 0 -155 37.5t-15 142.5l86 404h-92l30 143h92l46 215h198l-45 -215h115l-31 -143h-115l-82 -386q-7 -25 7.5 -33.5t25.5 -8.5z" />
    <glyph glyph-name="u" unicode="u" horiz-adv-x="837" 
d="M122 96q0 116 15 184l95 447h200l-88 -409q-9 -46 -9 -113.5t99 -67.5q156 0 197 209l81 381h202l-154 -727h-190l16 82h-4q-88 -102 -244 -102q-216 0 -216 116z" />
    <glyph glyph-name="v" unicode="v" horiz-adv-x="741" 
d="M473 0h-203l-108 727h213l51 -483h2l256 483h203z" />
    <glyph glyph-name="w" unicode="w" horiz-adv-x="1147" 
d="M897 0h-185l-38 488h-2l-236 -488h-186l-88 727h210l32 -477h4l223 477h195l22 -475h2l236 475h204z" />
    <glyph glyph-name="x" unicode="x" horiz-adv-x="721" 
d="M324 383l-162 344h223l88 -197l168 197h217l-307 -340l176 -387h-217l-104 236l-201 -236h-213z" />
    <glyph glyph-name="y" unicode="y" horiz-adv-x="766" 
d="M266.5 -269q-78.5 -17 -136.5 -17t-118 8l33 159q30 -3 58.5 -6t57.5 -1q52 4 85 56t24 100l-108 697h210l58 -520h2l274 520h206l-488 -846q-79 -133 -157.5 -150z" />
    <glyph glyph-name="z" unicode="z" horiz-adv-x="731" 
d="M84 150l461 428h-355l33 149h601l-32 -147l-466 -430h384l-30 -150h-627z" />
    <glyph glyph-name="braceleft" unicode="{" horiz-adv-x="524" 
d="M424 279q0 -55 -8 -95l-56 -260q-11 -48 -4.5 -60t12.5 -12h95l-35 -166h-123q-74 0 -122.5 61.5t-26.5 164.5l55 252q12 54 -14.5 86t-75.5 32l39 183q73 0 103.5 47.5t35.5 71.5l53 254q22 101 97.5 164t148.5 63h123l-35 -166h-94q-25 0 -41 -75l-55 -261
q-19 -96 -115 -186q43 -43 43 -98z" />
    <glyph glyph-name="bar" unicode="|" horiz-adv-x="348" 
d="M500 1100l-297 -1395h-185l298 1395h184z" />
    <glyph glyph-name="braceright" unicode="}" horiz-adv-x="526" 
d="M377 1065q74 0 122 -63t25 -164l-53 -254q-12 -49 15.5 -84t74.5 -35l-39 -183q-77 0 -105.5 -45t-33.5 -73l-55 -252q-22 -104 -96 -165t-148 -61h-121l35 166h92q24 0 41 72l55 260q26 131 117 193q-58 81 -37 186l56 261q16 75 -8 75h-95l35 166h123z" />
    <glyph glyph-name="asciitilde" unicode="~" horiz-adv-x="833" 
d="M616 221q-34 0 -59 7.5t-49 19.5t-47 25.5t-60.5 33t-59.5 19.5q-23 0 -42.5 -11.5t-110.5 -111.5l-61 125q91 151 243 151q65 0 122.5 -32.5t91.5 -52t53 -19.5q32 0 75 37t76 82l68 -128q-74 -76 -107 -99t-66 -34.5t-67 -11.5z" />
    <glyph glyph-name="uni00A0" unicode="&#xa0;" horiz-adv-x="248" 
 />
    <glyph glyph-name="cent" unicode="&#xa2;" horiz-adv-x="817" 
d="M306 264.5q0 -82.5 87 -110.5l103 479q-138 -45 -182 -248q-8 -38 -8 -120.5zM522 156q92 31 146 166h166q-70 -202 -176 -260t-170 -66l-32 -146h-126l30 148q-141 16 -198.5 121.5t-24.5 262.5q34 157 138.5 266.5t254.5 141.5l29 136h127l-28 -136q232 -31 210 -292
h-170q-4 117 -76 137z" />
    <glyph glyph-name="sterling" unicode="&#xa3;" horiz-adv-x="837" 
d="M630 1020q364 0 280 -389h-195q18 112 -6.5 168.5t-94.5 56.5t-124 -42.5t-66 -103.5t0 -97.5t18 -53.5h214l-32 -139h-147q0 -141 -90 -234h4q71 0 132 -22t98 -22t125 71l67 -139q-127 -90 -248 -90q-60 0 -136 25q-77 25 -125 24q-48 0 -152 -57l-86 147
q127 67 179 147.5t29 149.5h-147l31 139h72q-23 71 -8 139q14 69 35.5 109.5t67.5 90.5t131 86t174 36z" />
    <glyph glyph-name="yen" unicode="&#xa5;" horiz-adv-x="989" 
d="M680 354h242l-29 -141h-241l-46 -213h-219l45 213h-238l29 141h238l12 52l-12 24h-221l30 140h132l-189 430h260l155 -394l318 394h252l-366 -430h136l-30 -140h-228l-18 -24z" />
    <glyph glyph-name="copyright" unicode="&#xa9;" horiz-adv-x="1108" 
d="M594 192q-119 0 -181 86.5t-34 217.5t124.5 212.5t225.5 81.5q156 0 183.5 -85t25.5 -142h-125q0 81 -40.5 99t-72.5 18q-67 0 -120.5 -51.5t-69.5 -130.5t15 -135t106 -56t108 47.5t43 75.5h128q-71 -173 -165.5 -205.5t-150.5 -32.5zM556 86q70 0 149 21t194 116
t151 271q36 175 -51.5 289t-252.5 114q-233 0 -344 -145.5t-132 -245.5q-22 -100 -8.5 -175t54 -129t105.5 -85t135 -31zM1083 888q99 -124 109 -257t-57.5 -271.5t-217.5 -261t-367.5 -122.5t-338.5 148t-74 368q48 220 233.5 370t399.5 150t313 -124z" />
    <glyph glyph-name="guillemotleft" unicode="&#xab;" horiz-adv-x="758" 
d="M496 465l317 215l-39 -186l-154 -105l109 -100l-39 -191l-227 218zM164 465l318 215l-40 -186l-153 -105l109 -100l-40 -191l-227 218z" />
    <glyph glyph-name="registered" unicode="&#xae;" horiz-adv-x="1108" 
d="M733 766q206 0 168 -170q-28 -128 -147 -162l90 -215h-146l-88 201h-42l-44 -201h-133l117 547h225zM556 86q70 0 149 21t194 116t151 271q36 175 -51.5 289t-252.5 114q-233 0 -344 -145.5t-132 -245.5q-22 -100 -8.5 -175t54 -129t105.5 -85t135 -31zM647 532
q109 0 123 63q8 32 -16 44.5t-60 12.5h-78l-24 -120h55zM1083 888q99 -124 109 -257t-57.5 -271.5t-217.5 -261t-367.5 -122.5t-338.5 148t-74 368q48 220 233.5 370t399.5 150t313 -124z" />
    <glyph glyph-name="guillemotright" unicode="&#xbb;" horiz-adv-x="758" 
d="M758 316l-318 -218l39 191l154 100l-109 105l39 186l227 -215zM426 316l-318 -218l40 191l153 100l-109 105l40 186l227 -215z" />
    <glyph glyph-name="onequarter" unicode="&#xbc;" horiz-adv-x="1229" 
d="M260 868q81 5 128.5 27t72.5 84h111l-130 -613h-135l86 410q-67 -26 -159 -26zM1231 242l-27 -119h-78l-24 -123h-136l25 123h-258l25 111l366 378h107l-78 -370h78zM1018 242l30 147l-143 -147h113zM1218 1000l-790 -1000h-146l791 1000h145z" />
    <glyph glyph-name="onehalf" unicode="&#xbd;" horiz-adv-x="1229" 
d="M260 868q81 5 128.5 27t72.5 84h111l-130 -613h-135l86 410q-67 -26 -159 -26zM1178 1000l-791 -1000h-145l790 1000h146zM1092 610q96 0 148.5 -52.5t32.5 -151.5q-21 -99 -111.5 -148.5t-139.5 -75.5t-100 -61h282l-24 -121h-453q45 162 124 210t116 67q87 45 132 80
t36 76.5t-52.5 57t-79.5 -30t-49 -102.5h-137q39 173 133 212.5t142 39.5z" />
    <glyph glyph-name="threequarters" unicode="&#xbe;" horiz-adv-x="1229" 
d="M1270 1000l-791 -1000h-145l790 1000h146zM1231 242l-27 -119h-78l-24 -123h-136l25 123h-258l25 111l366 378h107l-78 -370h78zM1018 242l30 147l-143 -147h113zM477 856q-83 0 -102 -88h-139q28 96 97.5 153.5t170.5 57.5q147 0 174.5 -102.5t-76.5 -184.5
q69 -45 50 -138t-100 -145.5t-180 -52.5q-160 0 -182 76t-10 133h142q-11 -69 21.5 -77.5t53.5 -8.5q39 0 83.5 25t30 77t-78.5 52h-34l20 98h26q53 0 79 34t19.5 52.5t-19.5 28.5t-46 10z" />
    <glyph glyph-name="multiply" unicode="&#xd7;" horiz-adv-x="807" 
d="M377 396l-187 256l140 108l180 -248l284 248l95 -108l-293 -256l184 -254l-139 -109l-180 247l-285 -247l-94 109z" />
    <glyph glyph-name="divide" unicode="&#xf7;" horiz-adv-x="833" 
d="M660 766q26 -35 19 -70t-21 -55.5t-32.5 -36.5t-41 -25t-57.5 -9t-63 33.5t-21 68.5q7 36 21 57t45 46.5t78 25.5t73 -35zM537.5 195q27.5 -35 20.5 -71t-20.5 -55.5t-32.5 -35t-41.5 -24.5t-57.5 -9t-62.5 31.5t-20.5 67.5q7 35 20 57t44 48t77 26t73.5 -35zM880 475
l-34 -157h-727l35 157h726z" />
    <glyph glyph-name="kokaithai" unicode="&#xe01;" horiz-adv-x="901" 
d="M585 858q239 0 311 -110q44 -65 44 -133q0 -67 -10 -113l-106 -502h-212l109 516q22 108 -66 147q-63 28 -159 8q-97 -26 -126 -77q44 -48 21 -144l-94 -450h-207l94 452q3 14 4 29q0 52 -51 84q32 72 97 140t159 111q93 42 192 42z" />
    <glyph glyph-name="khokhaithai" unicode="&#xe02;" horiz-adv-x="768" 
d="M282 0l-18 672h-102l36 168h284l2 -520l224 520h218l-377 -840h-267z" />
    <glyph glyph-name="khokhuatthai" unicode="&#xe03;" horiz-adv-x="815" 
d="M270 615q-81 36 -86 133q-4 38 8 92h183q-14 -58 7 -81q8 -7 20 -7q45 0 65 88h185q-37 -167 -62 -213q-51 -95 -105 -140q-55 -44 -76 -88t-34 -104t11 -95q26 -34 75 -34q50 0 79 27q37 28 50 93l118 554h210l-122 -568q-30 -143 -136 -218q-106 -74 -242 -74t-211 78
t-47 209q28 129 47 167q38 74 121 129q20 14 38 26q18 11 30 19q-16 -8 -54 -8q-39 0 -72 15z" />
    <glyph glyph-name="khokhwaithai" unicode="&#xe04;" horiz-adv-x="930" 
d="M648 858q76 0 130 -14q240 -62 178 -348l-104 -496h-209l109 512q23 109 -64 151q-30 15 -78 15q-131 0 -194 -107q-17 -30 -23 -59l-16 -78q120 94 262 94l-37 -180q-248 -8 -295 -236l-23 -112h-206l104 496q62 286 330 348q60 14 136 14z" />
    <glyph glyph-name="khokhonthai" unicode="&#xe05;" horiz-adv-x="938" 
d="M766 542q17 80 -6 120l-123 -70q-49 -30 -88 0l-97 68q-41 -55 -50 -118l-30 -130q110 90 265 94l-39 -180q-246 -7 -293 -236l-19 -90h-208l106 508q62 289 332 346l115 -88l147 86q217 -48 200 -269q-4 -37 -12 -75l-106 -508h-208z" />
    <glyph glyph-name="khorakhangthai" unicode="&#xe06;" horiz-adv-x="907" 
d="M488 840h192l-37 -166q-25 -115 -148 -202q-65 -46 -81 -67q-45 -67 -30 -132t78 -93q32 -14 66 -14q94 0 132 70q13 22 18 48l118 556h212l-115 -539q-38 -158 -123 -238q-84 -81 -252 -81q-125 0 -194 104l-17 -86h-203l64 305q23 109 43 142q30 51 107 99t96 66
q-24 -6 -45 -6q-156 0 -168 146q-3 38 8 88h187q-21 -88 26 -88q46 0 66 88z" />
    <glyph glyph-name="ngonguthai" unicode="&#xe07;" horiz-adv-x="682" 
d="M432 176l104 494h-112l37 170h321l-137 -640q-23 -112 -99 -166t-180 -54q-134 0 -172 96q-12 32 -18 70l-57 376h217l49 -344q2 -22 23 -22q22 0 24 20z" />
    <glyph glyph-name="chochanthai" unicode="&#xe08;" horiz-adv-x="827" 
d="M547 678q-113 0 -170 -133h-227q57 146 172 225q122 88 269 88t232 -70t51 -235q-16 -75 -81 -185t-97 -162t-66 -105q-34 -52 -65 -101h-237l-46 309h-102l35 173h258l29 -242q23 38 51 87q27 49 46 82q92 161 45 231q-26 38 -97 38z" />
    <glyph glyph-name="chochingthai" unicode="&#xe09;" horiz-adv-x="901" 
d="M637 86q-121 -104 -295 -104q-60 0 -113 24q-142 64 -89 295l34 168h209l-39 -183q-12 -53 16 -86q26 -32 82 -32q102 0 169 58q60 56 79 146l31 144q23 106 -57 146q-30 14 -77 14q-157 0 -200 -106h-211q43 126 156 207q114 81 282 81q392 0 314 -358l-104 -500h-204z
" />
    <glyph glyph-name="chochangthai" unicode="&#xe0a;" horiz-adv-x="807" 
d="M578 274l18 84q25 111 -62 150q-26 12 -61 14q-13 -16 -29 -32t-32 -34t-25 -30t-14 -24t-8 -25t-7 -29l-14 -64q-13 -61 14 -98q27 -36 79 -36q110 0 141 124zM332 682q-12 0 -32 -3t-58 -15t-74 -23l37 170q123 41 181 41q235 0 173 -200q0 -5 -4 -11q94 17 135 116
q14 35 25 83h211q-31 -151 -100 -222q-27 -26 -66 -48q45 -31 50 -93t-5 -119l-19 -86q-11 -50 -32 -91q-103 -201 -363 -201q-127 0 -207 79t-51 213l15 66q9 49 29 96t38 65q23 23 89 87t48 88q-8 8 -20 8z" />
    <glyph glyph-name="sosothai" unicode="&#xe0b;" horiz-adv-x="827" 
d="M398 192q20 -26 72 -26q51 0 84 27q41 29 52 93l14 70q16 68 -4 105q-34 63 -96 67q-12 -16 -27 -30t-40 -38q-25 -25 -49 -73q-61 -126 -6 -195zM402 752q45 0 65 88h185q-28 -123 -58 -193q88 18 126 113q14 34 24 80h206q-24 -103 -48 -148q-42 -76 -118 -118
q36 -24 45 -53t12 -59q6 -52 -9 -106l-17 -84q-37 -185 -224 -262q-73 -30 -151 -30q-231 0 -280 166q-16 54 -2 115q30 136 49 174q42 82 141 141q10 6 21 14l22 16q-13 -6 -27 -6h-16q-68 0 -114 37t-50 111q-4 38 8 92h183q-14 -58 7 -81q8 -7 20 -7z" />
    <glyph glyph-name="chochoethai" unicode="&#xe0c;" horiz-adv-x="1333" 
d="M816 804q130 -87 87 -306l-27 -126q-29 -144 52 -188q26 -16 54 -16t46 6q56 19 76 112l118 554h212l-115 -539q-37 -165 -109 -242q-71 -77 -221 -77q-87 0 -153 66q-18 19 -29 38l-17 -86h-202l108 514q23 105 -58 144q-58 27 -141 9q-84 -18 -118 -75q44 -48 23 -144
l-62 -286h86l-33 -162h-295l94 450q3 14 4 29q0 54 -50 82q36 81 96 145q60 63 152 107q92 43 216 43t206 -52z" />
    <glyph glyph-name="yoyingthai" unicode="&#xe0d;" horiz-adv-x="1333" 
d="M581 858q288 0 325 -184q17 -70 -3 -174l-27 -130q-14 -66 2 -102t56 -36t73 18q99 55 133 206l82 384h212l-148 -686q-62 -289 -280 -380q-76 -32 -155 -32q-146 0 -222 70q-81 79 -64 218h201q-6 -79 64 -108q18 -8 51 -8q72 0 121 50t63 118l10 51q-91 -67 -183 -67
q-166 0 -212 78t-12 241l28 129q22 109 -57 147q-55 26 -123 11q-100 -22 -139 -76q42 -50 25 -148l-62 -286h86l-33 -162h-295l94 450q3 14 4 29q0 54 -50 84q76 171 245 250q97 45 190 45z" />
    <glyph glyph-name="dochadathai" unicode="&#xe0e;" horiz-adv-x="936" 
d="M760 556q0 69 -50 96q-38 26 -92 26q-128 0 -187 -55q-17 -15 -25 -29q33 -39 29 -78q-3 -38 -9 -66l-94 -450h-287l33 162h80l61 290q3 14 3 29q0 52 -50 84q76 170 250 248q101 45 199 45q236 0 310 -110q43 -64 42 -132t-9 -114l-170 -795h-192q-34 95 -163 95
t-279 -126l38 187q83 67 198 92t206 -15q16 -8 29 -14l125 590q4 20 4 40z" />
    <glyph glyph-name="topatakthai" unicode="&#xe0f;" horiz-adv-x="936" 
d="M222 481q0 52 -50 84q76 170 250 248q101 45 199 45q236 0 310 -110q43 -64 42 -132t-9 -114l-172 -801h-204q7 58 -23 85q-11 9 -30 9t-39 -28q-21 -28 -31 -66h-158q14 54 -19 87q-10 9 -25 9q-41 0 -71 -64q-8 -17 -12 -32h-184q27 126 104 189t176 63q65 3 110 -42
q14 -13 22 -27q65 65 131 65t89 -31l128 598q4 20 4 40q0 69 -50 96q-38 26 -92 26q-128 0 -187 -55q-17 -15 -25 -29q33 -39 29 -78q-3 -38 -9 -66l-94 -450h-287l33 162h80l61 290q3 14 3 29z" />
    <glyph glyph-name="thothanthai" unicode="&#xe10;" horiz-adv-x="823" 
d="M547 678q-113 0 -170 -133h-227q57 146 172 225q122 88 280 88q71 0 127 -18q43 14 65 80h220q-15 -56 -54 -115q-39 -58 -94 -84q43 -98 -13 -231t-223 -389q-34 -52 -65 -101h-237l-46 309h-102l35 173h258l29 -242q23 38 51 87q27 49 46 82q92 161 45 231
q-26 38 -97 38zM458 -287q0 53 -38 53q-54 0 -74 -90h-102q4 20 4 37q0 53 -37 53q-53 0 -71 -90h-136q46 224 226 224q65 -4 90 -50q50 50 92 50q18 0 38 -14t27 -32l17 78h180l-54 -256h-166q4 20 4 37z" />
    <glyph glyph-name="thonangmonthothai" unicode="&#xe11;" horiz-adv-x="907" 
d="M618 0q136 638 136 650t-9 12q-33 0 -160 -106t-160 -148t-49 -113l-62 -295h-210l60 280q18 96 36 124t30 46q14 18 34 36l50 45t52 47q24 20 40 34q-20 -10 -38 -10q-152 0 -168 149q-4 39 8 89h187q-11 -37 -6 -55q9 -33 33 -33q45 0 65 88h175l-15 -74q143 94 215 94
q126 0 120 -116q-2 -36 -12 -82l-140 -662h-212z" />
    <glyph glyph-name="thophuthaothai" unicode="&#xe12;" horiz-adv-x="1419" 
d="M1142 188q35 36 48 98l118 554h212l-115 -539q-34 -159 -110 -239t-228 -80q-84 0 -145 64q-18 19 -29 40l-17 -86h-200l110 526q17 72 -32 123l-100 -53q-53 -24 -91 0l-77 56q-74 -47 -88 -126l-56 -260l135 113h-57l26 129h277l-27 -125l-442 -383h-176l106 510
q41 200 212 297q60 35 140 51l111 -86l147 84q256 -64 197 -346l-29 -138q-19 -94 12 -149t90 -55t78 20z" />
    <glyph glyph-name="nonenthai" unicode="&#xe13;" horiz-adv-x="1333" 
d="M581 858q288 0 325 -184q17 -70 -3 -174l-45 -214q-20 -94 28 -112q16 -6 45 -6q63 0 116 56t75 148l100 468h212l-178 -840h-204l17 86q-95 -104 -211 -104q-222 0 -222 184q0 60 16 135l44 215q23 106 -57 145q-55 26 -123 11q-100 -22 -139 -76q45 -52 25 -146
l-62 -288h86l-33 -162h-295l94 452q3 14 4 29q0 54 -50 82q76 171 245 250q97 45 190 45z" />
    <glyph glyph-name="dodekthai" unicode="&#xe14;" horiz-adv-x="962" 
d="M257 673q130 185 408 185t324 -185q20 -73 0 -175l-105 -498h-208l108 514q23 107 -72 149q-34 15 -86 15q-144 0 -208 -106q-16 -30 -22 -58l-54 -250l142 115h-60l26 129h277l-27 -125l-446 -383h-176l104 498q22 102 75 175z" />
    <glyph glyph-name="totaothai" unicode="&#xe15;" horiz-adv-x="962" 
d="M486 652q-69 -43 -88 -126l-56 -262l142 115h-60l26 129h277l-27 -125l-446 -383h-176l106 510q41 200 212 297q60 35 140 51l111 -86l147 84q256 -64 197 -346l-107 -510h-208l110 526q17 72 -32 123l-100 -53q-53 -24 -91 0z" />
    <glyph glyph-name="thothungthai" unicode="&#xe16;" horiz-adv-x="901" 
d="M585 858q239 0 311 -110q44 -65 44 -133q0 -67 -10 -113l-106 -502h-212l109 516q22 108 -66 147q-62 28 -159 8q-97 -26 -126 -77q44 -48 21 -144l-61 -288h86l-33 -162h-293l94 452q3 14 4 29q0 52 -51 84q32 72 97 140t159 111q93 42 192 42z" />
    <glyph glyph-name="thothahanthai" unicode="&#xe17;" horiz-adv-x="901" 
d="M690 858q253 0 259 -190q2 -60 -13 -130l-112 -538h-208l117 553q19 84 -53 110q-22 9 -62 9q-86 0 -150 -55t-83 -150l-99 -467h-208l178 840h200l-18 -88q118 106 252 106z" />
    <glyph glyph-name="thothongthai" unicode="&#xe18;" horiz-adv-x="856" 
d="M442 160q163 0 184 94q17 72 -42 101q-31 17 -123 47q-134 36 -182 73q-89 71 -69 159q35 150 216 202q69 20 151 20q169 0 251 -72t48 -231h-208q21 117 -113 127q-39 4 -85 -6t-50 -35q-4 -18 20 -30q23 -13 45 -22t56 -19q162 -47 204 -71q102 -57 104 -157
q1 -38 -9 -86q-28 -136 -145 -203t-270 -67q-154 0 -235 63q-54 40 -66 120q-5 39 5 87l35 166h208l-34 -166q-10 -45 26 -70q36 -24 78 -24z" />
    <glyph glyph-name="nonuthai" unicode="&#xe19;" horiz-adv-x="901" 
d="M480 172q113 0 178 106q22 38 34 94l100 468h210l-178 -840h-202l23 108q-115 -126 -271 -126t-212 101q-47 86 -16 243l110 514h207l-107 -496q-25 -120 58 -160q30 -12 66 -12z" />
    <glyph glyph-name="bobaimaithai" unicode="&#xe1a;" horiz-adv-x="901" 
d="M616 209q48 47 68 121l108 510h210l-107 -496q-48 -219 -208 -310q-100 -52 -240 -52t-220 52q-125 88 -77 310l106 496h207l-109 -510q-26 -112 53 -153q29 -15 95 -15t114 47z" />
    <glyph glyph-name="poplathai" unicode="&#xe1b;" horiz-adv-x="901" 
d="M616 209q48 47 68 121l186 876h210l-185 -862q-48 -219 -208 -310q-100 -52 -240 -52t-220 52q-125 88 -77 310l106 496h207l-109 -510q-26 -112 53 -153q29 -15 95 -15t114 47z" />
    <glyph glyph-name="phophungthai" unicode="&#xe1c;" horiz-adv-x="964" 
d="M307 -18q-169 0 -187 146q-6 50 9 118l127 594h316l-38 -172h-106l-84 -390q-23 -116 22 -116q56 0 84 150l32 144h194l-31 -144q-23 -107 -3 -138q10 -12 28 -12q41 0 65 116l121 562h209l-127 -594q-40 -196 -187 -248q-45 -16 -97 -16q-119 0 -162 74
q-74 -74 -185 -74z" />
    <glyph glyph-name="fofathai" unicode="&#xe1d;" horiz-adv-x="964" 
d="M307 -18q-169 0 -187 146q-6 50 9 118l127 594h316l-38 -172h-106l-84 -390q-23 -116 22 -116q56 0 84 150l32 144h194l-31 -144q-23 -107 -3 -138q10 -12 28 -12q41 0 65 116l199 928h209l-205 -960q-40 -196 -187 -248q-45 -16 -97 -16q-119 0 -162 74
q-74 -74 -185 -74z" />
    <glyph glyph-name="phophanthai" unicode="&#xe1e;" horiz-adv-x="1124" 
d="M424 840v-476l240 476h153l37 -472l203 472h225l-402 -840h-178l-40 479l-240 -479h-178l-46 840h226z" />
    <glyph glyph-name="fofanthai" unicode="&#xe1f;" horiz-adv-x="1124" 
d="M424 840v-476l240 476h153l37 -472l375 838h225l-574 -1206h-178l-40 479l-240 -479h-178l-46 840h226z" />
    <glyph glyph-name="phosamphaothai" unicode="&#xe20;" horiz-adv-x="936" 
d="M222 481q0 52 -50 84q76 170 250 248q101 45 199 45q236 0 310 -110q43 -64 42 -132t-9 -114l-106 -502h-211l109 516q4 20 4 40q0 69 -50 96q-38 26 -92 26q-128 0 -187 -55q-17 -15 -25 -29q33 -39 29 -78q-3 -38 -9 -66l-94 -450h-287l33 162h80l61 290q3 14 3 29z
" />
    <glyph glyph-name="momathai" unicode="&#xe21;" horiz-adv-x="901" 
d="M524 -18q-162 0 -223 126l-23 -108h-200l178 840h209l-101 -468q-22 -102 16 -151t93 -49q97 0 149 48q49 41 66 124l106 496h208l-111 -514q-48 -240 -225 -317q-62 -27 -142 -27z" />
    <glyph glyph-name="yoyakthai" unicode="&#xe22;" horiz-adv-x="878" 
d="M190 576q0 104 82 184t224 80h145l-37 -174h-118q-75 0 -85 -52t30 -74q14 -6 34 -8h111l-36 -157h-102q-62 -4 -88 -48q-12 -19 -18 -50q-12 -57 28 -90t90 -33q176 0 214 174l108 512h207l-115 -539q-33 -151 -154 -236t-280 -85q-214 0 -289 126q-41 69 -20 164
q23 131 121 182q-52 55 -52 124z" />
    <glyph glyph-name="roruathai" unicode="&#xe23;" horiz-adv-x="762" 
d="M562 856q53 0 110 -15q185 -49 141 -294h-203q17 102 -48 128q-20 7 -49 7t-64 -17q-36 -17 -41 -47q-6 -30 24 -51t108 -51q153 -59 200 -121t29 -142q-58 -269 -392 -269q-234 0 -276 177q-15 63 -1 151h209q-26 -152 113 -152q75 0 111 40q37 40 24 70t-55 49
q-41 19 -127 54t-127 72q-111 100 -28 249q93 162 342 162z" />
    <glyph glyph-name="ruthai" unicode="&#xe24;" horiz-adv-x="884" 
d="M585 858q239 0 311 -110q44 -65 44 -133q0 -67 -10 -113l-166 -774h-211l168 788q22 108 -66 147q-62 28 -159 8q-97 -26 -126 -77q44 -48 21 -144l-61 -288h86l-33 -162h-293l94 452q3 14 4 29q0 52 -51 84q32 72 97 140t159 111q93 42 192 42z" />
    <glyph glyph-name="lolingthai" unicode="&#xe25;" horiz-adv-x="880" 
d="M314 242q-11 -47 20 -70q31 -22 85 -22q53 0 121 18l-34 -160q-147 -40 -262 -12q-182 44 -142 235q26 126 142 186q98 53 294 83q171 32 183 90q15 75 -73 86q-24 2 -54 2t-75 -9q-77 -15 -111 -133h-214q83 322 453 322q262 0 288 -168q6 -40 -5 -92l-127 -598h-207
l80 385q-53 -29 -153 -49q-100 -19 -131 -30q-71 -23 -78 -64z" />
    <glyph glyph-name="luthai" unicode="&#xe26;" horiz-adv-x="936" 
d="M222 481q0 52 -50 84q76 170 250 248q101 45 199 45q236 0 310 -110q43 -64 42 -132t-9 -114l-166 -774h-210l168 788q4 20 4 40q0 69 -50 96q-38 26 -92 26q-128 0 -187 -55q-17 -15 -25 -29q33 -39 29 -78q-3 -38 -9 -66l-94 -450h-287l33 162h80l61 290q3 14 3 29z
" />
    <glyph glyph-name="wowaenthai" unicode="&#xe27;" horiz-adv-x="803" 
d="M532 680q-77 0 -129 -86q-19 -30 -31 -68h-214q70 231 275 309q67 25 150 25q170 0 235 -117t25 -319q-41 -202 -157 -322q-118 -120 -301 -120q-146 0 -218 90t-55 244h216q-8 -72 18 -113t68 -41t73 15q96 46 137 243q14 66 16 116q0 144 -108 144z" />
    <glyph glyph-name="sosalathai" unicode="&#xe28;" horiz-adv-x="930" 
d="M465 627q-58 -51 -72 -115l-16 -78q120 94 262 94l-37 -180q-248 -8 -295 -236l-23 -112h-206l104 496q23 104 60 160q134 202 413 202q83 0 156 -26q56 26 67 92h212q-27 -125 -154 -193q42 -73 30 -172q-4 -31 -10 -63l-104 -496h-209l109 512q23 109 -66 151
q-30 15 -96 15t-125 -51z" />
    <glyph glyph-name="sorusithai" unicode="&#xe29;" horiz-adv-x="934" 
d="M463 -18q-392 0 -313 362l106 496h209l-109 -510q-26 -111 61 -153q31 -15 83 -15q137 0 191 108q15 30 21 60l11 49h-256l47 219h182l-14 -64h74l65 306h211l-66 -306h74l-32 -155h-74l-8 -35q-48 -219 -216 -310q-104 -52 -247 -52z" />
    <glyph glyph-name="sosuathai" unicode="&#xe2a;" horiz-adv-x="880" 
d="M347 289q-29 -21 -36 -56t24 -59t84 -24t121 18l-34 -160q-150 -41 -267 -11q-176 47 -137 237q37 175 272 232q74 18 163 34t118 29q59 26 66 59q16 78 -73 88q-24 2 -54 2t-75 -9q-77 -15 -111 -133h-214q83 322 453 322q83 0 151 -20q48 28 60 86h211
q-13 -61 -52 -112q-39 -50 -93 -77q22 -54 6 -137l-127 -598h-207l80 385q-53 -29 -117 -42q-63 -12 -123 -22q-60 -11 -89 -32z" />
    <glyph glyph-name="hohipthai" unicode="&#xe2b;" horiz-adv-x="882" 
d="M912 527q0 -39 -10 -89l-93 -438h-209l90 428q23 107 -45 138l-283 -209l-76 -357h-208l178 840h208l-49 -234l315 234h286l-208 -154q104 -49 104 -159z" />
    <glyph glyph-name="lochulathai" unicode="&#xe2c;" horiz-adv-x="1097" 
d="M910 844q165 0 206 120h234q-28 -76 -88 -133t-122 -81q52 -104 9 -191l-285 -559h-158l-67 424l-237 -424h-162l-42 840h230l-16 -504l216 372h146l62 -384l100 229q32 78 27 98q-10 37 -87 41z" />
    <glyph glyph-name="oangthai" unicode="&#xe2d;" horiz-adv-x="868" 
d="M160 549q144 311 469 311q95 0 162 -34q190 -96 123 -408q-55 -265 -244 -375q-105 -61 -238 -61q-203 0 -274 129q-63 115 -21 307l13 59h386l-36 -170h-168q8 -145 142 -145q36 0 73 17q109 52 153 239q53 258 -122 258q-60 0 -113 -33q-54 -33 -84 -94h-221z" />
    <glyph glyph-name="honokhukthai" unicode="&#xe2e;" horiz-adv-x="864" 
d="M332 307q8 -145 142 -145q36 0 73 17q109 52 153 239q53 258 -122 258q-60 0 -113 -33q-54 -33 -84 -94h-221q32 69 77 126q146 185 382 185q85 0 153 -26q37 16 58 65q6 13 8 25h210q-20 -91 -99 -158q-26 -21 -56 -35q63 -115 21 -313q-55 -265 -244 -375
q-105 -61 -238 -61q-203 0 -274 129q-63 115 -21 307l13 59h386l-36 -170h-168z" />
    <glyph glyph-name="paiyannoithai" unicode="&#xe2f;" horiz-adv-x="905" 
d="M553 840h151l-36 -172h-152q-83 0 -100 -82q-16 -70 50 -95q24 -9 92 -9t109 24q71 42 83 108l48 226h208l-178 -840h-208l72 346q-94 -45 -187 -44q-265 3 -303 169q-22 101 32 202q37 71 121 119t198 48z" />
    <glyph glyph-name="saraathai" unicode="&#xe30;" horiz-adv-x="522" 
d="M104 121l46 211h172l-13 -62h205l-32 -149h-378zM192 536l46 214h172l-12 -62h204l-32 -152h-378z" />
    <glyph glyph-name="maihanakatthai" unicode="&#xe31;" 
d="M-346 958l49 232h185l-15 -72h397l-34 -160h-582z" />
    <glyph glyph-name="saraaathai" unicode="&#xe32;" horiz-adv-x="735" 
d="M486 678q-100 0 -138 -133h-215q30 142 144 228q114 85 247 85q217 0 256 -161q12 -55 -4 -129l-118 -568h-210l115 540q31 138 -77 138z" />
    <glyph glyph-name="saraamthai" unicode="&#xe33;" horiz-adv-x="735" 
d="M196 1237q42 -54 25 -127t-78 -123q-61 -49 -132 -49t-111 52t-25 125q16 72 76 122q60 51 131 51q70 0 114 -51zM34 1048q24 0 42 14q44 33 37 74q-7 42 -48 42t-62 -33t-17 -57q7 -40 48 -40zM486 678q-102 0 -138 -133h-215q30 142 144 228q114 85 247 85
q217 0 256 -161q12 -55 -4 -129l-118 -568h-210l115 540q31 138 -77 138z" />
    <glyph glyph-name="saraithai" unicode="&#xe34;" 
d="M-637 958l117 160h678l-35 -160h-760z" />
    <glyph glyph-name="saraiithai" unicode="&#xe35;" 
d="M-520 1118h481l27 129h196l-61 -289h-760z" />
    <glyph glyph-name="sarauethai" unicode="&#xe36;" 
d="M70 1164q-12 16 -42 16t-50 -34q-13 -21 -7 -48t36 -27q31 0 48 15t22 39q5 23 -7 39zM56 1280q100 0 123 -97q13 -62 -25 -124t-102 -88q-30 -13 -62 -13h-627l117 160h389v6q22 99 125 144q30 12 62 12z" />
    <glyph glyph-name="saraueethai" unicode="&#xe37;" 
d="M-520 1118h286l27 129h164l-27 -129h66l24 129h164l-61 -289h-760z" />
    <glyph glyph-name="sarauthai" unicode="&#xe38;" 
d="M-364 -461l44 211h-94l31 150h285l-76 -361h-190z" />
    <glyph glyph-name="sarauuthai" unicode="&#xe39;" 
d="M-414 -461q-174 0 -204 119q-8 36 -2 80h-76l34 162h266l-28 -132q-12 -63 41 -65q53 -1 65 65l29 132h191l-29 -132q-30 -158 -173 -210q-50 -18 -114 -19z" />
    <glyph glyph-name="phinthuthai" unicode="&#xe3a;" 
d="M-248 -324q-54 0 -84 39q-49 64 2 142q52 79 137 79q53 0 83 -38q48 -61 -3 -142q-50 -80 -135 -80z" />
    <glyph glyph-name="PUCR2005" unicode="&#xe3e;" 
 />
    <glyph glyph-name="bahtthai" unicode="&#xe3f;" horiz-adv-x="973" 
d="M678 596q117 19 137 114q21 97 -88 111zM551 592l49 234h-116l-50 -234h117zM463 174l53 258h-116l-54 -258h117zM598 174q104 0 146.5 70.5t22.5 125.5t-124 62l-53 -258h8zM580 0h-27l-31 -137h-126l30 137h-334l211 1000h334l25 116h126l-24 -118q126 -5 182 -40
q119 -79 90 -223q-31 -132 -152 -201q96 -51 108 -157.5t-45 -179.5t-133 -135t-234 -62z" />
    <glyph glyph-name="saraethai" unicode="&#xe40;" horiz-adv-x="383" 
d="M86 0l178 840h211l-178 -840h-211z" />
    <glyph glyph-name="saraaethai" unicode="&#xe41;" horiz-adv-x="692" 
d="M404 0l178 840h210l-178 -840h-210zM78 0l178 840h211l-178 -840h-211z" />
    <glyph glyph-name="saraothai" unicode="&#xe42;" horiz-adv-x="426" 
d="M516 1015q0 -37 -4 -53l-170 -800h84l-33 -162h-293l209 985q13 72 -52 103q-21 10 -48 10l73 149h439l37 -165h-268q26 -30 26 -67z" />
    <glyph glyph-name="saraaimaimuanthai" unicode="&#xe43;" horiz-adv-x="426" 
d="M356 1087q-34 -39 -42 -87h-172q30 137 124 210q93 72 201 72q155 0 189 -100q31 -88 -48 -173q-24 -25 -47 -49q-59 -61 -75 -124l-142 -672h86l-34 -164h-294l176 836q19 82 120 172q58 58 62 72q3 14 3 20q1 6 -3 13q-10 13 -40 13t-64 -39z" />
    <glyph glyph-name="saraaimaimalaithai" unicode="&#xe44;" horiz-adv-x="426" 
d="M110 1082l107 165h439l8 -149q-51 0 -96 -34q-41 -36 -50 -79l-174 -815h84l-35 -170h-293l203 962q9 48 51 97q12 15 25 23h-269z" />
    <glyph glyph-name="lakkhangyaothai" unicode="&#xe45;" horiz-adv-x="735" 
d="M486 678q-100 0 -138 -133h-215q30 142 144 228q114 85 247 85q217 0 256 -161q12 -55 -4 -129l-178 -840h-209l174 812q31 138 -77 138z" />
    <glyph glyph-name="maiyamokthai" unicode="&#xe46;" horiz-adv-x="856" 
d="M430 448h58l-36 -168h-56q-92 0 -158 54q-112 92 -32 293q78 183 322 219l62 -76l84 74q170 -14 210 -116q23 -59 14 -121q-8 -63 -16 -103l-165 -774h-211l168 790q29 118 10 140l-88 -70q-25 -20 -49 -20t-39 20l-60 70q-24 -19 -40 -63q-16 -45 -18 -97t40 -52z" />
    <glyph glyph-name="maitaikhuthai" unicode="&#xe47;" 
d="M-170 1034q-68 -63 -139 -63q-71 1 -99 25q-57 50 -57 128q0 119 109 194q76 50 170 50h416l-30 -137h-400q-78 3 -95 -67q-1 -6 -1 -14q0 -36 32 -36q46 0 57 64h131q-17 -64 27 -64q22 0 31 16t12 48h143q-7 -107 -62 -156t-134 -50t-111 62z" />
    <glyph glyph-name="maiekthai" unicode="&#xe48;" 
d="M68 1608h194l-59 -279h-195z" />
    <glyph glyph-name="maithothai" unicode="&#xe49;" 
d="M-6 1329h-134l30 135h-72l30 136h230l-27 -126q108 13 154 80q15 22 21 46h170q-27 -115 -132 -193q-106 -78 -270 -78z" />
    <glyph glyph-name="maitrithai" unicode="&#xe4a;" 
d="M134 1397q0 41 -24 41q-33 0 -49 -71h-85q14 71 -22 71t-51 -76q-3 -19 -7 -35h-127q17 119 75 181q57 61 115 61t89 -49q53 49 111 49q57 0 85 -49q8 -16 10 -35q41 41 59 113h147q-19 -90 -92 -174t-143 -97h-103q12 56 12 70z" />
    <glyph glyph-name="maichattawathai" unicode="&#xe4b;" 
d="M223 1436l-25 -107h-188l25 107h-119l31 145h119l20 105h188l-20 -105h121l-31 -145h-121z" />
    <glyph glyph-name="thanthakhatthai" unicode="&#xe4c;" 
d="M252 1386q-115 0 -163 -84q-15 -26 -21 -57h-197q28 134 142 212q114 77 271 77z" />
    <glyph glyph-name="nikhahitthai" unicode="&#xe4d;" 
d="M196 1237q42 -54 25 -127t-78 -123q-61 -49 -132 -49t-111 52t-25 125q16 72 76 122q60 51 131 51q70 0 114 -51zM34 1048q24 0 42 14q44 33 37 74q-7 42 -48 42t-62 -33t-17 -57q7 -40 48 -40z" />
    <glyph glyph-name="yamakkanthai" unicode="&#xe4e;" 
d="M39 1069q-40 0 -64 -27t-37 -86h-176q32 149 130 215q34 23 80 33q60 128 292 136l-32 -154q-94 0 -117 -37q-9 -13 -13 -33l-10 -47h-53z" />
    <glyph glyph-name="fongmanthai" unicode="&#xe4f;" horiz-adv-x="1014" 
d="M510 336q19 -24 65 -24q47 0 81 32q58 48 47 119q-8 37 -34 51q-27 14 -61 14t-63 -23q-103 -82 -35 -169zM293 422q-38 -176 115 -274q49 -32 108 -32q96 0 177 43t133 110q87 105 80 227q-6 121 -100 186q-62 41 -143 41t-163 -42t-136 -111t-71 -148zM646 654
q96 0 149 -70t33 -164q-20 -93 -101 -162q-82 -70 -177 -70q-96 0 -152 69t-36 163t104 164t180 70zM350 729q158 129 341 129t282 -126q100 -126 62 -310q-37 -183 -193 -316q-92 -77 -185 -102q-91 -26 -153 -26q-122 0 -212 60q-136 90 -148 266q-13 176 118 336
q40 49 88 89z" />
    <glyph glyph-name="zerothai" unicode="&#xe50;" horiz-adv-x="964" 
d="M516 156q92 0 159 56t83 130t8 114q-23 114 -163 114t-212 -114q-25 -40 -36 -91q-31 -145 81 -194q34 -15 80 -15zM641 744q93 0 163 -26q140 -52 167 -186q13 -67 -4 -145q-33 -153 -104 -240q-70 -87 -195 -137q-70 -28 -190 -28q-119 1 -178 29q-60 28 -90 59t-47 76
q-36 94 -11 207q24 113 66 179q85 135 248 186q81 26 175 26z" />
    <glyph glyph-name="onethai" unicode="&#xe51;" horiz-adv-x="952" 
d="M956 390q-40 -187 -181 -297q-141 -109 -358 -109q-111 0 -175 18q-127 36 -207 125l157 111q65 -88 251 -88t266 135q53 93 41 177q-17 114 -162 114q-122 0 -179 -60q-18 -20 -23 -45q-16 -79 94 -87q40 -3 100 5l-33 -151q-39 -13 -66 -15l-41 -3q-14 -1 -48 -1
t-84 17q-102 35 -130 123q-14 43 -3 96q38 185 256 261q99 30 188 30q289 0 340 -195q17 -68 -3 -161z" />
    <glyph glyph-name="twothai" unicode="&#xe52;" horiz-adv-x="1104" 
d="M660 414h65l-35 -164h-80q-170 0 -170 148q0 166 115 262q74 64 191 84l71 -76l109 74q109 -14 168 -79t40 -153l-38 -190q-34 -162 -162 -247t-299 -85h-111q-205 0 -300 94t-62 252l55 254q7 42 -5 60t-52 18l70 176q174 0 198 -128q8 -44 -4 -102l-62 -292
q-14 -64 52 -111q68 -47 188 -47t180 30t79 55q20 24 26 50l45 209q8 39 -14 59l-144 -98l-92 96q-22 -16 -30 -51l-9 -30q-7 -38 -6 -53t23 -15z" />
    <glyph glyph-name="threethai" unicode="&#xe53;" horiz-adv-x="962" 
d="M335 232q0 -69 64 -67q45 1 91 9l-36 -164q-89 -21 -161 -16q-94 13 -132 69t-34 114q3 58 8 93q7 35 13 66l12 51q52 250 253 324q64 25 142 33l71 -76l107 74q147 -7 210 -88t40 -200l-96 -454h-205l98 465q14 63 -21 89q-10 8 -24 9l-157 -109l-101 107
q-56 -17 -89 -91q-14 -28 -22 -70l-12 -62q-19 -81 -19 -106z" />
    <glyph glyph-name="fourthai" unicode="&#xe54;" horiz-adv-x="962" 
d="M717 176h215l-37 -176h-465q-191 0 -258 110q-54 87 -26 214l16 78q35 163 158 246q124 83 317 83h176q38 0 58 25t34 84h209q-59 -287 -332 -287h-196q-184 -4 -216 -131l-18 -92q-27 -106 57 -142q28 -12 70 -12q-50 111 45 206q76 72 256 72l-36 -165q-69 0 -82 -23
q-21 -36 0 -63t55 -27z" />
    <glyph glyph-name="fivethai" unicode="&#xe55;" horiz-adv-x="962" 
d="M636 672q36 0 58 33q12 20 8 41q-7 34 -44 34t-58 -34q-12 -20 -6 -47t42 -27zM717 176h215l-37 -176h-465q-191 0 -258 110q-54 87 -26 214l16 78q27 125 109 205q83 77 202 105l4 11q14 67 76 116q62 47 113 47q126 -1 151 -95q7 -28 2 -60q61 0 86 109h209
q-59 -287 -332 -287h-196q-184 -4 -216 -131l-18 -92q-27 -106 57 -142q28 -12 70 -12q-50 111 45 206q76 72 256 72l-36 -165q-69 0 -82 -23q-21 -36 0 -63t55 -27z" />
    <glyph glyph-name="sixthai" unicode="&#xe56;" horiz-adv-x="979" 
d="M637 565q-188 -5 -353 -100l-110 256l184 92l56 -125q108 50 218 53q250 7 321 -103q44 -65 42 -134t-12 -115l-10 -51q-34 -107 -78 -161q-158 -194 -411 -187q-152 4 -233 77t-57 179q46 209 310 213h68l-36 -164h-61q-68 0 -77 -53q-8 -33 19 -49q84 -50 176 -23
q147 42 173 168l8 47q20 94 -14 137t-123 43z" />
    <glyph glyph-name="seventhai" unicode="&#xe57;" horiz-adv-x="1161" 
d="M340 232q0 -64 43 -64q51 0 99 10l-34 -164q-14 -2 -33 -6q-179 -38 -251 71q-33 50 -33 111q0 62 17 144l12 55q66 311 374 357l70 -74l104 70q193 -30 210 -179q7 -61 -13 -167l-14 -60q-25 -98 -53 -150q61 22 103 120q11 28 17 56l54 250q35 171 183 216
q47 14 101 14l-2 -158q-73 0 -92 -96l-47 -213q-30 -155 -159 -258t-318 -125l-113 94q88 65 120 188q7 32 13 60l17 74q21 111 -17 149l-143 -98l-96 102q-66 -48 -93 -157l-12 -66q-14 -65 -14 -106z" />
    <glyph glyph-name="eightthai" unicode="&#xe58;" horiz-adv-x="942" 
d="M553 549q-112 0 -163 -80q-14 -23 -20 -47l-30 -146q-13 -58 26 -86q11 -10 23 -14l147 104l109 -106q73 11 83 110v18q-3 25 -45 25q-17 1 -42 1l33 162h70q173 -10 192 -124q7 -39 -8 -103q-14 -63 -44 -113q-96 -160 -319 -160l-73 74l-103 -76q-148 12 -213 92
q-66 80 -41 196l27 124q32 155 146 243t298 88h178q74 0 92 109h208q-68 -291 -332 -291h-199z" />
    <glyph glyph-name="ninethai" unicode="&#xe59;" horiz-adv-x="973" 
d="M399 170q30 0 83 10l-5 -170q-15 -4 -37 -8q-195 -40 -274 58q-63 82 -20 266l12 59q42 184 124 271q83 86 240 86h32q88 0 127 -36q11 -12 21 -26l46 41q28 21 48 21h62q37 0 52 21q16 21 30 77h186q-37 -209 -209 -249q-43 -9 -77 -9t-39 -4l-37 -31l154 -547h-216
l-134 479q-26 86 -84 86q-40 1 -61 -27q-41 -53 -59 -147l-16 -75q-18 -97 10 -132q11 -14 41 -14z" />
    <glyph glyph-name="angkhankhuthai" unicode="&#xe5a;" horiz-adv-x="1218" 
d="M553 840h151l-36 -172h-152q-83 0 -100 -82q-16 -70 50 -95q24 -9 92 -9t109 24q71 42 83 108l48 226h208l-178 -840h-208l72 346q-94 -45 -187 -44q-265 3 -303 169q-22 101 32 202q37 71 121 119t198 48zM932 0l178 840h207l-179 -840h-206z" />
    <glyph glyph-name="khomutthai" unicode="&#xe5b;" horiz-adv-x="1949" 
d="M330 724q137 142 310 142q117 0 182 -56q117 -95 69 -324l-193 -2q36 178 -82 186q-137 -3 -211 -157t3 -263q58 -76 164 -76q150 0 273 146q103 126 149 329l146 72q84 -116 112 -187q18 21 40 46t56 64t67 75q13 -24 25 -50q12 -27 28 -59t33 -76q47 50 70 74h313
l88 -198h-368q-14 -16 -32 -37q-82 -93 -152 -193q-35 126 -72 218q-82 -103 -189 -290q-23 158 -61 269q-72 -176 -236 -290q-164 -113 -354 -113t-281 139q-92 139 -53 321q19 96 67 172q49 76 89 118z" />
    <glyph glyph-name="ZWSP" unicode="&#x200b;" 
 />
    <glyph glyph-name="endash" unicode="&#x2013;" horiz-adv-x="866" 
d="M966 477l-34 -161h-866l34 161h866z" />
    <glyph glyph-name="emdash" unicode="&#x2014;" horiz-adv-x="1597" 
d="M1698 477l-35 -161h-1597l34 161h1598z" />
    <glyph glyph-name="quoteleft" unicode="&#x2018;" horiz-adv-x="426" 
d="M238 618l36 172q22 102 92.5 178t171.5 76l-22 -106q-80 0 -106 -119h74l-44 -201h-202z" />
    <glyph glyph-name="quoteright" unicode="&#x2019;" horiz-adv-x="426" 
d="M534 1016l-36 -172q-22 -102 -92.5 -178t-171.5 -76l22 106q78 0 106 119h-73l43 201h202z" />
    <glyph glyph-name="quotedblleft" unicode="&#x201c;" horiz-adv-x="719" 
d="M528 618l37 172q22 102 92.5 178t172.5 76l-23 -106q-81 0 -107 -119h74l-43 -201h-203zM232 618l36 172q22 102 92.5 178t171.5 76l-22 -106q-80 0 -106 -119h73l-43 -201h-202z" />
    <glyph glyph-name="quotedblright" unicode="&#x201d;" horiz-adv-x="719" 
d="M532 1016l-36 -172q-22 -102 -92.5 -178t-171.5 -76l22 106q81 0 106 119h-74l44 201h202zM830 1016l-38 -172q-35 -167 -122.5 -210.5t-141.5 -43.5l23 106q64 0 82.5 49t24.5 70h-74l42 201h204z" />
    <glyph glyph-name="bullet" unicode="&#x2022;" horiz-adv-x="585" 
d="M238 600q91 74 196 74q104 0 165 -74q60 -75 40 -172q-19 -97 -111 -171q-92 -75 -197 -75t-167 73q-57 73 -37 171t111 174z" />
    <glyph glyph-name="Euro" unicode="&#x20ac;" horiz-adv-x="1116" 
d="M616 -18q-283 0 -334.5 136t-53.5 214h-142l28 133h124l6 31l8 34h-123l27 134h143q119 251 286 304.5t257 53.5q180 0 279 -91t91 -271h-221q-5 143 -74.5 158.5t-114.5 15.5q-171 0 -280 -170h252l-26 -134h-281l-15 -65h281l-29 -133h-250q31 -164 212 -164
q155 0 208.5 93t69.5 149h217q-136 -428 -545 -428z" />
    <glyph glyph-name="trademark" unicode="&#x2122;" horiz-adv-x="1376" 
d="M584 872l-100 -476h-142l100 476h-174l27 128h489l-26 -128h-174zM1233 396l73 354l-212 -354h-92l-68 352l-74 -352h-141l127 604h182l70 -372l221 372h184l-127 -604h-143z" />
    <glyph glyph-name="uni25CC" unicode="&#x25cc;" horiz-adv-x="934" 
d="M772 580l-53 -82q-10 25 -43 55zM684 226l-72 24q38 19 66 51zM422 580l76 -29q-52 -24 -74 -51zM301 404l88 38q-17 -51 -17 -78zM717 366q18 34 16 74l68 -38zM498 152l-21 76q30 -9 72 2zM604 652l20 -78q-38 8 -77 -2zM332 228l49 79q16 -38 43 -55z" />
    <glyph glyph-name="thothannobasethai" unicode="&#xf700;" horiz-adv-x="823" 
d="M547 678q-113 0 -170 -133h-227q57 146 172 225q122 88 280 88q71 0 127 -18q43 14 65 80h220q-15 -56 -54 -115q-39 -58 -94 -84q43 -98 -13 -231t-223 -389q-34 -52 -65 -101h-237l-46 309h-102l35 173h258l29 -242q23 38 51 87q27 49 46 82q92 161 45 231
q-26 38 -97 38z" />
    <glyph glyph-name="saraileftthai" unicode="&#xf701;" 
d="M-762 958l117 160h533l-36 -160h-614z" />
    <glyph glyph-name="saraiileftthai" unicode="&#xf702;" 
d="M-645 1118h333l28 129h198l-62 -289h-614z" />
    <glyph glyph-name="saraueleftthai" unicode="&#xf703;" 
d="M-262 1071q37 0 58 32t5 55q-17 22 -35 22q-44 0 -69 -42t21 -62q8 -4 20 -5zM-286 958h-476l117 160h237v6q14 62 70 110q57 46 104 46q83 0 116 -47q34 -47 24 -97q-25 -123 -130 -165q-30 -13 -62 -13z" />
    <glyph glyph-name="saraueeleftthai" unicode="&#xf704;" 
d="M-645 1118h147l27 129h159l-26 -129h66l26 129h160l-62 -289h-614z" />
    <glyph glyph-name="maieklowleftthai" unicode="&#xf705;" 
d="M-326 1239h201l-59 -279h-201z" />
    <glyph glyph-name="maitholowleftthai" unicode="&#xf706;" 
d="M-416 960h-124l28 136h-66l29 135h215l-26 -125q91 0 148 78q16 22 20 47h153q-23 -110 -124 -191q-100 -80 -253 -80z" />
    <glyph glyph-name="maitrilowleftthai" unicode="&#xf707;" 
d="M-336 1024q0 18 -4 30t-20 11q-35 0 -44 -65h-74q4 14 4 26q3 39 -22 39q-37 -3 -52 -71q-4 -18 -8 -34h-116q18 121 72 184q48 60 103 60t83 -49q53 49 107 49t76 -48q9 -16 9 -36q36 40 54 113h138q-18 -84 -86 -173t-136 -100h-94q10 46 10 64z" />
    <glyph glyph-name="maichattawalowleftthai" unicode="&#xf708;" 
d="M-232 1063l-22 -103h-180l22 103h-116l28 139h117l23 100h180l-23 -100h117l-28 -139h-118z" />
    <glyph glyph-name="thanthakhatlowleftthai" unicode="&#xf709;" 
d="M-104 1102q-112 0 -164 -84q-16 -26 -23 -58h-199q27 130 143 210q117 80 273 80z" />
    <glyph glyph-name="maieklowrightthai" unicode="&#xf70a;" 
d="M-14 1239h198l-59 -279h-199z" />
    <glyph glyph-name="maitholowrightthai" unicode="&#xf70b;" 
d="M-174 960h-133l29 136h-72l28 135h232l-26 -125q99 0 156 78q16 22 22 47h164q-23 -110 -129 -190q-107 -81 -271 -81z" />
    <glyph glyph-name="maitrilowrightthai" unicode="&#xf70c;" 
d="M-144 1067q-45 0 -56 -67h-88q2 12 3 24q0 43 -30 43q-48 0 -66 -107h-143q18 121 79 181q62 61 128 61t101 -53q60 53 128 53q67 0 96 -48q10 -16 12 -36q45 56 59 113h154q-17 -79 -91 -170q-76 -90 -150 -101h-120q11 57 10 69q0 38 -26 38z" />
    <glyph glyph-name="maichattawalowrightthai" unicode="&#xf70d;" 
d="M140 1067l-24 -107h-186l23 107h-121l31 145h121l20 105h188l-22 -105h121l-31 -145h-120z" />
    <glyph glyph-name="thanthakhatlowrightthai" unicode="&#xf70e;" 
d="M192 1102q-115 0 -163 -84q-16 -26 -23 -58h-196q27 129 143 210q117 80 270 80z" />
    <glyph glyph-name="yoyingnobasethai" unicode="&#xf70f;" horiz-adv-x="1333" 
d="M581 858q288 0 325 -184q17 -70 -3 -174l-45 -214q-17 -90 53 -120q21 -8 45 -8q82 0 126 70q15 24 22 58l118 554h212l-121 -566q-28 -142 -142 -218t-253 -76q-138 0 -220 77t-53 217l51 242q23 106 -57 145q-55 26 -123 11q-100 -22 -139 -76q45 -52 25 -146l-62 -288
h86l-33 -162h-295l94 452q3 14 4 29q0 54 -50 82q76 171 245 250q97 45 190 45z" />
    <glyph glyph-name="maihanakatleftthai" unicode="&#xf710;" 
d="M-436 958l49 232h184l-14 -72h539l-36 -160h-722z" />
    <glyph glyph-name="nikhahitleftthai" unicode="&#xf711;" 
d="M-263 1288q71 0 115 -51q42 -54 25 -127t-78 -123q-61 -49 -133 -49t-112 51t-25 125q16 73 76 123q61 51 132 51zM-318 1048q49 0 75 39t7 65q-20 26 -46 26q-25 0 -49 -20q-54 -44 -16 -96q10 -14 29 -14z" />
    <glyph glyph-name="maitaikhuleftthai" unicode="&#xf712;" 
d="M-477 1122q45 0 53 62h125q-17 -62 27 -62q34 0 38 62h140q-7 -104 -60 -152q-53 -49 -119 -49t-98 39q-10 10 -16 22q-66 -61 -132 -61t-100 29q-49 40 -49 117t34 123q90 118 234 118h398l-28 -133h-386q-68 0 -84 -47q-7 -18 -7 -32q4 -36 30 -36z" />
    <glyph glyph-name="maiekupperleftthai" unicode="&#xf713;" 
d="M-205 1608h195l-60 -279h-194z" />
    <glyph glyph-name="maithoupperleftthai" unicode="&#xf714;" 
d="M-219 1329h-133l28 135h-72l32 136h231l-27 -126q98 0 158 77q16 23 22 49h162q-27 -116 -132 -194q-105 -77 -269 -77z" />
    <glyph glyph-name="maitriupperleftthai" unicode="&#xf715;" 
d="M-130 1397q0 41 -24 41q-33 0 -49 -71h-85q14 71 -20 71q-40 0 -61 -111h-127q17 116 73 179q57 63 116 63t91 -49q53 49 111 49q57 0 85 -49q8 -16 10 -35q41 47 58 113h148q-26 -122 -135 -217q-50 -44 -100 -54h-103q12 56 12 70z" />
    <glyph glyph-name="maichattawaupperleftthai" unicode="&#xf716;" 
d="M-47 1436l-25 -107h-188l24 107h-120l30 145h121l21 105h186l-18 -105h118l-30 -145h-119z" />
    <glyph glyph-name="thanthakhatupperleftthai" unicode="&#xf717;" 
d="M88 1376q-75 0 -109 -29q-61 -51 -73 -112h-199q28 133 144 211t270 78z" />
    <glyph glyph-name="saraulowthai" unicode="&#xf718;" 
d="M-422 -723l45 211h-94l33 150h284l-78 -361h-190z" />
    <glyph glyph-name="sarauulowthai" unicode="&#xf719;" 
d="M-214 -582q-74 -141 -254 -141t-206 119q-8 36 -2 80h-76l35 162h267l-29 -132q-12 -63 39 -65q56 2 68 65l28 132h190l-28 -132q-10 -47 -32 -88z" />
    <glyph glyph-name="phinthulowthai" unicode="&#xf71a;" 
d="M-358 -389q45 39 99 39t84 -39t22 -79q-22 -99 -109 -132q-26 -10 -52 -10t-48 10q-45 21 -54 69q-6 23 2 64q9 42 56 78z" />
    <glyph glyph-name="lochula.short" unicode="&#xf71d;" horiz-adv-x="1097" 
d="M910 844q165 0 206 120h234q-28 -76 -88 -133t-122 -81q52 -104 9 -191l-285 -559h-158l-67 424l-237 -424h-162l-42 840h230l-16 -504l216 372h146l62 -384l100 229q32 78 27 98q-10 37 -87 41z" />
    <glyph glyph-name="rulakkhangyao" unicode="&#xf881;" horiz-adv-x="1364" 
d="M608 858q172 0 266 -94q128 94 265 94q136 0 213 -71q54 -50 60 -129q4 -40 -7 -90l-178 -840h-209l174 812q23 103 -51 130q-21 8 -45 8q-83 0 -132 -74q-22 -31 -27 -61q-5 -31 -7 -41l-166 -774h-211l168 788q22 108 -66 147q-62 28 -159 8q-97 -26 -126 -77
q44 -48 21 -144l-61 -288h86l-33 -162h-293l94 452q3 14 4 29q0 52 -51 84q32 72 97 140q147 153 374 153z" />
    <glyph glyph-name="lulakkhangyao" unicode="&#xf882;" horiz-adv-x="1356" 
d="M1145 858q219 0 255 -161q12 -55 -4 -129l-178 -840h-208l174 812q31 138 -78 138q-91 0 -135 -121q-1 -18 -7 -55l-166 -774h-210l168 788q15 71 -27 115t-104 46q-134 2 -194 -54q-17 -15 -25 -29q33 -39 29 -78q-3 -38 -9 -66l-94 -450h-287l33 162h80l61 290
q3 14 3 29q0 52 -50 84q76 170 250 248q101 45 221 45q180 0 262 -82q111 82 240 82z" />
    <glyph glyph-name="yamakkanleftthai" 
d="M-278 1069q-81 0 -103 -113h-176q21 97 58 144q66 85 151 104q69 129 295 136l-33 -154q-66 0 -94 -16t-35 -54l-11 -47h-52z" />
    <glyph glyph-name="saraamleft" horiz-adv-x="735" 
d="M-263 1288q71 0 115 -51q42 -54 25 -127t-78 -123q-61 -49 -133 -49t-112 51t-25 125q16 73 76 123q61 51 132 51zM-318 1048q49 0 75 39t7 65q-20 26 -46 26q-25 0 -49 -20q-54 -44 -16 -96q10 -14 29 -14zM486 678q-102 0 -138 -133h-215q30 142 144 228q114 85 247 85
q217 0 256 -161q12 -55 -4 -129l-118 -568h-210l115 540q31 138 -77 138z" />
    <glyph glyph-name="uni0E33.alt1" horiz-adv-x="735" 
d="M-263 1288q71 0 115 -51q42 -54 25 -127t-78 -123q-61 -49 -133 -49t-112 51t-25 125q16 73 76 123q61 51 132 51zM-318 1048q49 0 75 39t7 65q-20 26 -46 26q-25 0 -49 -20q-54 -44 -16 -96q10 -14 29 -14zM486 678q-102 0 -138 -133h-215q30 142 144 228q114 85 247 85
q217 0 256 -161q12 -55 -4 -129l-118 -568h-210l115 540q31 138 -77 138z" />
    <glyph glyph-name="saraithai.alt1" 
d="M-514 958l116 160h556l-35 -160h-637z" />
    <glyph glyph-name="saraiithai.alt1" 
d="M-398 1118h359l27 129h196l-61 -289h-637z" />
    <glyph glyph-name="sarauethai.alt1" 
d="M70 1164q-12 16 -42 16t-50 -34q-13 -21 -7 -48t36 -27q31 0 48 15t22 39q5 23 -7 39zM56 1280q100 0 123 -97q13 -62 -25 -124t-102 -88q-30 -13 -62 -13h-504l116 160h267v6q22 99 125 144q30 12 62 12z" />
    <glyph glyph-name="saraueethai.alt1" 
d="M-398 1118h164l27 129h164l-27 -129h66l24 129h164l-61 -289h-637z" />
    <glyph glyph-name="saraithai.alt2" 
d="M-905 958l117 160h700l-35 -160h-782z" />
    <glyph glyph-name="saraiithai.alt2" 
d="M-788 1118h502l26 129h198l-61 -289h-782z" />
    <glyph glyph-name="sarauethai.alt2" 
d="M-214 1071q37 0 56 33q20 33 5 54q-15 22 -33 22q-31 0 -51 -18t-24 -45q-5 -27 25 -41q10 -4 22 -5zM-172 1280q65 0 101 -46t25 -97q-27 -124 -130 -166q-32 -13 -64 -13h-665l117 160h428v6q22 101 125 144q31 12 63 12z" />
    <glyph glyph-name="saraueethai.alt2" 
d="M-788 1118h306l28 129h163l-27 -129h66l26 129h164l-61 -289h-782z" />
    <glyph glyph-name="maiekthai.alt2" 
d="M-176 1620h192l-61 -291h-195z" />
    <glyph glyph-name="maithothai.alt2" 
d="M-198 1329h-134l29 135h-72l31 136h232l-28 -126q102 0 159 79q16 23 22 47h162q-24 -115 -132 -193q-109 -78 -269 -78z" />
    <glyph glyph-name="maitrithai.alt2" 
d="M-110 1408q0 30 -24 30q-37 0 -48 -71h-86q14 71 -22 71t-51 -76q-3 -19 -7 -35h-127q17 119 75 181q57 61 115 61t90 -49q53 49 109 49q84 0 97 -84q41 47 58 113h147q-27 -126 -135 -217q-47 -43 -99 -54h-103q11 51 11 81z" />
    <glyph glyph-name="maichattawathai.alt2" 
d="M-22 1436l-25 -107h-189l25 107h-121l31 145h121l20 105h186l-20 -105h121l-31 -145h-118z" />
    <glyph glyph-name="saraithai.alt3" 
d="M-854 958l116 160h896l-34 -160h-978z" />
    <glyph glyph-name="saraiithai.alt3" 
d="M-738 1118h698l27 129h198l-61 -289h-978z" />
    <glyph glyph-name="sarauethai.alt3" 
d="M83.5 1139q-8.5 41 -45 41t-59 -34t-4.5 -54.5t34.5 -20.5t49.5 13.5t24.5 54.5zM-9 958h-845l116 160h608q12 69 68 115.5t120 46.5t100.5 -46t25.5 -97q-19 -84 -73.5 -131.5t-119.5 -47.5z" />
    <glyph glyph-name="saraueethai.alt3" 
d="M-737 1118h505l27 129h164l-27 -129h66l24 129h164l-61 -289h-979z" />
    <glyph glyph-name="maiekthai.alt4" 
d="M53 1538h195l-62 -291h-192z" />
    <glyph glyph-name="maithothai.alt4" 
d="M-22 1247h-134l29 135h-71l28 136h230l-27 -126q64 0 121 38t67 88h156q-24 -112 -129.5 -191.5t-269.5 -79.5z" />
    <glyph glyph-name="maitrithai.alt4" 
d="M34 1356q-40 0 -52 -70h-84q14 70 -22 70t-46 -47t-14 -63h-126q17 115 74 178.5t116 63.5t90 -50q55 50 111 50q57 0 75 -32t20 -52q42 47 58 112h148q-26 -121 -106.5 -191.5t-129.5 -78.5h-102q24 110 -10 110z" />
    <glyph glyph-name="maichattawathai.alt4" 
d="M205 1354l-23 -107h-186l20 107h-118l30 145h119l23 105h188l-22 -105h120l-30 -145h-121z" />
    <glyph glyph-name="maiekthai.alt5" 
d="M-215 1538h195l-62 -291h-194z" />
    <glyph glyph-name="maithothai.alt5" 
d="M-236 1247h-132l28 135h-72l29 136h231l-26 -126q67 0 119 39t61 87h162q-24 -113 -129 -192q-104 -79 -271 -79z" />
    <glyph glyph-name="maitrithai.alt5" 
d="M-158 1247q24 111 -13 111q-21 0 -32 -24q-13 -22 -17 -47h-84q14 71 -22 71t-52 -76q-4 -19 -8 -35h-126q17 120 76 183q51 59 113 59t91 -49q53 49 112 49t84 -49q8 -16 10 -35q41 47 58 113h148q-26 -121 -136 -217q-50 -44 -100 -54h-102z" />
    <glyph glyph-name="maichattawathai.alt5" 
d="M-62 1354l-22 -107h-188l22 107h-120l30 145h121l23 105h188l-22 -105h118l-30 -145h-120z" />
    <glyph glyph-name="sarauthai.alt6" 
d="M-512 -461l45 211h-94l31 150h284l-76 -361h-190z" />
    <glyph glyph-name="sarauuthai.alt6" 
d="M-446 -461q-64 0 -145.5 28.5t-62.5 170.5h-75l35 162h266l-28 -132q-12 -65 40 -65q52 -1 66 65l28 132h191l-29 -132q-34 -159 -128 -194t-158 -35z" />
    <glyph glyph-name="phinthuthai.alt6" 
d="M-348 -64q26 0 47 -10t35 -28t19 -42t-1 -50q-13 -55 -59 -92.5t-85 -37.5q-64 0 -96 39t-23 78q9 40 25 63.5t37.5 41.5t48 28t52.5 10z" />
    <glyph glyph-name="sarauthai.alt7" 
d="M-488 -461l46 211h-94l30 150h285l-76 -361h-191z" />
    <glyph glyph-name="sarauuthai.alt7" 
d="M-574 -461q-120 0 -169 54t-37 145h-76l35 162h266l-29 -132q-12 -65 42 -65q52 -1 65 65l29 132h190l-28 -132q-34 -159 -129 -194t-159 -35z" />
    <glyph glyph-name="phinthuthai.alt7" 
d="M-348 -64q26 0 47 -10t35 -28t19 -42t-1 -50q-13 -55 -59 -92.5t-85 -37.5q-64 0 -96 39t-23 78q9 40 25 63.5t37.5 41.5t48 28t52.5 10z" />
    <glyph glyph-name="maihanakatthai.alt8" 
d="M-436 958l49 232h184l-14 -72h641l-35 -160h-825z" />
    <glyph glyph-name="maiekthai.alt8" 
d="M-196 1620h194l-64 -291h-194z" />
    <glyph glyph-name="maithothai.alt8" 
d="M-219 1329h-133l28 135h-72l32 136h231l-27 -126q99 0 164 79q16 23 22 47h156q-27 -116 -132 -194q-105 -77 -269 -77z" />
    <glyph glyph-name="maitrithai.alt8" 
d="M-130 1397q0 41 -24 41q-33 0 -49 -71h-85q14 71 -20 71q-40 0 -61 -111h-127q17 116 73 179q57 63 116 63t91 -49q53 49 111 49q57 0 85 -49q8 -16 10 -35q41 47 58 113h148q-26 -122 -135 -217q-50 -44 -100 -54h-103q12 56 12 70z" />
    <glyph glyph-name="maichattawathai.alt8" 
d="M-43 1436l-25 -107h-188l24 107h-120l30 145h122l20 105h186l-18 -105h118l-30 -145h-119z" />
    </font>
</defs>
</svg>
