<?xml version="1.0" standalone="no"?>
<!DOCTYPE svg PUBLIC "-//W3C//DTD SVG 1.1//EN" "http://www.w3.org/Graphics/SVG/1.1/DTD/svg11.dtd" >
<svg xmlns="http://www.w3.org/2000/svg">
<metadata>
Created by FontPrep 20130207 at Sun May 18 01:49:14 2014
 By Sorajate H.
Copyright (c) 2008 by Prinya R. nont. All rights reserved.
</metadata>
<defs>
<font id="073dd15db5a9a09aaf3c7597af07bf4c" horiz-adv-x='1024' >
  <font-face 
    font-family="DBHelvethaicaX-Li"
    font-weight="300"
    font-stretch="normal"
    units-per-em="2048"
    panose-1="2 0 5 6 9 0 0 2 0 4"
    ascent="1638"
    descent="-410"
    x-height="729"
    cap-height="1000"
    bbox="-1010 -614 1736 1594"
    underline-thickness="41"
    underline-position="-232"
    unicode-range="U+0020-F882"
  />
<missing-glyph horiz-adv-x="575" 
d="M166 133q-31 0 -31 51q0 18 15.5 33t34.5 15q30 0 46.5 -16.5t16.5 -32.5q0 -42 -25 -50q-2 -5 -17.5 -19t-26.5 -26t-39 -38t-50 -48h-45v192q0 93 59.5 113.5t87.5 20.5q60 0 101 -33.5t41 -96.5v-161h152v283h38v-318h-266v35h41v166q0 62 -41.5 74t-75 12t-66 -24
t-32.5 -67v-147zM190 156q24 0 23 21q1 21 -23 21t-24 -21t24 -21zM58 396q13 63 72 109t158 46t143.5 -40.5t54.5 -54.5v95h38v-199q-175 50 -336 50q-66 0 -130 -6zM217 440h63q14 -2 32 -4t84 -12t90 -28q-41 79 -109.5 96.5t-95.5 17.5q-107 0 -165 -74q50 4 101 4z
M559 536q0 38 36 38t36 -38q0 -11 -8.5 -20.5t-26.5 -9.5t-27.5 10t-9.5 20zM563 536q-1 -26 31 -26t32 30t-31.5 30t-31.5 -34zM612 551q0 -17 -14 -17l14 -18h-6l-14 18h-4v-18h-6v47h14q16 0 16 -12zM596 536q10 0 10 10t-10 11h-8v-21h8z" />
    <glyph glyph-name="plusminus" unicode="&#x2b;&#x2d;" horiz-adv-x="839" 
d="M64 82h712v-82h-712v82zM379 708h82v-249h315v-84h-315v-250h-82v250h-313v84h313v249z" />
    <glyph glyph-name="ellipsis" unicode="&#x2e;&#x2e;&#x2e;" horiz-adv-x="1399" 
d="M1102 0v156h127v-156h-127zM637 0v156h125v-156h-125zM170 0v156h127v-156h-127z" />
    <glyph glyph-name="lessequal" unicode="&#x3c;&#x3d;" horiz-adv-x="839" 
d="M778 14h-718v80h718v-80zM778 188l-718 324v84l718 326v-86l-616 -281l616 -283v-84z" />
    <glyph glyph-name="greaterequal" unicode="&#x3e;&#x3d;" horiz-adv-x="841" 
d="M780 14h-718v80h718v-80zM62 272l618 283l-618 281v86l718 -326v-84l-718 -324v84z" />
    <glyph glyph-name="fongmanfunnuthai" unicode="&#xe4f;&#x22;" horiz-adv-x="1014" 
d="M366 1194h93l-17 -207h-61zM555 1194h94l-14 -207h-63zM344 420q0 -68 46 -114t114 -46t114 47t46 113t-47 113t-113 47t-113 -46t-47 -114zM258 420q0 99 72 173q74 73 174 73t173 -73t73 -173t-73 -174q-73 -72 -173 -72q-99 0 -174 72q-72 75 -72 174zM160 420
q0 -144 100 -244q58 -60 127 -80t141 -20t150 47q116 64 158 205q12 44 12 92q0 96 -47 174q-64 116 -205 158q-44 12 -92 12q-96 0 -174 -47q-120 -66 -158 -205q-12 -44 -12 -92zM66 420q0 116 60 221q86 151 262 201q56 16 116 16t116 -16t105 -44t89 -68t68 -89t44 -105
t16 -116t-16 -116q-67 -234 -306 -307q-56 -15 -116 -15t-116 16q-234 67 -307 306q-15 56 -15 116z" />
    <glyph glyph-name="dochadaphinthuthai" unicode="&#xe0e;&#xe3a;" horiz-adv-x="878" 
d="M456 -22q138 0 228 -74v620q0 247 -260 252q-120 0 -186 -55t-82 -119q65 -38 65 -156v-407h-191v75h89v334q0 119 -68 152q43 172 221 236q64 22 144 22q322 0 364 -263q6 -44 6 -89v-696h-112q-40 61 -147 83q-35 7 -90 7t-124 -36q-66 -30 -90 -67v101q60 48 155 70
q38 10 78 10zM796 -388q-20 -50 -76 -50t-76 50q-7 15 -7 39q1 24 19 43q32 34 65 34q34 0 65 -33q30 -33 10 -83z" />
    <glyph glyph-name="topatakphintuthai" unicode="&#xe0f;&#xe3a;" horiz-adv-x="878" 
d="M236 -22q121 0 164 -103q43 103 153 103q77 0 131 -70v616q0 247 -260 252q-120 0 -186 -55t-82 -119q65 -38 65 -156v-407h-191v75h89v334q0 119 -68 152q43 172 221 236q64 22 144 22q322 0 364 -263q6 -44 6 -89v-702h-106q-44 98 -127 98q-43 0 -73 -30t-34 -68h-94
q-33 100 -106 100q-54 0 -79 -64q-7 -18 -9 -36h-90q12 123 109 162q31 12 59 12zM796 -388q-20 -50 -76 -50t-76 50q-7 15 -7 39q1 24 19 43q32 34 65 34q34 0 65 -33q30 -33 10 -83z" />
    <glyph glyph-name="dochadasarauthai" unicode="&#xe0e;&#xe38;" horiz-adv-x="878" 
d="M442 858q346 0 346 -352v-696h-112q-40 61 -147 83q-34 7 -88 7t-124 -33t-91 -70v101q31 28 98 54t135 26q137 0 227 -74v620q0 169 -125 228q-47 22 -113 23q-120 2 -188 -53q-60 -45 -74 -120q68 -38 68 -156v-407h-190v75h88v334q0 127 -68 154q22 107 116 181
q93 75 242 75zM692 -559v207h-74v68h170v-275h-96z" />
    <glyph glyph-name="topataksarauthai" unicode="&#xe0f;&#xe38;" horiz-adv-x="878" 
d="M236 -22q121 0 164 -103q43 103 153 103q77 0 131 -70v616q0 247 -260 252q-120 0 -186 -55t-82 -119q65 -38 65 -156v-407h-191v75h89v334q0 119 -68 152q43 172 221 236q64 22 144 22q322 0 364 -263q6 -44 6 -89v-702h-106q-44 98 -127 98q-43 0 -73 -30t-34 -68h-94
q-33 100 -106 100q-54 0 -79 -64q-7 -18 -9 -36h-90q12 123 109 162q31 12 59 12zM692 -559v207h-74v68h170v-275h-96z" />
    <glyph glyph-name="dochadasarauuthai" unicode="&#xe0e;&#xe39;" horiz-adv-x="878" 
d="M456 -22q138 0 228 -74v620q0 247 -260 252q-120 0 -186 -55t-82 -119q65 -38 65 -156v-407h-191v75h89v334q0 119 -68 152q43 172 221 236q64 22 144 22q322 0 364 -263q6 -44 6 -89v-696h-112q-40 61 -147 83q-35 7 -90 7t-124 -36q-66 -30 -90 -67v101q60 48 155 70
q38 10 78 10zM580 -494q106 0 106 124v86h98v-86q0 -134 -108 -174q-38 -15 -95 -15q-163 0 -197 116q-12 39 -12 91h-77v68h174v-86q0 -124 111 -124z" />
    <glyph glyph-name="topataksarauuthai" unicode="&#xe0f;&#xe39;" horiz-adv-x="878" 
d="M236 -22q121 0 164 -103q43 103 153 103q77 0 131 -70v616q0 247 -260 252q-120 0 -186 -55t-82 -119q65 -38 65 -156v-407h-191v75h89v334q0 119 -68 152q43 172 221 236q64 22 144 22q322 0 364 -263q6 -44 6 -89v-702h-106q-44 98 -127 98q-43 0 -73 -30t-34 -68h-94
q-33 100 -106 100q-54 0 -79 -64q-7 -18 -9 -36h-90q12 123 109 162q31 12 59 12zM582 -494q106 0 106 124v86h98v-86q0 -134 -108 -174q-38 -15 -95 -15t-97 13q-112 37 -111 194h-78v68h174v-86q0 -124 111 -124z" />
    <glyph glyph-name=".notdef" horiz-adv-x="575" 
d="M166 133q-31 0 -31 51q0 18 15.5 33t34.5 15q30 0 46.5 -16.5t16.5 -32.5q0 -42 -25 -50q-2 -5 -17.5 -19t-26.5 -26t-39 -38t-50 -48h-45v192q0 93 59.5 113.5t87.5 20.5q60 0 101 -33.5t41 -96.5v-161h152v283h38v-318h-266v35h41v166q0 62 -41.5 74t-75 12t-66 -24
t-32.5 -67v-147zM190 156q24 0 23 21q1 21 -23 21t-24 -21t24 -21zM58 396q13 63 72 109t158 46t143.5 -40.5t54.5 -54.5v95h38v-199q-175 50 -336 50q-66 0 -130 -6zM217 440h63q14 -2 32 -4t84 -12t90 -28q-41 79 -109.5 96.5t-95.5 17.5q-107 0 -165 -74q50 4 101 4z
M559 536q0 38 36 38t36 -38q0 -11 -8.5 -20.5t-26.5 -9.5t-27.5 10t-9.5 20zM563 536q-1 -26 31 -26t32 30t-31.5 30t-31.5 -34zM612 551q0 -17 -14 -17l14 -18h-6l-14 18h-4v-18h-6v47h14q16 0 16 -12zM596 536q10 0 10 10t-10 11h-8v-21h8z" />
    <glyph glyph-name=".null" 
 />
    <glyph glyph-name="nonmarkingreturn" horiz-adv-x="395" 
 />
    <glyph glyph-name="space" unicode=" " horiz-adv-x="348" 
 />
    <glyph glyph-name="exclam" unicode="!" horiz-adv-x="420" 
d="M148 0v156h124v-156h-124zM158 1000h104v-300l-20 -454h-62l-22 454v300z" />
    <glyph glyph-name="quotedbl" unicode="&#x22;" horiz-adv-x="518" 
d="M305 1000h93v-344h-93v344zM119 1000h92v-344h-92v344z" />
    <glyph glyph-name="numbersign" unicode="#" horiz-adv-x="778" 
d="M316 592l-32 -211h191l31 211h-190zM698 309h-153l-45 -309h-78l43 309h-189l-42 -309h-78l42 309h-153v72h162l31 211h-154v70h162l43 309h79l-44 -309h190l43 309h78l-43 -309h148v-70h-156l-31 -211h145v-72z" />
    <glyph glyph-name="dollar" unicode="$" horiz-adv-x="778" 
d="M133 326q0 -162 135 -236q40 -22 88 -30v405q-245 49 -284 195q-10 38 -10 93q0 113 85 189t209 80v108h62v-108q121 -6 210 -92q90 -86 87 -220h-97q-2 98 -58 163q-57 61 -142 67v-393q324 -66 324 -287q0 -81 -49 -152q-62 -91 -195 -121q-40 -9 -80 -9v-120h-62v120
q-307 44 -319 348h96zM158 738q0 -120 126 -158q36 -12 72 -21v381q-85 -4 -141 -56q-57 -51 -57 -146zM649 249q0 136 -182 194q-27 9 -53 16v-403q155 7 214 114q21 38 21 79z" />
    <glyph glyph-name="percent" unicode="%" horiz-adv-x="1243" 
d="M320 987q60 -1 103 -21q119 -57 122 -247q-3 -193 -122 -248q-43 -21 -103 -21t-104 20q-124 59 -124 249q0 120 53 191q62 77 175 77zM934 444q-146 0 -146 -204q0 -127 75 -173q28 -18 71 -18q137 0 143 197q0 152 -93 190q-22 8 -50 8zM706 248q0 191 123 248
q43 20 105 20q220 0 225 -268q-5 -268 -225 -268q-172 0 -215 161q-13 49 -13 107zM884 1000h78l-622 -1049h-80zM174 727q0 -205 146 -205q77 0 114 64q52 92 17 222q-34 108 -133 108q-98 0 -132 -108q-12 -38 -12 -81z" />
    <glyph glyph-name="ampersand" unicode="&#x26;" horiz-adv-x="854" 
d="M526 794q0 56 -38 90t-77 34q-99 0 -132 -72q-11 -24 -11 -57t25 -73t84 -116q149 92 149 194zM652 125q-127 -145 -307 -145q-127 0 -211 74t-82 210q1 135 156 238q42 28 83 51l-21 29q-98 120 -98 212t65 150t161 58q146 0 207 -122q17 -38 17 -86q0 -88 -60 -152
q-39 -46 -132 -108q76 -90 211 -248q25 56 25 164h96q0 -119 -60 -239l176 -211h-124zM148 254q0 -87 64 -138q62 -54 151 -54t178 86q26 24 47 52l-246 292q-194 -108 -194 -238z" />
    <glyph glyph-name="quotesingle" unicode="'" horiz-adv-x="389" 
d="M148 1000h96v-344h-96v344z" />
    <glyph glyph-name="parenleft" unicode="(" horiz-adv-x="338" 
d="M164 340q0 -306 182 -606h-82q-101 166 -148.5 313t-47.5 325q0 343 196 648h82q-182 -288 -182 -680z" />
    <glyph glyph-name="parenright" unicode=")" horiz-adv-x="338" 
d="M174 412q0 314 -184 608h82q98 -161 148 -309.5t50 -329.5q0 -346 -198 -647h-82q184 291 184 678z" />
    <glyph glyph-name="asterisk" unicode="*" horiz-adv-x="491" 
d="M215 1000h61v-172l162 56l21 -60l-162 -54l103 -133l-54 -41l-102 135l-102 -135l-54 41l102 137l-157 50l20 60l162 -56v172z" />
    <glyph glyph-name="plus" unicode="+" horiz-adv-x="839" 
d="M379 708h82v-312h315v-82h-315v-314h-82v314h-315v82h315v312z" />
    <glyph glyph-name="comma" unicode="," horiz-adv-x="389" 
d="M258 156v-154q-2 -70 -26 -108q-45 -71 -105 -86v69q51 22 63 123h-59v156h127z" />
    <glyph glyph-name="hyphen" unicode="-" horiz-adv-x="588" 
d="M64 314v82h460v-82h-460z" />
    <glyph glyph-name="period" unicode="." horiz-adv-x="389" 
d="M131 0v156h127v-156h-127z" />
    <glyph glyph-name="slash" unicode="/" horiz-adv-x="465" 
d="M-18 -20l422 1040h80l-418 -1040h-84z" />
    <glyph glyph-name="zero" unicode="0" horiz-adv-x="778" 
d="M389 996q72 0 126 -22q221 -90 221 -486t-221 -487q-54 -21 -126 -21t-126 22q-186 74 -215 368q-6 60 -5 118q-7 394 220 486q54 22 126 22zM637 488q0 426 -248 426q-103 0 -162 -74q-87 -99 -87 -352q0 -327 154 -406q40 -20 95 -20q248 0 248 426z" />
    <glyph glyph-name="one" unicode="1" horiz-adv-x="778" 
d="M488 975v-975h-97v758q-61 -48 -181 -57q-37 -3 -79 -5v86q163 9 211 61t64 132h82z" />
    <glyph glyph-name="two" unicode="2" horiz-adv-x="778" 
d="M698 0h-651q3 141 95 243q57 63 111 100q70 48 149 98q196 124 196 276q0 92 -62 144q-62 53 -137 53q-180 0 -222 -170q-12 -49 -11 -103h-96q-6 245 175 328q59 27 133 27q143 0 230 -73q86 -73 86 -196q0 -124 -72 -218q-56 -77 -187 -159t-173 -118
q-88 -73 -100 -142h536v-90z" />
    <glyph glyph-name="three" unicode="3" horiz-adv-x="778" 
d="M374 60q166 0 230 121q20 39 20 90q0 148 -139 191q-41 13 -89 13h-80v82h80q73 -2 116 30q78 60 78 147q0 86 -59 132t-133 46q-127 0 -184 -68q-58 -68 -54 -180h-96q0 143 88 236q88 94 218 94q129 0 220 -61q96 -70 96 -191q0 -71 -30 -118q-50 -76 -122 -104
q138 -27 175 -154q26 -86 -1 -176q-46 -158 -238 -204q-42 -8 -104 -8t-126 22q-133 47 -179 174q-23 64 -18 144h97q-6 -185 135 -240q46 -18 99 -18z" />
    <glyph glyph-name="four" unicode="4" horiz-adv-x="778" 
d="M490 314v516l-361 -516h361zM580 975v-661h145v-82h-145v-232h-90v232h-453v92l457 651h86z" />
    <glyph glyph-name="five" unicode="5" horiz-adv-x="778" 
d="M182 572q78 82 226 82q52 0 113 -26q125 -52 170 -172q45 -119 11 -244t-156 -193q-78 -43 -161 -43q-234 0 -311 180q-25 56 -27 128h97q4 -104 70 -165t170 -61t170 76t66 187q0 110 -70 178q-71 73 -172 73t-178 -68q-24 -22 -42 -50h-82l94 521h498v-91h-428z" />
    <glyph glyph-name="six" unicode="6" horiz-adv-x="778" 
d="M400 -16q-353 0 -349 491q0 246 100 396q86 129 255 129q201 0 273 -148q23 -50 31 -117h-96q-19 128 -125 169q-33 14 -81 14q-176 0 -236 -230q-20 -77 -20 -184q56 103 170 133t227 -16q114 -45 163 -169q24 -60 24 -132q-1 -148 -97 -242q-95 -94 -239 -94zM406 568
q-56 0 -102 -20q-138 -62 -138 -234q0 -140 103 -211q59 -37 125 -37q113 0 177 72t66 178q2 107 -62 179q-64 73 -169 73z" />
    <glyph glyph-name="seven" unicode="7" horiz-adv-x="778" 
d="M68 884v91h636v-86q-369 -394 -395 -889h-104q24 398 278 737q53 71 119 147h-534z" />
    <glyph glyph-name="eight" unicode="8" horiz-adv-x="778" 
d="M594 740q0 81 -57 126q-57 44 -144 44t-149 -45t-62 -128q0 -84 65 -133q60 -41 142 -39q138 -4 188 97q17 34 17 78zM86 744q0 83 46 139q77 103 255 108q228 -6 291 -170q12 -35 12 -75q0 -78 -38 -139q-38 -60 -110 -83q183 -46 187 -250q0 -142 -95 -220t-245 -78
q-234 0 -315 168q-27 56 -26 116q3 158 108 232q34 22 78 34q-148 54 -148 218zM390 58q168 0 224 120q19 40 19 94q0 103 -70 158q-70 54 -174 54q-170 0 -226 -117q-19 -41 -19 -94q0 -106 70 -160q70 -55 176 -55z" />
    <glyph glyph-name="nine" unicode="9" horiz-adv-x="778" 
d="M626 473q-85 -147 -273 -147q-57 0 -117 24q-123 49 -170 173q-23 61 -23 133q0 147 95 240q93 95 241 95q178 2 261 -121t85 -403q0 -222 -99 -367q-87 -124 -254 -124q-201 0 -273 147q-23 51 -31 117h96q16 -129 124 -169q34 -13 82 -13t89 18q167 73 167 397z
M373 408q109 0 174 72t65 177q0 106 -62 179q-62 74 -172 74q-109 0 -173 -73q-65 -73 -65 -175q0 -53 15 -100q33 -94 119 -134q43 -20 99 -20z" />
    <glyph glyph-name="colon" unicode=":" horiz-adv-x="389" 
d="M131 0v156h127v-156h-127zM131 540v156h127v-156h-127z" />
    <glyph glyph-name="semicolon" unicode=";" horiz-adv-x="389" 
d="M131 540v156h127v-156h-127zM258 156v-154q-2 -70 -26 -108q-45 -71 -105 -86v69q51 22 63 123h-59v156h127z" />
    <glyph glyph-name="less" unicode="&#x3c;" horiz-adv-x="839" 
d="M778 -12l-718 324v84l718 325v-86l-616 -281l616 -282v-84z" />
    <glyph glyph-name="equal" unicode="=" horiz-adv-x="839" 
d="M776 174h-712v84h712v-84zM776 450h-712v82h712v-82z" />
    <glyph glyph-name="greater" unicode="&#x3e;" horiz-adv-x="839" 
d="M680 356l-620 281v86l718 -325v-84l-718 -324v84z" />
    <glyph glyph-name="question" unicode="?" horiz-adv-x="751" 
d="M320 156h124v-156h-124v156zM72 686q0 150 84 245q87 93 225 93t219 -71q82 -71 82 -183t-75 -200q-22 -26 -77 -79t-67 -70q-21 -32 -27 -70t-6 -103h-96q-5 161 91 263q31 33 59 60q102 101 102 184t-59 135t-127 52q-174 0 -220 -155q-14 -47 -12 -101h-96z" />
    <glyph glyph-name="at" unicode="@" horiz-adv-x="1118" 
d="M266 383q0 154 96 282q96 127 240 127q75 0 122 -62q16 -21 26 -48l30 84h82l-133 -408q-17 -47 -17 -79q0 -33 31 -33q61 0 113 54q119 114 119 312q0 62 -32 130q-62 136 -211 186q-72 24 -143 24q-267 0 -389 -226q-56 -106 -56 -232q0 -254 214 -388q103 -61 244 -61
t268 109q41 34 72 78h84q-64 -116 -185 -186t-257 -70q-226 0 -375 152q-147 153 -147 376q0 145 67 262t187 189q121 69 264 69q206 0 342 -124q135 -124 135 -316q3 -164 -103 -287t-225 -123q-61 0 -89 47q-10 16 -12 39q-79 -84 -170 -84t-141 59q-51 59 -51 148z
M362 391q0 -57 32 -95t84 -38q53 0 112 57q77 80 104 202q8 37 8 63t-9 49q-32 79 -113 79t-150 -106q-68 -106 -68 -211z" />
    <glyph glyph-name="A" unicode="A" horiz-adv-x="880" 
d="M252 400h372l-182 484zM389 1000h115l389 -1000h-113l-120 312h-439l-121 -312h-112z" />
    <glyph glyph-name="B" unicode="B" horiz-adv-x="934" 
d="M205 565h313q108 0 165 45t57 119q0 181 -222 181h-313v-345zM100 1000h418q255 0 314 -164q12 -36 12 -79q0 -83 -45 -144q-45 -62 -113 -85q134 -27 180 -155q14 -41 14 -76q0 -297 -362 -297h-418v1000zM778 289q0 186 -260 186h-313v-385h313q182 -4 239 102
q21 39 21 97z" />
    <glyph glyph-name="C" unicode="C" horiz-adv-x="985" 
d="M782 790q-89 140 -264 140t-276 -134q-86 -118 -86 -296q0 -252 156 -369q83 -63 215 -63t213 91t98 230h102q-31 -289 -255 -381q-73 -28 -157 -28q-230 0 -353 150q-122 150 -122 368t122 370t349 152q152 0 263 -84q71 -54 113 -148q20 -46 26 -100h-102
q-13 58 -42 102z" />
    <glyph glyph-name="D" unicode="D" horiz-adv-x="958" 
d="M905 498q0 -490 -459 -498h-346v1000h346q459 -12 459 -502zM205 90h195q214 -2 307 93q94 95 94 316q0 220 -92 315q-92 96 -309 96h-195v-820z" />
    <glyph glyph-name="E" unicode="E" horiz-adv-x="829" 
d="M100 1000h690v-90h-585v-349h547v-90h-547v-381h591v-90h-696v1000z" />
    <glyph glyph-name="F" unicode="F" horiz-adv-x="751" 
d="M100 1000h635v-90h-530v-349h469v-90h-469v-471h-105v1000z" />
    <glyph glyph-name="G" unicode="G" horiz-adv-x="1036" 
d="M862 168q-100 -188 -332 -188t-355 150q-122 150 -122 368t122 370t349 152q162 0 277 -88q114 -88 141 -252h-104q-10 96 -95 173t-219 77q-182 0 -282 -134q-86 -118 -86 -296q0 -252 156 -369q83 -63 227 -63t235 98q90 98 88 256h-336v90h428v-512h-78z" />
    <glyph glyph-name="H" unicode="H" horiz-adv-x="985" 
d="M100 1000h105v-430h575v430h104v-1000h-104v479h-575v-479h-105v1000z" />
    <glyph glyph-name="I" unicode="I" horiz-adv-x="311" 
d="M104 1000h103v-1000h-103v1000z" />
    <glyph glyph-name="J" unicode="J" horiz-adv-x="698" 
d="M496 1000h102v-718q0 -156 -65 -229t-226 -73q-208 0 -243.5 126.5t-35.5 221.5h105v-19q0 -146 50 -193.5t119 -47.5q68 0 119 20.5t63 94t12 141.5v676z" />
    <glyph glyph-name="K" unicode="K" horiz-adv-x="907" 
d="M100 1000h105v-531l567 531h138l-451 -414l471 -586h-134l-413 516l-178 -174v-342h-105v1000z" />
    <glyph glyph-name="L" unicode="L" horiz-adv-x="747" 
d="M100 1000h105v-910h543v-90h-648v1000z" />
    <glyph glyph-name="M" unicode="M" horiz-adv-x="1165" 
d="M1067 1000v-1000h-103v880l-336 -880h-90l-338 880v-880h-102v1000h158l328 -860l324 860h159z" />
    <glyph glyph-name="N" unicode="N" horiz-adv-x="985" 
d="M200 0h-102v1000h128l556 -863v863h102v-1000h-118l-566 870v-870z" />
    <glyph glyph-name="O" unicode="O" horiz-adv-x="1036" 
d="M152 500q0 -256 155 -369q83 -63 211 -63q242 0 330 223q36 86 36 206q0 119 -28 189q-49 125 -131 185q-82 59 -207 59q-182 0 -274 -124q-92 -125 -92 -306zM47 500q0 68 13 133q58 289 314 367q66 20 144 20q223 0 354 -157q117 -147 117 -365t-124 -368t-347 -150
t-347 150t-124 370z" />
    <glyph glyph-name="P" unicode="P" horiz-adv-x="880" 
d="M205 510h313q158 0 204 110q16 38 16 88t-16 89q-48 113 -204 113h-313v-400zM100 1000h440q136 0 218 -78q82 -80 82 -214q0 -205 -177 -268q-55 -20 -123 -20h-335v-420h-105v1000z" />
    <glyph glyph-name="Q" unicode="Q" horiz-adv-x="1036" 
d="M766 162q118 126 118 322t-84 312q-95 134 -279 134t-277 -124q-92 -124 -92 -306q0 -256 155 -369q83 -63 199 -63t188 40l-135 103l55 67zM518 -20q-223 0 -347 150t-124 368t117 365q79 97 210 137q66 20 144 20q223 0 354 -157q117 -147 117 -379t-147 -380l139 -106
l-53 -64l-154 115q-112 -69 -256 -69z" />
    <glyph glyph-name="R" unicode="R" horiz-adv-x="934" 
d="M205 524h342q89 0 150 52.5t61 165t-79 140.5t-132 28h-342v-386zM862 757q0 -220 -178 -278q149 -31 158 -219l2 -30q2 -27 7 -106t42 -124h-117q-26 46 -26 144q-7 139 -27.5 186.5t-53.5 78.5t-116 27h-348v-436h-105v1000h455q183 0 245 -88t62 -155z" />
    <glyph glyph-name="S" unicode="S" horiz-adv-x="880" 
d="M450 68q158 0 234 83q43 49 43 103q0 140 -201 190l-214 46q-110 30 -151 66q-79 69 -79 175q0 105 65 183q88 106 279 106q247 0 341 -181q29 -61 29 -139h-104q-4 110 -78 170t-186 60q-166 0 -222 -103q-20 -37 -20 -82t12 -69q32 -64 136 -88l234 -54
q122 -32 172 -73q92 -78 92 -170q0 -174 -125 -251q-97 -60 -259 -60q-292 0 -373 196q-28 68 -24 162h103q-6 -213 190 -257q58 -13 106 -13z" />
    <glyph glyph-name="T" unicode="T" horiz-adv-x="778" 
d="M8 1000h764v-90h-332v-910h-102v910h-330v90z" />
    <glyph glyph-name="U" unicode="U" horiz-adv-x="958" 
d="M90 1000h104v-615q-3 -247 106.5 -282t215 -35t177 74.5t71.5 242.5v615h102v-636q0 -305 -158.5 -344.5t-228.5 -39.5t-126.5 14t-159.5 74t-103 296v636z" />
    <glyph glyph-name="V" unicode="V" horiz-adv-x="866" 
d="M8 1000h113l315 -879l310 879h110l-364 -1000h-120z" />
    <glyph glyph-name="W" unicode="W" horiz-adv-x="1280" 
d="M12 1000h113l225 -854l232 854h126l236 -854l224 854h104l-276 -1000h-109l-244 872l-239 -872h-113z" />
    <glyph glyph-name="X" unicode="X" horiz-adv-x="835" 
d="M18 1000h124l272 -412l280 412h117l-334 -488l355 -512h-126l-292 432l-300 -432h-116l352 514z" />
    <glyph glyph-name="Y" unicode="Y" horiz-adv-x="903" 
d="M502 0h-104v410l-390 590h123l319 -500l318 500h123l-389 -590v-410z" />
    <glyph glyph-name="Z" unicode="Z" horiz-adv-x="803" 
d="M56 1000h710v-90l-637 -820h637v-90h-756v90l637 820h-591v90z" />
    <glyph glyph-name="bracketleft" unicode="[" horiz-adv-x="338" 
d="M102 -268v1290h234v-82h-138v-1126h138v-82h-234z" />
    <glyph glyph-name="backslash" unicode="\" horiz-adv-x="465" 
d="M400 -20l-418 1040h80l422 -1040h-84z" />
    <glyph glyph-name="bracketright" unicode="]" horiz-adv-x="338" 
d="M236 1022v-1290h-234v82h138v1126h-138v82h234z" />
    <glyph glyph-name="asciicircum" unicode="^" horiz-adv-x="839" 
d="M53 330l330 641h73l330 -641h-88l-280 540l-274 -540h-91z" />
    <glyph glyph-name="underscore" unicode="_" horiz-adv-x="698" 
d="M0 -174v78h698v-78h-698z" />
    <glyph glyph-name="grave" unicode="`" horiz-adv-x="258" 
d="M-49 1022h117l149 -201h-77z" />
    <glyph glyph-name="a" unicode="a" horiz-adv-x="725" 
d="M645 0q-96 0 -105 114q-90 -134 -230 -134q-190 0 -246 118q-19 40 -19 92q0 168 176 209q53 14 131 22q79 9 121 18t52 33q11 24 11 60t-14 63q-36 73 -164 73q-127 0 -171 -91q-15 -32 -15 -75h-96q9 186 179 235q51 15 113 15q265 0 265 -238v-383q0 -49 49 -49
q6 0 30 8v-84q-42 -6 -67 -6zM218 312q-76 -32 -76 -104t44 -109t100 -37q109 0 179 60q71 60 71 162l-2 103q-21 -17 -64 -24t-122 -18q-80 -12 -130 -33z" />
    <glyph glyph-name="b" unicode="b" horiz-adv-x="809" 
d="M184 610q73 142 266 142q60 0 121 -32q120 -62 161 -208q20 -70 20 -148q0 -165 -81 -270q-84 -114 -243 -114q-126 0 -208 82q-27 26 -44 59v-121h-90v1008h98v-398zM656 364q0 177 -97 258q-57 46 -117 46q-217 0 -254 -230q-6 -38 -6 -74t6 -74q38 -228 240 -228
q147 0 204 158q24 68 24 144z" />
    <glyph glyph-name="c" unicode="c" horiz-adv-x="749" 
d="M400 666q-120 0 -183 -90t-63 -214q0 -122 64 -212t182 -90q79 0 136 57q56 58 64 147h96q-16 -131 -95 -208q-80 -78 -201 -78q-213 0 -304 192q-38 82 -38 176q0 179 91 291q91 113 263 113q171 0 247 -145q25 -47 33 -111h-96q-39 172 -196 172z" />
    <glyph glyph-name="d" unicode="d" horiz-adv-x="809" 
d="M631 119q-73 -141 -273 -141q-60 0 -121 30q-179 89 -179 354q0 164 83 276t240 112q123 0 203 -80q26 -26 42 -62v398h97v-1008h-90zM463 72q163 54 163 290t-163 291q-37 13 -81 13q-150 0 -206 -159q-22 -62 -22 -122q0 -197 94 -280q51 -45 115 -45t100 12z" />
    <glyph glyph-name="e" unicode="e" horiz-adv-x="766" 
d="M154 420h450q-4 104 -64 176q-59 72 -157 72t-157 -70q-58 -70 -72 -178zM383 62q170 0 219 184h96q-58 -266 -315 -266q-164 0 -244 102q-81 102 -81 270q0 226 140 339q78 61 185 61q162 0 249 -130q75 -112 68 -284h-546q0 -104 57 -190t172 -86z" />
    <glyph glyph-name="f" unicode="f" horiz-adv-x="379" 
d="M320 924q-34 0 -60 -15t-29 -54t-3 -67v-59h142v-82h-142v-647h-97v647h-123v82h123v63q0 158 91 200q36 16 69 16t98 -6v-84q-35 6 -69 6z" />
    <glyph glyph-name="g" unicode="g" horiz-adv-x="790" 
d="M58 383q0 101 29 163q96 206 296 206q105 0 185 -77q24 -23 40 -51v105h96v-665q-4 -176 -77 -264q-72 -88 -240 -88q-168 -1 -251 97q-48 55 -52 129h96q22 -108 136 -136q33 -8 67 -7q225 -4 225 269l-4 67q-31 -51 -93 -87t-138 -36q-152 0 -234 104q-81 104 -81 271z
M608 372q0 164 -94 250q-55 46 -113 46q-92 0 -149 -44q-98 -75 -98 -252q0 -114 59 -198t166 -84q108 0 169 85q60 84 60 197z" />
    <glyph glyph-name="h" unicode="h" horiz-adv-x="758" 
d="M186 628q62 124 243 124q55 0 106 -20q137 -54 137 -263v-469h-96v454q0 214 -174 214q-98 0 -157 -68t-63 -174v-426h-96v1008h96z" />
    <glyph glyph-name="i" unicode="i" horiz-adv-x="293" 
d="M98 1008h96v-150h-96v150zM98 729h96v-729h-96v729z" />
    <glyph glyph-name="j" unicode="j" horiz-adv-x="293" 
d="M98 1008h96v-150h-96v150zM98 729h96v-793q0 -94 -24 -132t-55 -54q-30 -16 -78 -16l-65 2v80h50q45 0 60 26q16 26 16 74v813z" />
    <glyph glyph-name="k" unicode="k" horiz-adv-x="723" 
d="M86 1008h96v-625l388 346h130l-315 -273l332 -456h-121l-284 391l-130 -115v-276h-96v1008z" />
    <glyph glyph-name="l" unicode="l" horiz-adv-x="293" 
d="M98 1008h96v-1008h-96v1008z" />
    <glyph glyph-name="m" unicode="m" horiz-adv-x="1157" 
d="M528 494q0 174 -143 174q-152 0 -191 -158q-12 -48 -12 -102v-408h-96v729h90l4 -98q76 121 224 121q108 0 171 -72q20 -26 31 -60q48 97 158 124q34 8 68 8q116 0 178 -64t61 -194v-494h-96v490q-2 91 -29 122q-47 56 -117 56q-71 0 -107 -21q-71 -41 -88 -139
q-10 -46 -10 -96v-412h-96v494z" />
    <glyph glyph-name="n" unicode="n" horiz-adv-x="766" 
d="M412 752q218 0 255 -166q13 -52 13 -117v-469h-96v454q0 156 -92 198q-34 16 -86 16t-93 -18q-81 -36 -113 -128q-16 -44 -18 -96v-426h-96v729h96l4 -98q71 121 226 121z" />
    <glyph glyph-name="o" unicode="o" horiz-adv-x="778" 
d="M390 664q-116 0 -181 -90t-65 -214t65 -213t181 -89q115 0 179 91t64 211q0 57 -15 112q-34 116 -122 166q-44 26 -106 26zM87 168q-40 86 -40 194t40 192q89 194 315 194q68 0 132 -32q193 -97 197 -356q0 -108 -30 -171q-53 -112 -131 -163q-78 -50 -181 -50
q-211 0 -302 192z" />
    <glyph glyph-name="p" unicode="p" horiz-adv-x="809" 
d="M178 608q72 144 271 144q61 0 121 -32q120 -63 162 -208q20 -70 20 -148q0 -165 -81 -270q-84 -114 -243 -114q-125 0 -202 77q-26 26 -44 62v-385h-96v995h90zM656 364q0 177 -97 258q-57 46 -117 46q-260 0 -260 -304q0 -175 101 -257q58 -45 145 -45q147 0 204 158
q24 68 24 144z" />
    <glyph glyph-name="q" unicode="q" horiz-adv-x="809" 
d="M624 112q-62 -132 -265 -132q-61 0 -121 30q-119 60 -160 207q-20 69 -20 147q0 164 84 276t252 112q169 0 239 -140v117h90v-995h-97zM154 364q0 -232 154 -290q32 -12 75 -12q163 0 220 158q23 65 23 123q0 257 -164 312q-36 13 -96 13t-116 -46q-96 -74 -96 -258z" />
    <glyph glyph-name="r" unicode="r" horiz-adv-x="454" 
d="M86 729h90l2 -149q78 168 268 160v-97q-121 6 -193 -67q-71 -74 -71 -187v-389h-96v729z" />
    <glyph glyph-name="s" unicode="s" horiz-adv-x="674" 
d="M438 640q-39 28 -106 28t-101 -20q-67 -39 -67 -94q0 -54 52 -88q27 -17 96 -36l108 -26q97 -22 136 -56q72 -61 72 -160q0 -98 -86 -153t-202 -55q-199 0 -268 144q-24 50 -29 118h97q9 -130 126 -169q36 -11 71 -11q124 0 177 70q18 24 18 58q0 83 -96 115
q-28 9 -57 17l-107 24q-102 24 -137 54q-67 57 -67 145q0 132 146 186q57 21 118 21q185 0 248 -135q22 -46 24 -107h-96q-2 42 -16 72t-54 58z" />
    <glyph glyph-name="t" unicode="t" horiz-adv-x="393" 
d="M223 166q-1 -47 9 -62t27 -23t111 -3v-84l-42 -2h-39q-92 0 -127 35t-35 131v489h-125v82h125v217h96v-217h147v-82h-147v-481z" />
    <glyph glyph-name="u" unicode="u" horiz-adv-x="758" 
d="M340 -20q-254 0 -254 278v471h96v-473q4 -101 35 -135q52 -59 153 -59q102 0 154 84t52 200v383h96v-729h-88l-4 102q-55 -101 -165 -117q-35 -5 -75 -5z" />
    <glyph glyph-name="v" unicode="v" horiz-adv-x="647" 
d="M0 729h108l222 -623l215 623h102l-268 -729h-103z" />
    <glyph glyph-name="w" unicode="w" horiz-adv-x="1030" 
d="M4 729h104l183 -602l170 602h107l174 -604l178 604h104l-234 -729h-104l-174 594l-170 -594h-104z" />
    <glyph glyph-name="x" unicode="x" horiz-adv-x="674" 
d="M278 379q-64 88 -128 175q-66 87 -130 175h115l203 -273l200 273h114l-259 -348l281 -381h-117l-223 303l-222 -303h-110z" />
    <glyph glyph-name="y" unicode="y" horiz-adv-x="647" 
d="M208 -158q24 26 48 84l30 80l-286 723h104l230 -604l215 604h98l-311 -837q-43 -98 -78 -128t-102 -30q-68 0 -86 6v82q24 -6 69 -6t69 26z" />
    <glyph glyph-name="z" unicode="z" horiz-adv-x="651" 
d="M622 82v-82h-598v78l458 569h-424v82h550v-67l-464 -580h478z" />
    <glyph glyph-name="braceleft" unicode="{" horiz-adv-x="465" 
d="M309 -47q0 -137 72 -137h33v-82h-74q-92 0 -119 102q-8 33 -8 74v204q-6 220 -101 220v82q82 0 96 140q4 40 5 81v207q0 128 73 164q24 12 54 12h74v-82h-33q-72 0 -72 -140v-194q3 -134 -92 -229q34 -24 64 -79t28 -148v-195z" />
    <glyph glyph-name="bar" unicode="|" horiz-adv-x="311" 
d="M114 1020h82v-1040h-82v1040z" />
    <glyph glyph-name="braceright" unicode="}" horiz-adv-x="465" 
d="M354 336q-100 0 -100 -220v-206q0 -84 -33 -130t-96 -46h-74v82h33q74 0 74 137v195q-3 91 33 159q19 41 55 70q-35 25 -63 82t-25 145v194q0 94 -40 128q-14 12 -34 12h-33v82h74q93 0 121 -103q8 -33 8 -73v-207q0 -219 100 -219v-82z" />
    <glyph glyph-name="asciitilde" unicode="~" horiz-adv-x="839" 
d="M752 391q-86 -125 -176 -125q-68 0 -106 19q-142 71 -210 71t-112 -100l-56 56q66 126 180 126q60 0 130 -30t106 -46q36 -14 62 -14q62 0 122 100z" />
    <glyph glyph-name="uni00A0" unicode="&#xa0;" horiz-adv-x="170" 
 />
    <glyph glyph-name="cent" unicode="&#xa2;" horiz-adv-x="778" 
d="M436 -164h-64v142q-132 23 -216 130q-84 106 -84 252q0 145 82 251t218 131v124h64v-120q174 -13 246 -150q24 -46 30 -106h-96q-24 113 -114 155q-30 15 -66 17v-602q115 13 166 127q16 36 20 77h97q-16 -128 -91 -203t-192 -83v-142zM168 359q0 -101 56 -187
q56 -87 148 -110v598q-92 -23 -148 -111q-56 -89 -56 -190z" />
    <glyph glyph-name="sterling" unicode="&#xa3;" horiz-adv-x="778" 
d="M213 330q0 52 -37 126h-116v54h84q-72 118 -72 206q0 155 93 229q93 75 240 75q146 0 234 -92t84 -248h-97q0 180 -130 239q-42 19 -92 19q-103 0 -170 -56q-66 -56 -66 -161q0 -59 15 -88q15 -28 23 -43t16 -27q20 -34 28 -53h223v-54h-193q29 -50 29 -122t-33 -130
q-33 -57 -90 -112q58 27 91 27q82 0 153 -28t136 -29q64 0 146 82l54 -76q-96 -88 -213 -88q-82 0 -152 28t-129 29q-59 0 -130 -41l-32 -20l-59 84q33 26 63 53q99 92 99 217z" />
    <glyph glyph-name="yen" unicode="&#xa5;" horiz-adv-x="778" 
d="M434 412v-98h192v-72h-192v-242h-96v242h-188v72h188v98l-8 10h-180v70h145l-295 508h108l279 -504l281 504h106l-297 -508h149v-70h-188q-4 -4 -4 -10z" />
    <glyph glyph-name="copyright" unicode="&#xa9;" horiz-adv-x="1118" 
d="M375 492q0 -164 111 -227q38 -21 80 -21q111 0 157 100q15 32 17 68h79q-22 -166 -152 -220q-41 -16 -100 -16t-111 25t-89 68q-36 43 -54 101t-18 122q0 212 160 292q53 26 111 26q221 -2 249 -212h-77q-34 142 -162 142q-99 0 -150 -73q-51 -74 -51 -175zM125 500
q0 -184 124 -314q77 -79 192 -113q57 -15 119 -15t118 16q112 32 193 113t109 195q16 56 16 118q0 186 -128 314t-312 128t-307 -130q-82 -84 -109 -195q-15 -55 -15 -117zM560 1024q222 0 373 -151t151 -372t-151 -375q-153 -150 -373 -150t-374 150q-151 152 -151 374
t151 373t374 151z" />
    <glyph glyph-name="guillemotleft" unicode="&#xab;" horiz-adv-x="596" 
d="M148 385l126 -119v-110l-194 182v94l194 180v-108zM372 385q7 -7 128 -119v-110l-195 182v94l195 180v-108z" />
    <glyph glyph-name="registered" unicode="&#xae;" horiz-adv-x="1118" 
d="M719 633q0 95 -139 100h-132v-201h94q119 0 148 28t29 73zM602 805q199 0 199 -172q3 -112 -89 -154q-26 -13 -56 -18l178 -267h-99l-170 267h-117v-267h-82v611h236zM125 500q0 -184 124 -314q77 -79 192 -113q57 -15 119 -15t118 16q112 32 193 113t109 195
q16 56 16 118q0 186 -128 314t-312 128t-307 -130q-82 -84 -109 -195q-15 -55 -15 -117zM560 1024q222 0 373 -151t151 -372t-151 -375q-153 -150 -373 -150t-374 150q-151 152 -151 374t151 373t374 151z" />
    <glyph glyph-name="guillemotright" unicode="&#xbb;" horiz-adv-x="596" 
d="M96 266l127 119l-127 119v108l195 -180v-94l-195 -182v110zM322 266l126 119l-126 119v108l194 -180v-94l-194 -182v110z" />
    <glyph glyph-name="onequarter" unicode="&#xbc;" horiz-adv-x="1167" 
d="M309 975v-605h-79v443q-51 -40 -168 -45v72q85 5 124 30t54 105h69zM891 207v279l-209 -279h209zM891 140h-293v65l301 399h72v-397h94v-67h-94v-140h-80v140zM798 1000h82l-591 -1000h-84z" />
    <glyph glyph-name="onehalf" unicode="&#xbd;" horiz-adv-x="1167" 
d="M309 975v-605h-79v443q-51 -40 -168 -45v72q85 5 124 30t54 105h69zM888 616q100 0 158 -45.5t58 -134.5q0 -121 -152 -208q-164 -88 -196 -160h344v-68h-434q0 122 78 177t108 73q87 52 130.5 91.5t43.5 106.5q0 68 -55 84.5t-87 16.5q-62 0 -97 -46t-31 -112h-78
q-3 162 78 193.5t132 31.5zM801 1000h81l-593 -1000h-84z" />
    <glyph glyph-name="threequarters" unicode="&#xbe;" horiz-adv-x="1167" 
d="M950 207v279l-208 -279h208zM950 140h-292v65l300 399h72v-397h94v-67h-94v-140h-80v140zM905 1000h82l-594 -1000h-84zM240 744h53q78 0 109 52q12 18 12 52t-38 61t-80 27q-103 0 -132 -85q-8 -27 -8 -57h-76q0 94 55 150t151 56q138 0 187 -86q17 -30 17 -61
q0 -107 -84 -141q106 -29 106 -138q0 -86 -65 -136q-65 -49 -139 -49q-248 0 -240 211h76q-4 -63 26 -93q52 -53 113 -53t94 22q59 40 59 91q0 50 -40 81q-40 30 -103 30h-53v66z" />
    <glyph glyph-name="multiply" unicode="&#xd7;" horiz-adv-x="694" 
d="M346 295l-268 -285l-58 56l271 286l-271 287l58 57l268 -286l270 286l58 -57l-272 -287l272 -286l-58 -56z" />
    <glyph glyph-name="divide" unicode="&#xf7;" horiz-adv-x="839" 
d="M411 -8q-27 0 -50 24t-23 50t6 40q20 49 65 50q45 0 69 -24t24 -49t-6 -40t-18 -26t-26 -18t-41 -7zM338 628q0 58 49 78q15 6 42 6t50 -24t23 -50q0 -44 -26 -68t-49 -22q-89 2 -89 80zM68 312v81h704v-81h-704z" />
    <glyph glyph-name="kokaithai" unicode="&#xe01;" horiz-adv-x="862" 
d="M400 858q370 0 370 -352v-506h-102v524q0 199 -168 241q-40 11 -88 11q-162 0 -237 -100q-25 -33 -35 -74q65 -38 65 -156v-446h-103v448q0 88 -30 124q-14 17 -37 28q43 173 221 236q64 22 144 22z" />
    <glyph glyph-name="khokhaithai" unicode="&#xe02;" horiz-adv-x="702" 
d="M14 770v70h199l157 -762h2l158 762h111l-193 -840h-155l-170 770h-109z" />
    <glyph glyph-name="khokhuatthai" unicode="&#xe03;" horiz-adv-x="770" 
d="M121 840q15 -92 111 -92q32 0 60 25t34 67h94v-154q0 -53 -67 -120l-46 -46q-92 -92 -92 -186v-50q0 -99 51 -158q51 -58 134 -58q176 0 176 204v568h102v-584q0 -205 -168 -260q-50 -16 -110 -16q-124 0 -207 77t-83 199v35q0 99 17 136q17 36 50 71q91 80 121 116
t30 84v44q-4 -10 -14 -22q-38 -42 -111 -42q-103 0 -149 82q-18 32 -24 80h91z" />
    <glyph glyph-name="khokhwaithai" unicode="&#xe04;" horiz-adv-x="882" 
d="M92 500q0 358 349 358t349 -358v-500h-102v520q0 197 -161 245q-37 11 -85 11q-138 0 -196 -84q-52 -68 -52 -172v-202q77 166 290 166v-82q-145 0 -217 -89q-73 -89 -73 -245v-68h-102v500z" />
    <glyph glyph-name="khokhonthai" unicode="&#xe05;" horiz-adv-x="893" 
d="M194 532v-214q75 133 196 156q42 10 94 10v-82q-138 0 -214 -91t-76 -243v-68h-102v532q0 283 234 320l120 -119l113 119q242 -34 242 -320v-532h-103v532q0 177 -114 228l-138 -134q-4 -4 -6 0l-137 134q-109 -47 -109 -228z" />
    <glyph glyph-name="khorakhangthai" unicode="&#xe06;" horiz-adv-x="856" 
d="M98 0v291v77t24 79q23 32 62 64q38 31 73 61q54 47 52 136v23q-19 -32 -58 -43q-39 -10 -60 -10q-57 0 -109 36q-53 36 -64 126h90q20 -92 101 -92q43 0 71 25t34 67h94v-154q-7 -97 -111 -186q-54 -46 -66 -65q-13 -19 -19 -38t-8 -72q-2 -107 71 -183t205 -76
q133 0 170 118q12 38 12 84v572h102v-556q0 -306 -274 -306q-145 0 -239 83q-33 29 -55 70l-4 -131h-94z" />
    <glyph glyph-name="ngonguthai" unicode="&#xe07;" horiz-adv-x="618" 
d="M526 176q0 -196 -188 -196q-112 0 -162 87q-16 28 -28 62l-122 353h107l123 -359q22 -63 84 -63q40 0 63 25t23 63v620h-125v72h225v-664z" />
    <glyph glyph-name="chochanthai" unicode="&#xe08;" horiz-adv-x="741" 
d="M366 774q-193 0 -210 -152h-113q10 107 94 170q84 64 243 64t228 -80t66 -208q-10 -159 -149 -466q-23 -52 -46 -102h-135l-146 408h-108v71h186l138 -401q156 364 156 490q7 145 -106 190q-40 16 -98 16z" />
    <glyph glyph-name="chochingthai" unicode="&#xe09;" horiz-adv-x="874" 
d="M426 772q-203 0 -240 -148h-110q28 162 202 212q62 18 141 18q209 0 294 -108q51 -67 60 -133t9 -111v-502h-94l-4 133q-89 -155 -313 -155t-266 182q-13 56 -13 124v162h102v-178q0 -141 117 -188q37 -14 97 -14q130 0 201 79t71 215v160q0 172 -130 230q-49 22 -124 22
z" />
    <glyph glyph-name="chochangthai" unicode="&#xe0a;" horiz-adv-x="741" 
d="M375 72q186 0 186 204v68q3 121 -41 152q-44 32 -139 32h-27v78h27q201 7 201 234h102q-8 -104 -28 -146q-22 -42 -42 -62q-44 -43 -118 -58q109 -16 144 -96q22 -51 23 -83q1 -33 1 -51v-84q0 -134 -83 -205t-206 -71q-122 0 -209 74q-88 74 -88 202v94q0 92 14 126
t33 55t35 40t41 46t33 63q15 96 -84 96q-52 0 -107 -24v65q72 31 142 31q69 0 109 -40t38 -116q-7 -51 -46 -96q-12 -14 -28 -34t-45 -60t-29 -77t-2 -59v-81q0 -101 54 -159t139 -58z" />
    <glyph glyph-name="sosothai" unicode="&#xe0b;" horiz-adv-x="747" 
d="M190 748q83 0 92 92h95v-154q0 -61 -54 -118q-19 -22 -43 -47q-51 -53 -72 -94q-20 -41 -20 -93v-45q0 -101 54 -159t139 -58q187 0 187 204v68q0 122 -43 153t-138 31v78q201 7 201 234h102q-8 -104 -28 -146q-22 -42 -42 -62q-44 -43 -118 -58q109 -16 144 -96
q22 -51 23 -83q1 -33 1 -51v-84q0 -134 -83 -205t-205 -71q-121 0 -210 72q-88 72 -88 204v31q0 98 19 136q19 39 41 61l42 42t49 50q49 50 49 118v44q-5 -15 -35 -39q-30 -25 -67 -25q-36 0 -62 7q-55 15 -86 75q-18 32 -22 80h90q15 -69 52 -85q14 -7 36 -7z" />
    <glyph glyph-name="chochoethai" unicode="&#xe0c;" horiz-adv-x="1329" 
d="M968 70q166 0 166 202v568h103v-551q0 -307 -241 -307q-171 0 -256 149l-5 -131h-94v526q0 247 -243 252q-113 2 -178 -53q-65 -54 -80 -125q65 -32 65 -158v-366h94v-76h-197v444q0 58 -10 89q-10 32 -57 67q26 105 116 183q90 77 247 77q242 0 316 -180q30 -73 30 -172
v-164q0 -190 131 -253q43 -21 93 -21z" />
    <glyph glyph-name="yoyingthai" unicode="&#xe0d;" horiz-adv-x="1329" 
d="M205 442v-366h94v-76h-197v444q0 58 -10 89q-10 32 -57 67q26 105 116 183q90 77 247 77q242 0 316 -180q30 -73 30 -172v-164q0 -95 28 -134q51 -68 120 -68q179 0 228 166q14 50 14 108v424h103v-631q0 -188 -65 -291q-82 -123 -261 -123t-261 115q-28 38 -38 90h109
q35 -131 170 -130q136 1 196 81q51 75 51 174v78q-88 -154 -256 -150q-193 3 -230 189q-11 56 -11 118v166q0 247 -243 252q-113 2 -178 -53q-65 -54 -80 -125q65 -32 65 -158z" />
    <glyph glyph-name="dochadathai" unicode="&#xe0e;" horiz-adv-x="878" 
d="M456 -104q138 0 228 -74v702q0 247 -260 252q-120 0 -186 -55t-82 -119q65 -38 65 -156v-446h-191v76h89v372q0 119 -68 152q43 172 221 236q64 22 144 22q322 0 364 -263q6 -44 6 -89v-778h-112q-40 61 -147 83q-35 7 -90 7t-124 -36q-65 -29 -90 -66v100q60 48 155 70
q38 10 78 10z" />
    <glyph glyph-name="topatakthai" unicode="&#xe0f;" horiz-adv-x="878" 
d="M236 -98q120 0 164 -102q44 102 153 102q77 0 131 -70v692q0 247 -260 252q-120 0 -186 -55t-82 -119q65 -38 65 -156v-446h-191v76h89v372q0 119 -68 152q43 172 221 236q64 22 144 22q322 0 364 -263q6 -44 6 -89v-778h-106q-44 98 -119 98t-104 -63q-9 -17 -11 -35
h-94q-33 100 -106 100q-54 0 -79 -63q-7 -17 -9 -37h-90q12 123 109 162q31 12 59 12z" />
    <glyph glyph-name="thothanthai" unicode="&#xe10;" horiz-adv-x="751" 
d="M372 856q74 0 126 -16q55 4 87 31q33 27 37 63h113q-11 -63 -89 -108q-28 -16 -68 -25q101 -75 96 -233q-10 -159 -149 -466q-23 -52 -46 -102h-135l-146 408h-108v71h186l138 -401q156 364 156 490q7 145 -106 190q-40 16 -98 16q-193 0 -210 -152h-113q5 52 29 96
q77 138 300 138zM536 -72h97v-192h-101q-21 50 -42 71t-59 21t-59 -27q-22 -27 -22 -65h-96q0 40 -18 67t-46 27q-60 0 -76 -62q-4 -16 -4 -32h-86q0 76 44 121t110 45q95 0 125 -82q28 82 125 82q77 -5 108 -66v92z" />
    <glyph glyph-name="thonangmonthothai" unicode="&#xe11;" horiz-adv-x="862" 
d="M416 719q153 133 242 133t106 -91q6 -31 6 -73v-688h-102v720q0 36 -25 36q-62 0 -211 -139q-48 -44 -110 -113q-62 -70 -80 -97q-31 -45 -31 -145v-262h-103v254v78t27 91q26 44 72 91q47 47 61 63q54 62 54 158q-31 -55 -128 -55q-52 0 -91 28q-64 45 -75 132h95
q10 -92 96 -92q67 0 92 54q9 18 11 38h94v-121z" />
    <glyph glyph-name="thophuthaothai" unicode="&#xe12;" horiz-adv-x="1380" 
d="M1046 -18q-171 0 -256 149l-4 -131h-94v532q0 172 -118 224l-127 -129l-140 129q-113 -53 -113 -224v-409l230 283h-92v71h206v-67l-333 -410h-113v516q0 291 238 336l114 -119l109 119q241 -40 241 -336v-172q0 -120 60 -197t156 -77q95 0 136 54q40 54 40 148v568h102
v-551q0 -307 -242 -307zM448 624q-2 0 -2 2l1 1q3 -3 1 -3z" />
    <glyph glyph-name="nonenthai" unicode="&#xe13;" horiz-adv-x="1329" 
d="M882 -18q-241 0 -241 307v237q0 247 -243 252q-113 2 -178 -53q-65 -54 -80 -125q65 -32 65 -158v-366h94v-76h-197v444q0 58 -10 89q-10 32 -57 67q26 105 116 183q90 77 247 77q242 0 316 -180q30 -73 30 -172v-236q0 -95 28 -134q51 -68 120 -68q179 0 228 166
q14 50 14 108v496h103v-840h-94l-5 131q-69 -120 -180 -142q-36 -7 -76 -7z" />
    <glyph glyph-name="dodekthai" unicode="&#xe14;" horiz-adv-x="889" 
d="M444 774q-250 0 -250 -262v-389l236 287h-96v67h206v-67l-337 -410h-111v498q0 358 352 358t352 -358v-498h-102v512q0 205 -162 252q-38 10 -88 10z" />
    <glyph glyph-name="totaothai" unicode="&#xe15;" horiz-adv-x="903" 
d="M194 532v-409l240 287h-94v67h207v-67l-342 -410h-113v516q0 291 238 336l122 -119l118 119q241 -40 241 -336v-516h-103v532q0 86 -20 126t-42 62q-23 22 -56 36l-136 -130q-4 -4 -6 0l-141 130q-113 -53 -113 -224z" />
    <glyph glyph-name="thothungthai" unicode="&#xe16;" horiz-adv-x="860" 
d="M211 446v-372h94v-74h-197v448q0 88 -30 124q-14 17 -37 28q43 172 220 236q65 22 143 22q316 0 357 -263q7 -44 7 -89v-506h-102v524q0 247 -256 252q-119 0 -183 -54t-81 -120q65 -38 65 -156z" />
    <glyph glyph-name="thothahanthai" unicode="&#xe17;" horiz-adv-x="870" 
d="M676 551q0 217 -199 217q-138 0 -210 -82q-73 -82 -73 -211v-475h-102v840h102v-138q82 132 215 148q43 6 103 6q130 0 198 -81t68 -224v-551h-102v551z" />
    <glyph glyph-name="thothongthai" unicode="&#xe18;" horiz-adv-x="792" 
d="M182 391v-155q0 -91 64 -131q64 -41 154 -41q165 0 207 110q9 26 9 58t-3 63q-5 47 -79 81q-37 17 -176 60q-138 43 -187 77q-91 64 -91 144q2 132 156 180q55 19 128 19q318 0 332 -228h-108q-7 76 -60 112t-120 37q-67 2 -121 -8t-85 -55q-16 -20 -16 -46t20 -55
q20 -30 77 -55q58 -26 126 -46q69 -20 139 -43q111 -37 144 -92t33 -132q0 -198 -202 -246q-59 -13 -124 -13q-224 0 -293 135q-26 47 -26 115v155h102z" />
    <glyph glyph-name="nonuthai" unicode="&#xe19;" horiz-adv-x="870" 
d="M194 289q0 -217 199 -217q144 0 213 81q70 81 70 211v476h102v-840h-102v137q-79 -129 -214 -148q-42 -5 -102 -5q-130 0 -199 81t-69 224v551h102v-551z" />
    <glyph glyph-name="bobaimaithai" unicode="&#xe1a;" horiz-adv-x="870" 
d="M778 340q0 -358 -343 -358t-343 358v500h102v-518q0 -202 157 -250q37 -10 85 -10q90 0 144 38t75 93t21 129v518h102v-500z" />
    <glyph glyph-name="poplathai" unicode="&#xe1b;" horiz-adv-x="874" 
d="M782 340q0 -358 -345 -358t-345 358v500h102v-518q0 -202 160 -250q36 -10 105 -10t111 30q110 77 110 230v886h102v-868z" />
    <glyph glyph-name="phophungthai" unicode="&#xe1c;" horiz-adv-x="930" 
d="M307 64q107 0 107 214v130h102v-130q0 -106 18 -144q34 -70 94 -70t82 38q23 38 25 142v596h103v-612q0 -119 -49 -180t-126 -62q-76 0 -107 16q-62 33 -93 110q-33 -108 -128 -122q-27 -4 -61 -4q-124 0 -168 134q-14 46 -14 108v612h217v-72h-115v-524q0 -147 63 -172
q20 -8 50 -8z" />
    <glyph glyph-name="fofathai" unicode="&#xe1d;" horiz-adv-x="930" 
d="M307 64q107 0 107 214v130h102v-130q0 -106 18 -144q34 -70 94 -70t82 38q23 38 25 142v964h103v-980q0 -119 -49 -180t-126 -62q-76 0 -107 16q-62 33 -93 110q-33 -108 -128 -122q-27 -4 -61 -4q-124 0 -168 134q-14 46 -14 108v612h217v-72h-115v-524q0 -147 63 -172
q20 -8 50 -8z" />
    <glyph glyph-name="phophanthai" unicode="&#xe1e;" horiz-adv-x="1048" 
d="M584 840l164 -724l149 724h111l-195 -840h-125l-164 721l-170 -721h-124l-189 840h111l139 -724l168 724h125z" />
    <glyph glyph-name="fofanthai" unicode="&#xe1f;" horiz-adv-x="1048" 
d="M584 840l164 -724l233 1092h111l-279 -1208h-125l-164 721l-170 -721h-124l-189 840h111l139 -724l168 724h125z" />
    <glyph glyph-name="phosamphaothai" unicode="&#xe20;" horiz-adv-x="878" 
d="M221 446v-446h-191v76h89v372q0 119 -68 152q43 172 221 236q64 22 144 22q322 0 364 -263q6 -44 6 -89v-506h-102v524q0 247 -260 252q-120 0 -186 -55t-82 -119q65 -38 65 -156z" />
    <glyph glyph-name="momathai" unicode="&#xe21;" horiz-adv-x="870" 
d="M477 72q199 0 199 217v551h102v-551q0 -221 -153 -283q-53 -22 -144 -22t-140 22q-92 41 -147 131v-137h-102v840h102v-476q0 -129 71 -211q72 -81 212 -81z" />
    <glyph glyph-name="yoyakthai" unicode="&#xe22;" horiz-adv-x="837" 
d="M207 461q-137 45 -137 170q0 126 67 168q67 41 147 41h95v-78h-71q-132 0 -132 -115q0 -67 41 -104t113 -41h49v-80h-49q-154 -9 -154 -162q0 -98 68 -148t166 -50q235 0 235 256v522h101v-551q0 -148 -95 -228q-95 -79 -238 -79t-240 65q-105 75 -105 207q0 164 139 207
z" />
    <glyph glyph-name="roruathai" unicode="&#xe23;" horiz-adv-x="706" 
d="M66 645q0 167 204 205q32 6 80 6q249 0 283 -228h-103q-27 154 -184 154q-115 0 -158 -73q-16 -25 -16 -61t20 -69t83 -58t127 -49t116 -51q140 -73 140 -194t-83 -180t-223 -59q-206 0 -284 138q-26 48 -29 112h109q17 -172 212 -172q125 0 172 81q18 31 19 83t-49 89
q-50 38 -178 88t-178 86q-80 57 -80 152z" />
    <glyph glyph-name="ruthai" unicode="&#xe24;" horiz-adv-x="854" 
d="M205 446v-372h94v-74h-197v448q0 88 -30 124q-14 17 -37 28q43 173 219 236q64 22 142 22q317 0 359 -263q7 -44 7 -89v-778h-102v796q0 247 -256 252q-119 0 -183 -54t-81 -120q65 -38 65 -156z" />
    <glyph glyph-name="lolingthai" unicode="&#xe25;" horiz-adv-x="833" 
d="M318 -20q-184 0 -247 120q-23 42 -23 96q-2 162 150 224q64 24 186 40t170 35t67 44q34 47 8 137t-151 100q-26 2 -64 2q-213 0 -226 -172h-104q21 250 352 250q242 0 293 -153q13 -37 13 -83v-620h-103v459q-41 -51 -267 -79q-164 -21 -202 -102q-12 -26 -12 -67
q0 -117 126 -148q36 -7 73 -7t65 4v-68q-52 -12 -104 -12z" />
    <glyph glyph-name="luthai" unicode="&#xe26;" horiz-adv-x="878" 
d="M221 446v-446h-191v76h89v372q0 119 -68 152q43 172 221 236q64 22 144 22q322 0 364 -263q6 -44 6 -89v-778h-102v796q0 247 -260 252q-120 0 -186 -55t-82 -119q65 -38 65 -156z" />
    <glyph glyph-name="wowaenthai" unicode="&#xe27;" horiz-adv-x="731" 
d="M334 60q238 0 238 359t-224 359q-122 0 -176 -113q-18 -37 -24 -87h-107q12 125 95 203q82 77 212 77q246 0 312 -253q20 -81 20 -181q0 -210 -82 -321q-86 -121 -250 -121q-129 0 -212 77t-95 203h107q14 -98 68 -150t118 -52z" />
    <glyph glyph-name="sosalathai" unicode="&#xe28;" horiz-adv-x="882" 
d="M811 934q-16 -95 -151 -131q130 -86 130 -303v-500h-102v520q0 197 -161 245q-37 11 -85 11q-138 0 -196 -84q-52 -68 -52 -172v-202q77 166 290 166v-82q-145 0 -217 -89q-73 -89 -73 -245v-68h-102v500q0 358 350 358q72 0 132 -16q74 0 110 58q10 16 14 34h113z" />
    <glyph glyph-name="sorusithai" unicode="&#xe29;" horiz-adv-x="878" 
d="M440 -16q-348 0 -348 356v500h100v-518q0 -157 81 -210q72 -48 167 -48q244 0 244 258v110h-258v138h100v-66h158v336h102v-336h80v-72h-80v-92q0 -223 -128 -304q-79 -52 -218 -52z" />
    <glyph glyph-name="sosuathai" unicode="&#xe2a;" horiz-adv-x="833" 
d="M742 620v-620h-103v459q-41 -51 -267 -79q-164 -21 -202 -102q-12 -26 -12 -67q0 -117 126 -148q36 -7 73 -7t65 4v-68q-52 -12 -104 -12q-184 0 -247 120q-23 42 -23 96q-2 162 150 224q64 24 186 40t170 35t67 44q34 47 8 137t-151 100q-26 2 -64 2q-213 0 -226 -172
h-104q21 250 352 250q73 0 127 -14q74 0 110 58q10 16 15 34h113q-16 -94 -149 -131q90 -59 90 -183z" />
    <glyph glyph-name="hohipthai" unicode="&#xe2b;" horiz-adv-x="846" 
d="M194 840v-375l432 375h142l-192 -160q152 -47 172 -202q6 -47 6 -101v-377h-102v396q0 199 -150 220l-308 -270v-346h-102v840h102z" />
    <glyph glyph-name="lochulathai" unicode="&#xe2c;" horiz-adv-x="1038" 
d="M790 0h-84l-182 578l-200 -578h-84l-199 840h111l139 -682l193 569h84l178 -569l98 407q22 89 17 125q-14 89 -113 100v54q87 9 120 30q59 40 70 107h125q-14 -71 -67 -119q-54 -47 -120 -53q92 -35 84 -155q-2 -33 -10 -62z" />
    <glyph glyph-name="oangthai" unicode="&#xe2d;" horiz-adv-x="831" 
d="M426 860q172 0 260 -117t88 -321q0 -131 -36 -219q-82 -223 -324 -223t-324 222q-34 93 -34 220v28h337v-71h-233q0 -143 72 -231t182 -88q183 0 238 208q18 68 18 154q0 354 -258 354q-92 0 -158 -46t-86 -124h-104q16 56 45 102q102 152 317 152z" />
    <glyph glyph-name="honokhukthai" unicode="&#xe2e;" horiz-adv-x="844" 
d="M774 422q0 -131 -36 -219q-82 -223 -324 -223t-324 222q-34 93 -34 220v28h337v-71h-233q0 -143 72 -231t182 -88q183 0 238 208q18 68 18 154q0 354 -258 354q-92 0 -158 -46t-86 -124h-104q51 179 218 235q58 19 124 19t143 -20q90 8 111 92h116q-21 -94 -148 -134
q146 -108 146 -376z" />
    <glyph glyph-name="paiyannoithai" unicode="&#xe2f;" horiz-adv-x="837" 
d="M56 604q0 165 141 214q64 22 121 22h100v-78h-100q-80 0 -118 -36t-38 -114q0 -126 108 -170q41 -16 106 -16q131 0 199 52t68 167v195h103v-840h-103v465q-82 -117 -260 -117q-241 0 -307 156q-20 48 -20 100z" />
    <glyph glyph-name="saraathai" unicode="&#xe30;" horiz-adv-x="454" 
d="M80 148v132h94v-61h213v-71h-307zM80 588v135h94v-61h213v-74h-307z" />
    <glyph glyph-name="maihanakatthai" unicode="&#xe31;" 
d="M-506 994v146h94v-73h428v-73h-522z" />
    <glyph glyph-name="saraaathai" unicode="&#xe32;" horiz-adv-x="696" 
d="M502 553q0 223 -180 223q-75 0 -111 -30q-61 -49 -69 -124h-112q4 106 89 169t203 63q199 0 261 -151q21 -51 21 -121v-582h-102v553z" />
    <glyph glyph-name="saraamthai" unicode="&#xe33;" horiz-adv-x="696" 
d="M-278 1121q0 -13 4 -24q15 -36 55 -36t59 36q4 11 4 24q0 42 -38 58q-12 5 -24 5t-24 -5q-11 -5 -19 -13q-9 -8 -13 -20t-4 -25zM-348 1108q0 100 78 135q24 11 52 11t52 -10q80 -35 80 -124q0 -55 -38 -92t-95 -37t-91 38q-38 39 -38 79zM502 553q0 223 -180 223
q-75 0 -111 -30q-61 -49 -69 -124h-112q4 106 89 169t203 63q199 0 261 -151q21 -51 21 -121v-582h-102v553z" />
    <glyph glyph-name="saraithai" unicode="&#xe34;" 
d="M-92 1067v-73h-680l37 73h643z" />
    <glyph glyph-name="saraiithai" unicode="&#xe35;" 
d="M-186 1067v131h94v-204h-680l37 73h549z" />
    <glyph glyph-name="sarauethai" unicode="&#xe36;" 
d="M-280 1124q0 -39 38 -58q12 -5 32 -5t38 17t18 46q0 30 -13 42t-25 17t-25 5q-38 0 -59 -39q-4 -12 -4 -25zM-309 1219q39 39 79 39t66 -11q24 -11 42 -29q38 -38 38 -94t-28 -82q-48 -48 -105 -48h-565l36 73h412q-14 26 -14 69q0 44 39 83z" />
    <glyph glyph-name="saraueethai" unicode="&#xe37;" 
d="M-400 1067v131h93v-131h123v131h92v-204h-680l37 73h335z" />
    <glyph glyph-name="sarauthai" unicode="&#xe38;" 
d="M-188 -383v207h-74v68h170v-275h-96z" />
    <glyph glyph-name="sarauuthai" unicode="&#xe39;" 
d="M-408 -194q0 -124 109 -124t109 124v86h98v-86q0 -132 -109 -174q-39 -15 -95 -15q-112 0 -160 50t-48 157h-78v68h174v-86z" />
    <glyph glyph-name="phinthuthai" unicode="&#xe3a;" 
d="M-194 -103q15 7 41 7t43 -19q30 -32 30 -66q0 -35 -18 -52q-30 -29 -64 -29q-57 0 -77 50q-7 15 -7 39t18 43q18 20 34 27z" />
    <glyph glyph-name="PUCR2005" unicode="&#xe3e;" 
 />
    <glyph glyph-name="bahtthai" unicode="&#xe3f;" horiz-adv-x="952" 
d="M205 565h188v345h-188v-345zM205 90h188v385h-188v-385zM486 910v-345h32q108 0 165 45t57 119q0 181 -222 181h-32zM778 289q0 186 -260 186h-32v-385h32q182 -4 239 102q21 39 21 97zM100 1000h293v86h93v-86h32q255 0 314 -164q12 -36 12 -79q0 -83 -45 -144
q-45 -62 -113 -85q134 -27 180 -155q14 -41 14 -76q0 -297 -362 -297h-32v-94h-93v94h-293v1000z" />
    <glyph glyph-name="saraethai" unicode="&#xe40;" horiz-adv-x="342" 
d="M121 0v840h100v-840h-100z" />
    <glyph glyph-name="saraaethai" unicode="&#xe41;" horiz-adv-x="538" 
d="M92 0v840h100v-840h-100zM346 0v840h100v-840h-100z" />
    <glyph glyph-name="saraothai" unicode="&#xe42;" horiz-adv-x="387" 
d="M144 964q0 68 -34 110t-92 50l21 74h377l38 -72h-312q74 -31 97 -111q7 -25 7 -47v-896h92v-72h-194v964z" />
    <glyph glyph-name="saraaimaimuanthai" unicode="&#xe43;" horiz-adv-x="387" 
d="M284 1080q0 81 -104 81q-80 3 -109 -78q-9 -24 -11 -53h-95q4 100 65 148q61 49 150 49q192 0 192 -147q0 -38 -24 -66q-62 -74 -76 -97q-26 -42 -26 -87v-758h92v-72h-194v776q0 114 71 192q15 18 27 30q42 46 42 82z" />
    <glyph glyph-name="saraaimaimalaithai" unicode="&#xe44;" horiz-adv-x="387" 
d="M144 975q0 94 102 151h-314l40 72h376l22 -74q-88 -14 -114 -91q-10 -27 -10 -62v-899h90v-72h-192v975z" />
    <glyph glyph-name="lakkhangyaothai" unicode="&#xe45;" horiz-adv-x="676" 
d="M492 553q0 223 -180 223q-76 0 -124 -39t-57 -115h-111q4 106 89 169t203 63q195 0 260 -151q22 -51 22 -121v-854h-102v825z" />
    <glyph glyph-name="maiyamokthai" unicode="&#xe46;" horiz-adv-x="782" 
d="M280 410h66v-78h-66q-201 0 -229 208q-14 265 221 310l111 -104l101 104q137 -11 184 -111q26 -57 29 -116t3 -97v-798h-102v857q0 154 -102 171l-109 -107q-1 -1 -5 -1t-5 1l-115 109q-89 -37 -108 -139q-19 -146 73 -197q23 -12 53 -12z" />
    <glyph glyph-name="maitaikhuthai" unicode="&#xe47;" 
d="M-590 1179q-6 -16 -6 -41t22 -48t61 -24q40 -1 66 21q27 22 31 60h68q0 -33 24 -57t63 -23q40 0 61 25q22 25 20 55h90q13 -110 -85 -148q-31 -12 -65 -12q-84 0 -128 58q-12 16 -15 32q-10 -57 -81 -80t-120 -2q-112 47 -112 141t68 136q57 38 146 38h447v-73h-430
q-103 0 -125 -58z" />
    <glyph glyph-name="maiekthai" unicode="&#xe48;" 
d="M-186 1520h94v-214h-94v214z" />
    <glyph glyph-name="maithothai" unicode="&#xe49;" 
d="M-303 1378q181 0 221 125h100q-8 -66 -87 -131q-79 -66 -215 -66h-101v130h-71v67h153v-125z" />
    <glyph glyph-name="maitrithai" unicode="&#xe4a;" 
d="M-162 1476q91 0 106 -104q36 4 64 39q29 35 29 92h94q-1 -78 -59 -137q-58 -60 -115 -60h-78q-8 67 -29 87t-46 -1t-25 -86h-74q0 65 -24 85t-42 7q-38 -30 -30 -92h-84q-8 82 29 126t86 44q83 0 102 -75q9 50 62 70q16 5 34 5z" />
    <glyph glyph-name="maichattawathai" unicode="&#xe4b;" 
d="M-92 1417v-111h-98v111h-126v68h126v109h98v-109h129v-68h-129z" />
    <glyph glyph-name="thanthakhatthai" unicode="&#xe4c;" 
d="M-20 1344q-70 -4 -114 -38t-52 -92h-98q23 183 264 195v-65z" />
    <glyph glyph-name="nikhahitthai" unicode="&#xe4d;" 
d="M-256 1072q18 -18 36 -18q44 0 64 37q4 11 4 31t-17 38q-18 18 -38 18t-31 -5t-19 -13q-17 -17 -17 -44q0 -26 18 -44zM-344 1101q0 101 78 136q24 10 52 10q56 0 94 -38q38 -37 38 -79t-10 -66q-33 -79 -123 -79q-58 0 -91 37q-38 38 -38 79z" />
    <glyph glyph-name="yamakkanthai" unicode="&#xe4e;" 
d="M-90 1120v-2h-10q-94 0 -109 -74q-5 -22 -6 -50h-92q0 66 25 103q43 64 120 79q17 118 182 134v-67q-64 -4 -87 -32t-23 -91z" />
    <glyph glyph-name="fongmanthai" unicode="&#xe4f;" horiz-adv-x="1007" 
d="M344 420q0 -68 46 -114t114 -46t114 47t46 113t-47 113t-113 47t-113 -46t-47 -114zM258 420q0 99 72 173q74 73 174 73t173 -73t73 -173t-73 -174q-73 -72 -173 -72q-99 0 -174 72q-72 75 -72 174zM160 420q0 -144 100 -244q58 -60 127 -80t141 -20t150 47
q116 64 158 205q12 44 12 92q0 96 -47 174q-64 116 -205 158q-44 12 -92 12q-96 0 -174 -47q-120 -66 -158 -205q-12 -44 -12 -92zM66 420q0 116 60 221q86 151 262 201q56 16 116 16t116 -16t105 -44t89 -68t68 -89t44 -105t16 -116t-16 -116q-67 -234 -306 -307
q-56 -15 -116 -15t-116 16q-234 67 -307 306q-15 56 -15 116z" />
    <glyph glyph-name="zerothai" unicode="&#xe50;" horiz-adv-x="887" 
d="M158 367q0 -75 20 -129t58 -93q81 -83 209 -83t206 83t78 227q0 145 -80 219q-80 73 -205 73q-198 0 -263 -164q-23 -58 -23 -133zM826 390q0 -404 -382 -404q-306 0 -369 267q-13 59 -13 137t26 143q53 133 196 181q70 26 160 26t160 -26q142 -48 196 -181
q26 -65 26 -143z" />
    <glyph glyph-name="onethai" unicode="&#xe51;" horiz-adv-x="915" 
d="M348 260q-105 0 -179 58q-75 58 -75 155q0 133 114 207q96 62 253 62q306 0 371 -237q14 -51 14 -127q0 -169 -113 -280q-113 -110 -339 -110q-227 0 -343 84l68 74q100 -62 203 -76q40 -4 100 -4t120 20q123 41 170 162q24 60 24 132q-2 283 -275 284q-110 0 -183 -51
t-73 -127q0 -121 117 -154q43 -12 106 -6v-60q-34 -6 -80 -6z" />
    <glyph glyph-name="twothai" unicode="&#xe52;" horiz-adv-x="1026" 
d="M90 614q0 112 -36 140q-14 10 -34 14l17 80q104 -6 141 -119q10 -37 10 -86v-334q0 -107 91 -175t255 -68q165 0 243 62q77 62 77 152v226q0 125 -123 152l-109 -103l-108 92q-71 0 -100 -75q-10 -25 -10 -58v-68q0 -86 9 -112q19 -56 85 -56h32v-65h-46
q-162 -4 -178 185q-2 24 -3 44v58q0 134 129 205q40 22 90 30l98 -83l92 86q103 -8 172 -68q68 -60 68 -146v-217q0 -207 -184 -288q-80 -33 -182 -33h-76q-198 0 -309 90t-111 248v290z" />
    <glyph glyph-name="threethai" unicode="&#xe53;" horiz-adv-x="936" 
d="M305 -8q-29 0 -59 4q-68 9 -119 74t-51 258v63q0 313 268 347l115 -105l125 107q191 -17 244 -173q16 -46 16 -98v-469h-100v469q0 72 -42 125t-108 53l-138 -109l-126 109q-53 0 -103 -60q-51 -60 -51 -194v-123q0 -147 75 -186q22 -10 45 -10h44q21 0 47 4v-78
q-52 -8 -82 -8z" />
    <glyph glyph-name="fourthai" unicode="&#xe54;" horiz-adv-x="927" 
d="M176 428v-106q0 -169 135 -226q46 -18 111 -18h98q-104 57 -104 172q0 51 24 88q39 61 162 66v-76q-67 -4 -85 -37q-9 -13 -9 -29v-26q0 -82 90 -138q32 -20 58 -20h196v-78h-450q-274 0 -320 244q-6 38 -6 72v88q0 241 226 304q71 20 159 19h149q75 2 104 31t34 90h104
q-5 -201 -236 -201h-172q-192 -3 -249 -126q-19 -41 -19 -93z" />
    <glyph glyph-name="fivethai" unicode="&#xe55;" horiz-adv-x="927" 
d="M600 787q0 -45 -16 -64q97 6 131 36q33 30 33 89h104q-5 -203 -236 -203h-162q-195 0 -256 -117q-22 -41 -22 -100v-106q0 -167 135 -224q46 -18 111 -18h98q-104 65 -104 170q0 47 24 90q46 61 162 66v-76q-65 -3 -85 -39q-9 -13 -9 -29v-26q0 -72 90 -134
q35 -22 58 -22h196v-80h-450q-274 0 -320 244q-6 38 -6 72v90q0 214 169 285q53 22 117 28q-20 21 -20 53q0 91 78 126q24 10 66 10t76 -38q38 -38 38 -83zM409 752q18 -42 52 -42q35 0 51 15q26 24 26 52t-14 42q-26 27 -51 27t-50 -20q-19 -18 -19 -40t5 -34z" />
    <glyph glyph-name="sixthai" unicode="&#xe56;" horiz-adv-x="925" 
d="M862 389v-55q-13 -151 -112 -251t-281 -95q-142 4 -230 70q-87 65 -87 165q0 185 229 185h35v-64h-29q-114 0 -131 -76q-6 -24 -6 -54q0 -64 64 -106t142 -42q140 0 218 66q86 77 86 198v55q0 135 -68 207q-90 90 -279 55q-110 -20 -243 -107l-125 212l69 44l86 -140
q168 76 267 80q395 16 395 -347z" />
    <glyph glyph-name="seventhai" unicode="&#xe57;" horiz-adv-x="1073" 
d="M303 -8q-27 0 -54 6q-63 14 -109 73q-64 82 -64 249v69q0 308 266 351l92 -103l98 101q138 -19 195 -105t57 -237v-72q0 -112 -25 -168t-49 -88q166 52 186 196q6 42 7 88v291q0 144 90 189q27 14 61 16l17 -80q-57 -11 -66 -90q-3 -28 -3 -64v-246q0 -253 -163 -336
q-59 -30 -147 -44l-84 65q68 78 75 191q1 36 1 76v76q0 170 -85 228q-25 18 -54 23l-111 -111l-104 111q-95 -7 -140 -143q-14 -48 -14 -113v-67q0 -147 38 -198q38 -50 98 -50h22q18 0 30 2l2 -78q-36 -8 -63 -8z" />
    <glyph glyph-name="eightthai" unicode="&#xe58;" horiz-adv-x="905" 
d="M622 727q134 0 138 119h102q0 -205 -234 -205h-218q-171 0 -220 -134q-14 -38 -14 -79v-166q0 -69 47 -124q47 -54 105 -56l126 108l136 -108q141 0 141 170q4 90 -47 126q-19 13 -49 13h-27v65h27q81 0 125 -32q68 -43 68 -172q0 -258 -248 -262l-126 104l-118 -104
q-183 17 -244 174q-16 46 -16 98v144q0 233 198 299q66 22 152 22h196z" />
    <glyph glyph-name="ninethai" unicode="&#xe59;" horiz-adv-x="915" 
d="M688 740q73 0 98 23t27 85h101q-5 -62 -18 -88q-39 -79 -126 -94q-34 -6 -80 -6h-12q-20 0 -41 -21l-61 -65l272 -574h-104l-244 522q-37 76 -71 107t-83 31q-50 0 -78 -12q-92 -41 -92 -255v-84q0 -139 55 -194q33 -39 93 -39h19q9 0 23 4l13 -80q-212 -29 -272 118
q-31 76 -31 204v65q0 180 58 266q58 87 200 87q114 0 157 -48q22 -22 39 -51l92 90q9 9 15 9h51z" />
    <glyph glyph-name="angkhankhuthai" unicode="&#xe5a;" horiz-adv-x="1050" 
d="M868 0v840h100v-840h-100zM45 614q0 84 42 134q36 48 98 70t122 22h101v-78h-101q-79 0 -117 -36t-38 -114q0 -126 107 -170q41 -16 106 -16q132 0 200 52t68 167v195h102v-840h-102v465q-82 -117 -249 -117t-253 70q-86 71 -86 196z" />
    <glyph glyph-name="khomutthai" unicode="&#xe5b;" horiz-adv-x="1775" 
d="M406 838q198 0 270 -149q30 -62 30 -147h-98q0 142 -106 186q-35 14 -89 14t-103 -24q-95 -47 -133 -172q-17 -60 -17 -128q0 -136 85 -226t224 -90q300 0 358 387q11 65 13 137q12 6 20 11t16 9t18 10l20 12q76 -91 111 -152q34 -60 50 -88q90 150 135 211
q45 -67 119 -205l21 28q30 40 46 64t28 37h254q19 -29 58 -98h-294q-61 -87 -111 -176q-39 86 -121 207q-85 -116 -137 -244q-64 155 -157 282q-12 -234 -140 -383t-315 -149t-301 128q-113 128 -111 301q2 174 91 281q99 126 266 126z" />
    <glyph glyph-name="ZWSP" unicode="&#x200b;" 
 />
    <glyph glyph-name="endash" unicode="&#x2013;" horiz-adv-x="698" 
d="M0 342v90h698v-90h-698z" />
    <glyph glyph-name="emdash" unicode="&#x2014;" horiz-adv-x="1399" 
d="M0 342v90h1399v-90h-1399z" />
    <glyph glyph-name="quoteleft" unicode="&#x2018;" horiz-adv-x="389" 
d="M129 656v153q0 107 75 165q24 20 58 30v-70q-54 -20 -66 -123h58v-155h-125z" />
    <glyph glyph-name="quoteright" unicode="&#x2019;" horiz-adv-x="389" 
d="M260 1000v-154q-4 -110 -74 -166q-25 -20 -59 -28v67q40 10 60 86q3 21 5 37h-57v158h125z" />
    <glyph glyph-name="quotedblleft" unicode="&#x201c;" horiz-adv-x="518" 
d="M86 656v153q0 109 74 166q24 21 57 29v-70q-53 -20 -65 -123h59v-155h-125zM301 656v153q0 107 75 165q24 20 58 30v-70q-54 -20 -66 -123h58v-155h-125z" />
    <glyph glyph-name="quotedblright" unicode="&#x201d;" horiz-adv-x="518" 
d="M217 1000v-154q-4 -110 -74 -166q-25 -20 -59 -28v67q40 12 59 86q5 19 7 37h-60v158h127zM432 1000v-154q-4 -110 -74 -166q-25 -20 -59 -28v67q40 10 60 86q3 21 5 37h-57v158h125z" />
    <glyph glyph-name="bullet" unicode="&#x2022;" horiz-adv-x="483" 
d="M62 412q0 38 14 71t38 57t57 38t71 14t71 -14q67 -29 95 -96q14 -32 14 -70t-14 -71q-29 -67 -96 -95q-32 -14 -70 -14t-71 14t-57 38t-38 57t-14 71z" />
    <glyph glyph-name="Euro" unicode="&#x20ac;" horiz-adv-x="1042" 
d="M213 536v-43q0 -19 2 -43h367v-61h-359q41 -224 159 -272.5t193 -48.5q141 0 223.5 86.5t96.5 224.5h103q-20 -189 -130.5 -294t-296.5 -105q-187 0 -306 115t-146 294h-89v61h82q-2 12 -2 15v39q0 35 2 49h-82v65h91q32 176 147.5 289t313.5 113q152 0 268 -83t133 -239
h-103q-38 170 -141 201t-170 31q-138 0 -228 -88.5t-118 -223.5h359v-65h-367q-2 -14 -2 -17z" />
    <glyph glyph-name="trademark" unicode="&#x2122;" horiz-adv-x="1384" 
d="M664 422v578h122l185 -460l178 460h123v-578h-78l-2 496l-201 -496h-47l-202 496v-496h-78zM301 422v510h-189v68h453v-68h-186v-510h-78z" />
    <glyph glyph-name="uni25CC" unicode="&#x25cc;" horiz-adv-x="934" 
d="M658 586l-44 -98q-16 29 -67 67zM641 223l-92 29q33 23 65 64zM295 586l94 -33q-45 -21 -69 -63zM209 406l92 46q-8 -55 0 -94zM725 404l-94 -44q16 44 6 90zM464 230q20 0 46 8l-43 -92l-45 90q22 -6 42 -6zM467 662l45 -90q-47 9 -94 -7zM276 226l42 96q25 -41 65 -68z
" />
    <glyph glyph-name="thothannobasethai" unicode="&#xf700;" horiz-adv-x="751" 
d="M372 856q74 0 126 -16q55 4 87 31q33 27 37 63h113q-11 -63 -89 -108q-28 -16 -68 -25q101 -75 96 -233q-10 -159 -149 -466q-23 -52 -46 -102h-135l-146 408h-108v71h186l138 -401q156 364 156 490q7 145 -106 190q-40 16 -98 16q-193 0 -210 -152h-113q5 52 29 96
q77 138 300 138z" />
    <glyph glyph-name="saraileftthai" unicode="&#xf701;" 
d="M-305 1067v-73h-582l37 73h545z" />
    <glyph glyph-name="saraiileftthai" unicode="&#xf702;" 
d="M-400 1067v131h95v-204h-582l37 73h450z" />
    <glyph glyph-name="saraueleftthai" unicode="&#xf703;" 
d="M-486 1124q0 -38 40 -58q12 -5 24 -5t31 9t27 30q6 12 6 24q0 42 -40 59q-12 5 -24 5q-44 0 -58 -39q-6 -12 -6 -25zM-422 1258q28 0 52 -11t43 -29q38 -38 38 -94t-28 -82q-48 -48 -105 -48h-465l37 73h312q-28 51 -6 104t71 76q23 11 51 11z" />
    <glyph glyph-name="saraueeleftthai" unicode="&#xf704;" 
d="M-608 1067v131h92v-131h118v131h93v-204h-592l37 73h252z" />
    <glyph glyph-name="maieklowleftthai" unicode="&#xf705;" 
d="M-440 1227h94v-233h-94v233z" />
    <glyph glyph-name="maitholowleftthai" unicode="&#xf706;" 
d="M-664 994v128h-71v68h153v-125q150 0 201 80q15 22 21 45h100q-7 -64 -84 -130t-219 -66h-101z" />
    <glyph glyph-name="maitrilowleftthai" unicode="&#xf707;" 
d="M-479 994q-11 94 -51 94q-50 0 -50 -94h-74q0 62 -27 86q-9 8 -22 8q-39 0 -46 -61q-3 -17 -1 -33h-84q-7 76 32 127q37 43 83 43q84 0 103 -76q9 50 62 70q16 6 34 6q90 0 106 -105q34 4 63 38q29 33 29 93h94q0 -83 -59 -139q-54 -57 -115 -57h-77z" />
    <glyph glyph-name="maichattawalowleftthai" unicode="&#xf708;" 
d="M-400 1104v-110h-98v110h-124v68h124v108h98v-108h130v-68h-130z" />
    <glyph glyph-name="thanthakhatlowleftthai" unicode="&#xf709;" 
d="M-286 1122q-150 -13 -166 -128h-99q23 181 265 194v-66z" />
    <glyph glyph-name="maieklowrightthai" unicode="&#xf70a;" 
d="M-186 1227h94v-233h-94v233z" />
    <glyph glyph-name="maitholowrightthai" unicode="&#xf70b;" 
d="M-293 1065q188 0 221 125h100q-7 -66 -83 -131t-219 -65h-101v128h-71v68h153v-125z" />
    <glyph glyph-name="maitrilowrightthai" unicode="&#xf70c;" 
d="M-244 1088q-50 0 -49 -94h-73q0 61 -28 86q-10 8 -23 8q-38 0 -45 -61q-2 -17 -1 -33h-84q-9 76 29 123t86 47q83 0 102 -76q9 50 63 70q15 6 34 6q42 0 71 -27t35 -78q35 4 64 40q30 35 28 91h95q0 -80 -60 -138t-114 -58h-78q-8 70 -23 82t-29 12z" />
    <glyph glyph-name="maichattawalowrightthai" unicode="&#xf70d;" 
d="M-92 1104v-110h-98v110h-126v68h126v108h98v-108h129v-68h-129z" />
    <glyph glyph-name="thanthakhatlowrightthai" unicode="&#xf70e;" 
d="M-20 1122q-150 -11 -166 -128h-98q23 182 264 194v-66z" />
    <glyph glyph-name="yoyingnobasethai" unicode="&#xf70f;" horiz-adv-x="1329" 
d="M205 442v-366h94v-76h-197v444q0 58 -10 89q-10 32 -57 67q26 105 116 183q90 77 247 77q242 0 316 -180q30 -73 30 -172v-236q0 -152 116 -191q36 -11 78 -11q135 0 182 111q14 37 14 91v568h103v-551q-3 -222 -168 -286q-56 -21 -131 -21q-147 0 -222 81t-75 226v237
q0 247 -243 252q-113 2 -178 -53q-65 -54 -80 -125q65 -32 65 -158z" />
    <glyph glyph-name="maihanakatleftthai" unicode="&#xf710;" 
d="M-600 994v146h94v-73h580v-73h-674z" />
    <glyph glyph-name="nikhahitleftthai" unicode="&#xf711;" 
d="M-466 1072q18 -18 37 -18q33 0 51 18t18 44t-18 44t-38 18t-31 -5t-19 -13q-18 -18 -18 -44t18 -44zM-437 985q-42 0 -79 37q-37 36 -37 78q-1 72 37 110t79 37q70 0 108 -38q38 -37 38 -79t-10 -66t-28 -42t-42 -28t-66 -9z" />
    <glyph glyph-name="maitaikhuleftthai" unicode="&#xf712;" 
d="M-516 1147q0 -80 70 -80q71 0 65 80h90q13 -113 -71 -148q-28 -12 -62 -12q-58 0 -89 27t-38 63q-6 -34 -40 -63t-82 -27q-83 3 -121 54q-38 50 -38 101q0 128 124 159q36 9 75 9h373v-73h-356q-95 -3 -112 -66q-11 -41 9 -73t56 -32q74 2 79 81h68z" />
    <glyph glyph-name="maiekupperleftthai" unicode="&#xf713;" 
d="M-400 1520h95v-214h-95v214z" />
    <glyph glyph-name="maithoupperleftthai" unicode="&#xf714;" 
d="M-518 1378q181 0 221 125h101q-8 -65 -87 -131t-217 -66h-100v130h-72v67h154v-125z" />
    <glyph glyph-name="maitriupperleftthai" unicode="&#xf715;" 
d="M-393 1476q92 0 107 -104q33 4 63 40q29 36 29 91h94q0 -82 -60 -139q-52 -58 -114 -58h-78q-8 68 -23 81t-29 13q-48 2 -48 -94h-74q0 65 -26 85t-41 7q-36 -31 -29 -92h-84q-7 76 28 123q36 47 86 47q83 0 102 -75q9 50 63 70q16 5 34 5z" />
    <glyph glyph-name="maichattawaupperleftthai" unicode="&#xf716;" 
d="M-305 1417v-111h-99v111h-124v68h124v109h99v-109h129v-68h-129z" />
    <glyph glyph-name="thanthakhatupperleftthai" unicode="&#xf717;" 
d="M-140 1344q-70 -4 -114 -38t-51 -92h-99q23 183 264 195v-65z" />
    <glyph glyph-name="saraulowthai" unicode="&#xf718;" 
d="M-188 -614v206h-74v68h170v-274h-96z" />
    <glyph glyph-name="sarauulowthai" unicode="&#xf719;" 
d="M-190 -426v86h98v-86q0 -188 -205 -188q-162 0 -196 116q-11 38 -11 90h-78v68h174v-86q0 -121 111 -123q107 2 107 123z" />
    <glyph glyph-name="phinthulowthai" unicode="&#xf71a;" 
d="M-194 -340q15 6 40 6q26 0 44 -18q30 -30 30 -68q0 -36 -18 -52q-32 -28 -64 -28q-57 0 -77 50q-7 15 -7 39t18 44q18 21 34 27z" />
    <glyph glyph-name="lochula.short" unicode="&#xf71d;" horiz-adv-x="1038" 
d="M790 0h-84l-182 578l-200 -578h-84l-199 840h111l139 -682l193 569h84l178 -569l98 407q22 89 17 125q-14 89 -113 100v54q87 9 120 30q59 40 70 107h125q-14 -71 -67 -119q-54 -47 -120 -53q92 -35 84 -155q-2 -33 -10 -62z" />
    <glyph glyph-name="rulakkhangyao" unicode="&#xf881;" horiz-adv-x="1302" 
d="M205 446v-372h94v-74h-197v448q0 88 -30 124q-14 17 -37 28q43 173 219 236q64 22 150 22q195 0 280 -102q86 98 244 98q199 0 261 -151q21 -51 21 -121v-856h-102v827q0 223 -180 223q-71 0 -108 -28q-59 -45 -72 -120q14 -51 14 -122v-778h-102v796q0 247 -256 252
q-119 0 -183 -54t-81 -120q65 -38 65 -156z" />
    <glyph glyph-name="lulakkhangyao" unicode="&#xf882;" horiz-adv-x="1327" 
d="M786 506v-778h-102v796q0 247 -260 252q-120 0 -186 -55t-82 -119q65 -38 65 -156v-446h-191v76h89v372q0 119 -68 152q43 172 221 236q64 22 152 22q198 0 288 -108q80 104 240 104q197 0 262 -151q22 -51 21 -121v-854h-103v825q0 223 -180 223q-158 0 -180 -150
q14 -51 14 -120z" />
    <glyph glyph-name="yamakkanleftthai" 
d="M-379 1112q-127 0 -131 -118h-92q4 141 162 176q21 116 190 132v-67q-71 -4 -94 -30q-24 -26 -24 -91v-2h-11z" />
    <glyph glyph-name="saraamleft" horiz-adv-x="686" 
d="M-456 1072q18 -18 37 -18q33 0 51 18t18 37q0 33 -18 51t-38 18t-31 -5t-19 -13q-17 -17 -17 -44q-1 -26 17 -44zM-532 1064q-10 24 -10 65t37 79q37 39 78 39q103 0 136 -80q11 -23 11 -51t-10 -52q-35 -79 -122 -79t-120 79zM492 553q0 223 -180 223q-76 0 -124 -39
t-57 -115h-111q4 106 89 169t203 63q195 0 260 -151q22 -51 22 -121v-582h-102v553z" />
    <glyph glyph-name="uni0E33.alt1" horiz-adv-x="686" 
d="M-456 1072q18 -18 37 -18q33 0 51 18t18 37q0 33 -18 51t-38 18t-31 -5t-19 -13q-17 -17 -17 -44q-1 -26 17 -44zM-532 1064q-10 24 -10 65t37 79q37 39 78 39q103 0 136 -80q11 -23 11 -51t-10 -52q-35 -79 -122 -79t-120 79zM492 553q0 223 -180 223q-76 0 -124 -39
t-57 -115h-111q4 106 89 169t203 63q195 0 260 -151q22 -51 22 -121v-582h-102v553z" />
    <glyph glyph-name="saraithai.alt1" 
d="M-92 1067v-73h-555l37 73h518z" />
    <glyph glyph-name="saraiithai.alt1" 
d="M-186 1067v131h94v-204h-555l37 73h424z" />
    <glyph glyph-name="sarauethai.alt1" 
d="M-280 1124q0 -39 38 -58q12 -5 32 -5t38 17t18 46q0 30 -13 42t-25 17t-25 5q-38 0 -59 -39q-4 -12 -4 -25zM-309 1219q39 39 79 39t66 -11q24 -11 42 -29q38 -38 38 -94t-28 -82q-48 -48 -105 -48h-430l37 73h276q-14 26 -14 69q0 44 39 83z" />
    <glyph glyph-name="saraueethai.alt1" 
d="M-400 1067v131h93v-131h123v131h92v-204h-555l37 73h210z" />
    <glyph glyph-name="saraithai.alt2" 
d="M-264 1067v-73h-746l37 73h709z" />
    <glyph glyph-name="saraiithai.alt2" 
d="M-358 1067v131h94v-204h-746l37 73h615z" />
    <glyph glyph-name="sarauethai.alt2" 
d="M-404 1124q0 -12 6 -24q18 -38 50 -39q32 0 52 18t20 38q0 49 -40 66q-12 5 -24 5q-36 0 -58 -39q-6 -12 -6 -25zM-340 1258q28 0 52 -11t43 -29q38 -38 38 -94t-28 -82q-48 -47 -105 -48h-670l37 73h517q-28 51 -6 104t71 76q23 11 51 11z" />
    <glyph glyph-name="saraueethai.alt2" 
d="M-568 1067v131h93v-131h119v131h92v-204h-746l37 73h405z" />
    <glyph glyph-name="maiekthai.alt2" 
d="M-358 1520h94v-214h-94v214z" />
    <glyph glyph-name="maithothai.alt2" 
d="M-446 1378q186 0 220 125h101q-7 -66 -87.5 -131.5t-215.5 -65.5h-100v130h-72v67h154v-125z" />
    <glyph glyph-name="maitrithai.alt2" 
d="M-196 1503h94q0 -79 -59 -138t-115 -59h-78q-8 69 -23 82t-29 13q-48 0 -48 -95h-74q0 65 -19 80t-32 15q-23 0 -36 -29t-9 -66h-84q-8 79 28.5 124.5t85.5 45.5q83 0 102 -75q6 30 32.5 52.5t63.5 22.5q92 0 107 -104q34 4 63.5 39.5t29.5 91.5z" />
    <glyph glyph-name="maichattawathai.alt2" 
d="M-264 1417v-111h-94v111h-130v68h130v109h94v-109h129v-68h-129z" />
    <glyph glyph-name="saraithai.alt3" 
d="M-92 1067v-73h-866l38 73h828z" />
    <glyph glyph-name="saraiithai.alt3" 
d="M-186 1067v131h94v-204h-866l38 73h734z" />
    <glyph glyph-name="sarauethai.alt3" 
d="M-280 1125q0 -13 5 -25t13 -20.5t20 -13.5t25 -5t24.5 5t20 13.5t13.5 20.5t5 25t-5 24t-13.5 20t-20 14t-24.5 5t-25 -5t-20 -14t-13 -20t-5 -24zM-309 1219q39 39 79 39t65 -11t43 -29t28 -42t10 -52q0 -56 -38.5 -93t-94.5 -37h-741l38 73h586q-14 26 -14 69
q0 44 39 83z" />
    <glyph glyph-name="saraueethai.alt3" 
d="M-400 1067v131h93v-131h123v131h92v-204h-866l38 73h520z" />
    <glyph glyph-name="maiekthai.alt4" 
d="M-186 1428h94v-214h-94v214z" />
    <glyph glyph-name="maithothai.alt4" 
d="M-282 1286q187 0 220 125h101q-7 -66 -87.5 -131.5t-215.5 -65.5h-100v130h-72v67h154v-125z" />
    <glyph glyph-name="maitrithai.alt4" 
d="M-234 1308q-48 0 -48 -94h-74q0 94 -50 94q-39 0 -43.5 -38t-2.5 -56h-84q-8 79 28.5 124.5t85.5 45.5q83 0 102 -76q6 32 33.5 54t55.5 22q100 0 115 -104q35 4 63.5 39.5t28.5 91.5h94q0 -78 -58 -137.5t-116 -59.5h-78q-8 70 -23 82t-29 12z" />
    <glyph glyph-name="maichattawathai.alt4" 
d="M-92 1325v-111h-98v111h-126v67h126v109h98v-109h129v-67h-129z" />
    <glyph glyph-name="maiekthai.alt5" 
d="M-400 1428h95v-214h-95v214z" />
    <glyph glyph-name="maithothai.alt5" 
d="M-526 1286q183 0 221 125h100q-8 -66 -87 -131q-79 -66 -216 -66h-100v130h-72v67h154v-125z" />
    <glyph glyph-name="maitrithai.alt5" 
d="M-486 1308q-48 0 -48 -94h-74q0 94 -50 94q-38 0 -46 -60q-2 -18 0 -34h-84q-7 74 28 122q36 48 86 48q83 0 102 -76q4 29 32 53q28 23 56 23q100 0 116 -104q32 4 62 38t30 93h94q0 -82 -60 -139q-52 -58 -114 -58h-78q-8 68 -23 81t-29 13z" />
    <glyph glyph-name="maichattawathai.alt5" 
d="M-305 1325v-111h-99v111h-124v67h124v109h99v-109h129v-67h-129z" />
    <glyph glyph-name="sarauthai.alt6" 
d="M-344 -383v207h-74v68h170v-275h-96z" />
    <glyph glyph-name="sarauuthai.alt6" 
d="M-440 -194q0 -124 108 -124t109 124v86h98v-86q0 -132 -73.5 -160.5t-130.5 -28.5q-110 0 -158.5 50.5t-48.5 156.5h-78v68h174v-86z" />
    <glyph glyph-name="phinthuthai.alt6" 
d="M-404 -180q0 17 7 32t18.5 26.5t27 18.5t32.5 7t31.5 -7t26 -18.5t17.5 -26.5t6 -32t-6 -32t-17.5 -26t-26 -17.5t-31.5 -6.5t-32.5 6.5t-27 17.5t-18.5 26t-7 32z" />
    <glyph glyph-name="sarauthai.alt7" 
d="M-301 -383v207h-74v68h170v-275h-96z" />
    <glyph glyph-name="sarauuthai.alt7" 
d="M-530 -194q0 -124 108 -124t108 124v86h99v-86q0 -132 -74.5 -160.5t-130.5 -28.5q-110 0 -158 50.5t-48 156.5h-78v68h174v-86z" />
    <glyph glyph-name="phinthuthai.alt7" 
d="M-372 -180q0 17 6.5 32t18 26.5t26.5 18.5t32 7t32 -7t26 -18.5t17.5 -26.5t6.5 -32t-6.5 -32t-17.5 -26t-26 -17.5t-32 -6.5t-32 6.5t-26.5 17.5t-18 26t-6.5 32z" />
    <glyph glyph-name="maihanakatthai.alt8" 
d="M-600 994v146h94v-73h662v-73h-756z" />
    <glyph glyph-name="maiekthai.alt8" 
d="M-400 1520h95v-214h-95v214z" />
    <glyph glyph-name="maithothai.alt8" 
d="M-450 1378q186 0 220 125h101q-8 -66 -87 -131q-79 -66 -216 -66h-100v130h-72v67h154v-125z" />
    <glyph glyph-name="maitrithai.alt8" 
d="M-510 1476q83 0 102 -75q9 50 63 70q15 5 34 5q41 0 71 -25t35 -79q37 5 65 40q28 36 28 91h94q0 -79 -59 -138t-115 -59h-78q-8 68 -23 81t-29 13q-48 2 -48 -94h-74q0 62 -26 84t-41 8q-36 -31 -29 -92h-84q-11 119 70 160q22 10 44 10z" />
    <glyph glyph-name="maichattawathai.alt8" 
d="M-305 1417v-111h-99v111h-124v68h124v109h99v-109h129v-68h-129z" />
    </font>
</defs>
</svg>
