<?xml version="1.0" standalone="no"?>
<!DOCTYPE svg PUBLIC "-//W3C//DTD SVG 1.1//EN" "http://www.w3.org/Graphics/SVG/1.1/DTD/svg11.dtd" >
<svg xmlns="http://www.w3.org/2000/svg">
<metadata>
Created by FontPrep 20130207 at Mon May 19 01:30:28 2014
 By Sorajate H.
Copyright (c) 2008 by Prinya R. nont. All rights reserved.
</metadata>
<defs>
<font id="fe75b23e68fb421ee7212186db085c91" horiz-adv-x='1024' >
  <font-face 
    font-family="DBHelvethaicaX-UltraLi"
    font-weight="200"
    font-stretch="normal"
    units-per-em="2048"
    panose-1="2 0 5 6 9 0 0 2 0 4"
    ascent="1638"
    descent="-410"
    x-height="729"
    cap-height="1000"
    bbox="-975 -594 1680 1558"
    underline-thickness="41"
    underline-position="-232"
    unicode-range="U+0020-F882"
  />
<missing-glyph horiz-adv-x="575" 
d="M166 133q-31 0 -31 51q0 18 15.5 33t34.5 15q30 0 46.5 -16.5t16.5 -32.5q0 -42 -25 -50q-2 -5 -17.5 -19t-26.5 -26t-39 -38t-50 -48h-45v192q0 93 59.5 113.5t87.5 20.5q60 0 101 -33.5t41 -96.5v-161h152v283h38v-318h-266v35h41v166q0 62 -41.5 74t-75 12t-66 -24
t-32.5 -67v-147zM190 156q24 0 23 21q1 21 -23 21t-24 -21t24 -21zM58 396q13 63 72 109t158 46t143.5 -40.5t54.5 -54.5v95h38v-199q-175 50 -336 50q-66 0 -130 -6zM217 440h63q14 -2 32 -4t84 -12t90 -28q-41 79 -109.5 96.5t-95.5 17.5q-107 0 -165 -74q50 4 101 4z
M559 536q0 38 36 38t36 -38q0 -11 -8.5 -20.5t-26.5 -9.5t-27.5 10t-9.5 20zM563 536q-1 -26 31 -26t32 30t-31.5 30t-31.5 -34zM612 551q0 -17 -14 -17l14 -18h-6l-14 18h-4v-18h-6v47h14q16 0 16 -12zM596 536q10 0 10 10t-10 11h-8v-21h8z" />
    <glyph glyph-name="plusminus" unicode="&#x2b;&#x2d;" horiz-adv-x="839" 
d="M398 854h40v-312h318v-38h-318v-316h-40v316h-314v38h314v312zM756 64v-40h-672v40h672z" />
    <glyph glyph-name="ellipsis" unicode="&#x2e;&#x2e;&#x2e;" horiz-adv-x="1399" 
d="M1118 0v98h92v-98h-92zM654 0v98h92v-98h-92zM186 0v98h92v-98h-92z" />
    <glyph glyph-name="lessequal" unicode="&#x3c;&#x3d;" horiz-adv-x="839" 
d="M78 58h682v-40h-682v40zM760 246v-43l-682 307v60l682 308v-44l-648 -294z" />
    <glyph glyph-name="greaterequal" unicode="&#x3e;&#x3d;" horiz-adv-x="839" 
d="M78 58h682v-40h-682v40zM727 540l-647 294v44l682 -308v-60l-682 -307v43z" />
    <glyph glyph-name="fongmanfunnuthai" unicode="&#xe4f;&#x22;" horiz-adv-x="1014" 
d="M378 294q52 -52 124 -52t127 52q53 54 53 126t-53 125t-124 53t-125 -52t-54 -124t52 -128zM504 49q154 1 262 109t108 262t-108 262t-262 108t-262 -108t-109 -262q0 -153 109 -262t262 -109zM289 420q0 89 63 152t152 63t152 -62t63 -152t-62 -153t-152 -63t-153 63
t-63 152zM96 422q0 170 120 288t290 118t288 -120t118 -290t-120 -288t-290 -118t-288 120t-118 290zM396 1164h42l-4 -187h-34zM576 1164h44l-4 -187h-36z" />
    <glyph glyph-name="dochadaphinthuthai" unicode="&#xe0e;&#xe3a;" horiz-adv-x="878" 
d="M480 -144q131 0 237 -84v744q6 232 -190 290q-144 39 -263 -24q-52 -26 -91 -74q-38 -47 -48 -88q52 -38 61 -116q2 -26 2 -58v-446h-135v30h99v416q0 93 -36 134q-14 16 -36 34q57 174 227 224q54 16 117 16q330 0 330 -346v-780h-35q-108 98 -234 98t-253 -110v38
q117 102 248 102zM709 -459q-33 13 -33 48t33 48q11 5 21 5q33 0 46 -33q4 -11 4 -27t-14 -30t-31 -15q-16 0 -26 4z" />
    <glyph glyph-name="topatakphintuthai" unicode="&#xe0f;&#xe3a;" horiz-adv-x="878" 
d="M709 -459q-33 13 -33 48t33 48q11 5 21 5q33 0 46 -33q4 -11 4 -27t-14 -30t-31 -15q-16 0 -26 4zM424 854q330 0 330 -346v-780h-44q-16 40 -53 71t-97 31t-108 -60q-16 -18 -24 -42h-30q-11 43 -48 72q-38 30 -73 30q-86 0 -123 -61q-10 -19 -14 -41h-36q7 55 56 95
t91 40q66 0 107 -27t56 -68q26 45 67 70q62 37 133 18q70 -19 103 -79v739q6 232 -190 290q-144 39 -263 -24q-52 -26 -91 -74q-38 -47 -48 -88q52 -38 61 -116q2 -26 2 -58v-446h-135v30h99v416q0 93 -36 134q-14 16 -36 34q57 174 227 224q54 16 117 16z" />
    <glyph glyph-name="dochadasarauthai" unicode="&#xe0e;&#xe38;" horiz-adv-x="878" 
d="M188 446v-446h-135v30h99v416q0 93 -36 134q-14 16 -36 34q57 174 227 224q54 16 117 16q330 0 330 -346v-780h-35q-108 98 -240 98q-133 0 -247 -110v38q106 102 242 102q137 0 243 -84v744q6 232 -190 290q-144 39 -263 -24q-52 -26 -91 -74q-38 -47 -48 -88
q52 -38 61 -116q2 -26 2 -58zM717 -574v178h-72v36h109v-214h-37z" />
    <glyph glyph-name="topataksarauthai" unicode="&#xe0f;&#xe38;" horiz-adv-x="878" 
d="M424 854q330 0 330 -346v-780h-44q-16 40 -53 71t-97 31t-108 -60q-16 -18 -24 -42h-30q-11 43 -48 72q-38 30 -73 30q-86 0 -123 -61q-10 -19 -14 -41h-36q7 55 56 95t91 40q66 0 107 -27t56 -68q26 45 67 70q62 37 133 18q70 -19 103 -79v739q6 232 -190 290
q-144 39 -263 -24q-52 -26 -91 -74q-38 -47 -48 -88q52 -38 61 -116q2 -26 2 -58v-446h-135v30h99v416q0 93 -36 134q-14 16 -36 34q57 174 227 224q54 16 117 16zM717 -574v178h-72v36h109v-214h-37z" />
    <glyph glyph-name="dochadasarauuthai" unicode="&#xe0e;&#xe39;" horiz-adv-x="878" 
d="M188 446v-446h-135v30h99v416q0 93 -36 134q-14 16 -36 34q57 174 227 224q54 16 117 16q330 0 330 -346v-780h-35q-108 98 -232 98t-251 -110v38q118 102 246 102q129 0 235 -84v744q6 232 -190 290q-144 39 -263 -24q-52 -26 -91 -74q-38 -47 -48 -88q52 -38 61 -116
q2 -26 2 -58zM404 -440v47h-78v33h112v-80q0 -123 140 -123t139 127v76h37v-76q0 -158 -175 -158t-175 154z" />
    <glyph glyph-name="topataksarauuthai" unicode="&#xe0f;&#xe39;" horiz-adv-x="878" 
d="M424 854q330 0 330 -346v-780h-44q-16 40 -53 71t-97 31t-108 -60q-16 -18 -24 -42h-30q-11 43 -48 72q-38 30 -73 30q-86 0 -123 -61q-10 -19 -14 -41h-36q7 55 56 95t91 40q66 0 107 -27t56 -68q26 45 67 70q62 37 133 18q70 -19 103 -79v739q6 232 -190 290
q-144 39 -263 -24q-52 -26 -91 -74q-38 -47 -48 -88q52 -38 61 -116q2 -26 2 -58v-446h-135v30h99v416q0 93 -36 134q-14 16 -36 34q57 174 227 224q54 16 117 16zM404 -440v47h-78v33h112v-80q0 -123 140 -123t139 127v76h37v-76q0 -158 -175 -158t-175 154z" />
    <glyph glyph-name=".notdef" horiz-adv-x="575" 
d="M166 133q-31 0 -31 51q0 18 15.5 33t34.5 15q30 0 46.5 -16.5t16.5 -32.5q0 -42 -25 -50q-2 -5 -17.5 -19t-26.5 -26t-39 -38t-50 -48h-45v192q0 93 59.5 113.5t87.5 20.5q60 0 101 -33.5t41 -96.5v-161h152v283h38v-318h-266v35h41v166q0 62 -41.5 74t-75 12t-66 -24
t-32.5 -67v-147zM190 156q24 0 23 21q1 21 -23 21t-24 -21t24 -21zM58 396q13 63 72 109t158 46t143.5 -40.5t54.5 -54.5v95h38v-199q-175 50 -336 50q-66 0 -130 -6zM217 440h63q14 -2 32 -4t84 -12t90 -28q-41 79 -109.5 96.5t-95.5 17.5q-107 0 -165 -74q50 4 101 4z
M559 536q0 38 36 38t36 -38q0 -11 -8.5 -20.5t-26.5 -9.5t-27.5 10t-9.5 20zM563 536q-1 -26 31 -26t32 30t-31.5 30t-31.5 -34zM612 551q0 -17 -14 -17l14 -18h-6l-14 18h-4v-18h-6v47h14q16 0 16 -12zM596 536q10 0 10 10t-10 11h-8v-21h8z" />
    <glyph glyph-name=".null" 
 />
    <glyph glyph-name="nonmarkingreturn" horiz-adv-x="395" 
 />
    <glyph glyph-name="space" unicode=" " horiz-adv-x="348" 
 />
    <glyph glyph-name="exclam" unicode="!" horiz-adv-x="399" 
d="M168 0v100h64v-100h-64zM178 1000h43v-367l-16 -375h-15l-12 375v367z" />
    <glyph glyph-name="quotedbl" unicode="&#x22;" horiz-adv-x="518" 
d="M330 1000h40v-296h-40v296zM146 1000h40v-296h-40v296z" />
    <glyph glyph-name="numbersign" unicode="#" horiz-adv-x="778" 
d="M264 366h230l32 260h-228zM719 662v-36h-156l-34 -260h149v-36h-154l-42 -330h-36l42 330h-228l-43 -330h-37l42 330h-156v36h160l33 260h-155v36h160l41 329h41l-43 -329h228l43 329h36l-42 -329h151z" />
    <glyph glyph-name="dollar" unicode="$" horiz-adv-x="880" 
d="M328 561l90 -23v447q-182 -7 -242 -131q-22 -44 -22 -115q0 -134 174 -178zM471 12q99 0 194 59t95 181q0 149 -176 203q-26 8 -52 14l-73 17v-474h12zM112 734q0 210 195 273q47 14 111 15v108h41v-110q120 -8 206 -78t99 -196h-43q-23 157 -168 216q-44 17 -94 21v-455
l100 -24q109 -27 156 -68q88 -77 87 -172t-52 -170q-79 -111 -291 -116v-120h-41v122q-234 7 -310 178q-25 58 -26 137h41q5 -140 87 -207q81 -67 208 -74v482l-98 24q-208 52 -208 214z" />
    <glyph glyph-name="percent" unicode="%" horiz-adv-x="1243" 
d="M320 1000q105 0 154 -69q50 -69 50 -187q0 -181 -110 -239q-38 -19 -94 -19q-104 0 -156 69t-52 189q0 180 113 236q39 20 95 20zM766 250q0 -170 110 -214q26 -10 58 -10t67 14q58 23 85 107q14 44 14 119t-34 137q-45 74 -133 74t-128 -67q-39 -68 -39 -160zM934 510
q106 0 155 -70t49 -188q0 -181 -110 -236q-38 -20 -94 -20q-107 0 -157 69t-50 187q0 182 111 238q40 20 96 20zM880 1000h44l-568 -1000h-44zM328 966q-176 0 -176 -224q0 -133 66 -189q47 -35 98 -35q93 0 131 66q39 66 39 131q0 66 -8 106t-27 72q-43 73 -123 73z" />
    <glyph glyph-name="ampersand" unicode="&#x26;" horiz-adv-x="854" 
d="M286 924q-46 -42 -46 -110t73 -170q23 -35 55 -79q85 63 118 100q69 78 69 147q0 70 -61 124q-35 30 -98 30q-64 0 -110 -42zM594 813q0 -144 -203 -279l258 -313q36 77 39 125l6 72h39q-14 -159 -59 -234l143 -184h-49l-116 152q-145 -172 -296 -172q-121 0 -198 69
q-78 74 -78 193q0 158 252 305q-101 136 -116 185q-16 48 -16 86q0 78 57 131t141 53q128 0 180 -111q16 -35 16 -78zM119 243q0 -108 69 -169q69 -60 167 -60t213 108q32 30 56 64l-268 332q-108 -66 -145 -103q-37 -36 -65 -76q-28 -39 -27 -96z" />
    <glyph glyph-name="quotesingle" unicode="'" horiz-adv-x="389" 
d="M176 1000h41v-296h-41v296z" />
    <glyph glyph-name="parenleft" unicode="(" horiz-adv-x="338" 
d="M92 372q0 267 96 503q32 81 76 153h33q-162 -295 -162 -690q0 -301 160 -612h-31q-172 295 -172 646z" />
    <glyph glyph-name="parenright" unicode=")" horiz-adv-x="338" 
d="M200 338q0 204 -38 368t-123 322h33q125 -204 161 -488q11 -86 11 -168q0 -347 -172 -646h-31q159 309 159 612z" />
    <glyph glyph-name="asterisk" unicode="*" horiz-adv-x="491" 
d="M232 1002h30v-172l166 52l8 -24l-170 -57l109 -139l-25 -21l-106 141l-107 -141l-25 21l109 143l-163 51l10 26l164 -52v172z" />
    <glyph glyph-name="plus" unicode="+" horiz-adv-x="839" 
d="M400 686h38v-314h318v-36h-318v-318h-38v318h-316v36h316v314z" />
    <glyph glyph-name="comma" unicode="," horiz-adv-x="389" 
d="M242 119v-115q0 -156 -100 -198v42q44 21 58 103q3 24 3 49h-61v119h100z" />
    <glyph glyph-name="hyphen" unicode="-" horiz-adv-x="518" 
d="M82 336v36h354v-36h-354z" />
    <glyph glyph-name="period" unicode="." horiz-adv-x="389" 
d="M150 0v98h92v-98h-92z" />
    <glyph glyph-name="slash" unicode="/" horiz-adv-x="465" 
d="M2 -20l422 1040h39l-420 -1040h-41z" />
    <glyph glyph-name="zero" unicode="0" horiz-adv-x="778" 
d="M389 998q317 0 317 -510t-317 -510q-230 0 -294 274q-23 99 -23 234q0 512 317 512zM389 10q277 0 277 477t-277 477q-110 0 -181 -80q-98 -117 -98 -396q0 -197 48 -312q38 -101 126 -144q44 -22 105 -22z" />
    <glyph glyph-name="one" unicode="1" horiz-adv-x="778" 
d="M459 975v-975h-39v848q-53 -74 -176 -90q-38 -4 -84 -6v36q124 7 167 31q81 44 103 156h29z" />
    <glyph glyph-name="two" unicode="2" horiz-adv-x="778" 
d="M670 0h-592q14 163 153 275q52 45 145 107t155 129t78 122q17 55 17 105q0 102 -68 163t-173 61q-179 0 -232 -172q-16 -51 -18 -110h-37q4 144 78 230t204 86t208 -70t78 -195q0 -205 -228 -354q-136 -92 -191 -144t-83 -95t-37 -97h543v-41z" />
    <glyph glyph-name="three" unicode="3" horiz-adv-x="778" 
d="M618 748q0 214 -242 214q-106 0 -170 -72q-65 -72 -75 -186h-37q20 205 170 270q50 22 112 22q195 0 258 -136q22 -46 22 -112q0 -167 -152 -232q94 -15 141 -88t47 -156q0 -146 -90 -221t-221 -75q-223 0 -289 169q-22 55 -20 131h36q-4 -125 69 -197q72 -71 202 -71
q177 0 251 142q24 46 24 108q0 176 -158 230q-46 16 -100 16h-52v30h52q138 0 202 116q20 40 20 98z" />
    <glyph glyph-name="four" unicode="4" horiz-adv-x="778" 
d="M518 272v638l-412 -638h412zM557 975v-703h139v-32h-139v-240h-39v240h-452v34l452 701h39z" />
    <glyph glyph-name="five" unicode="5" horiz-adv-x="778" 
d="M639 975v-37h-411l-70 -387q74 74 176 81q28 2 73 2t101 -24q116 -52 158 -175q22 -61 22 -133q0 -142 -92 -234t-218 -92t-207 70t-93 196h38q14 -107 85 -171q71 -63 181 -63q111 0 192 85q77 86 76 212q-1 127 -76 212t-191 85q-162 0 -241 -118h-34l86 491h445z" />
    <glyph glyph-name="six" unicode="6" horiz-adv-x="778" 
d="M408 628q132 0 215 -88t83 -232q0 -143 -87 -234q-87 -92 -219 -92q-225 0 -292 237q-28 94 -28 254q0 335 149 466q72 63 179 63q106 0 176 -56t92 -166h-39q-44 188 -231 188q-242 0 -282 -372q-6 -56 -5 -106l2 -74q71 212 287 212zM410 594q-60 0 -111 -23
q-100 -46 -142 -155q-20 -52 -20 -98t7 -80q15 -72 57 -126q75 -96 194 -96t196 84t77 203q0 60 -18 113q-36 110 -132 155q-48 23 -108 23z" />
    <glyph glyph-name="seven" unicode="7" horiz-adv-x="778" 
d="M96 975h580v-47q-271 -298 -364 -703q-24 -106 -32 -225h-40q35 356 175 616q86 160 220 322h-539v37z" />
    <glyph glyph-name="eight" unicode="8" horiz-adv-x="778" 
d="M444 544q178 35 178 210q0 91 -65 149q-65 57 -167 57q-103 0 -170 -54q-66 -55 -66 -152q0 -146 130 -196q52 -20 92 -20t68 6zM502 522q198 -52 198 -274q0 -125 -90 -199q-90 -75 -224 -75t-222 75t-88 213q4 94 38 142q65 92 160 120q-160 65 -160 230q0 114 80 177
t194 63t194 -63t80 -177q0 -168 -160 -232zM388 6q55 0 104 16q104 34 147 128q23 48 23 111t-24 109q-74 141 -251 140q-178 -2 -249 -138q-24 -46 -24 -109t23 -111q41 -93 147 -129q50 -17 104 -17z" />
    <glyph glyph-name="nine" unicode="9" horiz-adv-x="778" 
d="M72 668q0 142 88 235t219 93q227 0 293 -240q26 -84 26 -252q0 -335 -149 -466q-71 -62 -178 -62q-225 0 -269 220h40q44 -188 234 -188q103 0 172 79q112 126 112 401l-2 73q-40 -115 -117 -164t-158 -49q-143 0 -227 89t-84 231zM368 383q120 0 197 85q76 85 76 200
q0 116 -69 204t-189 88q-119 0 -196 -83t-77 -203q0 -60 18 -113q36 -111 132 -155q48 -22 108 -23z" />
    <glyph glyph-name="colon" unicode=":" horiz-adv-x="389" 
d="M150 582v98h92v-98h-92zM150 16v98h92v-98h-92z" />
    <glyph glyph-name="semicolon" unicode=";" horiz-adv-x="389" 
d="M242 119v-115q0 -156 -100 -198v42q44 21 58 103q3 24 3 49h-61v119h100zM150 582v98h92v-98h-92z" />
    <glyph glyph-name="less" unicode="&#x3c;" horiz-adv-x="839" 
d="M760 62v-44l-682 308v59l682 309v-45l-648 -293z" />
    <glyph glyph-name="equal" unicode="=" horiz-adv-x="839" 
d="M82 217v37h678v-37h-678zM82 452v38h678v-38h-678z" />
    <glyph glyph-name="greater" unicode="&#x3e;" horiz-adv-x="839" 
d="M725 356l-647 293v45l682 -309v-59l-682 -308v44z" />
    <glyph glyph-name="question" unicode="?" horiz-adv-x="772" 
d="M370 0v100h64v-100h-64zM583 563q-93 -98 -109 -120q-27 -38 -37 -74q-11 -37 -13 -107h-43q-2 135 89 237q28 31 55 57q108 106 107 210q-1 105 -61 161t-140 57q-262 3 -271 -261h-41q6 138 82 219q76 80 203 80q126 0 195 -65q77 -67 77 -181q0 -115 -93 -213z" />
    <glyph glyph-name="at" unicode="@" horiz-adv-x="1118" 
d="M740 194q-84 0 -84 113q-87 -111 -176 -111t-142 55q-52 55 -52 116q0 154 95 279q59 77 137 110q38 16 70 16t66 -12q35 -12 62 -54q28 -42 36 -78l40 118h40l-128 -382q-26 -92 6 -124q12 -10 39 -10t58 15t59 41q58 54 94 139t36 155q0 244 -208 343q-94 45 -184 45
q-294 0 -422 -233q-59 -112 -59 -241q1 -198 135 -332t326 -134q94 0 194 49t174 134h37q-65 -101 -171 -158t-241 -57q-134 0 -248 65t-181 183q-66 117 -66 255q0 139 67 260q100 175 297 227q64 18 132 18t126 -14q119 -28 202 -103q130 -117 130 -303q0 -146 -93 -269
q-56 -74 -130 -105q-35 -16 -73 -16zM366 277q42 -45 90 -45q108 0 188 119t79 233q0 58 -38 106t-82 48q-79 0 -145 -59q-96 -87 -125 -214q-9 -39 -9 -91t42 -97z" />
    <glyph glyph-name="A" unicode="A" horiz-adv-x="880" 
d="M221 362h443l-218 580zM33 0l397 1000h35l383 -1000h-50l-122 330h-467l-127 -330h-49z" />
    <glyph glyph-name="B" unicode="B" horiz-adv-x="934" 
d="M174 540h344q121 0 189 61q67 61 67 153q0 208 -258 208h-342v-422zM850 272q0 -109 -56 -174q-77 -98 -276 -98h-387v1000h387q202 0 270 -125q39 -72 18 -181q-20 -121 -171 -170q215 -41 215 -252zM518 504h-344v-465h344q288 -5 291 235q0 230 -291 230z" />
    <glyph glyph-name="C" unicode="C" horiz-adv-x="985" 
d="M526 -22q-280 0 -394 264q-48 116 -48 258q0 220 109 364q72 100 196 138q61 20 129 20q216 0 322 -164q35 -54 49 -125h-41q-17 63 -48 109q-96 143 -284 143t-289 -142q-100 -142 -100 -343q5 -274 173 -412q96 -74 229 -74q134 0 224 91t111 245h41
q-36 -273 -237 -348q-66 -24 -142 -24z" />
    <glyph glyph-name="D" unicode="D" horiz-adv-x="958" 
d="M874 499q0 -489 -428 -499h-315v1000h315q428 -12 428 -501zM174 39h272q272 0 356 245q30 88 30 194q0 342 -192 438q-82 44 -196 44h-270v-921z" />
    <glyph glyph-name="E" unicode="E" horiz-adv-x="829" 
d="M131 1000h629v-40h-586v-424h547v-38h-547v-459h592v-39h-635v1000z" />
    <glyph glyph-name="F" unicode="F" horiz-adv-x="751" 
d="M131 1000h573v-40h-530v-424h469v-38h-469v-498h-43v1000z" />
    <glyph glyph-name="G" unicode="G" horiz-adv-x="1036" 
d="M924 0h-40v242q-2 -8 -3 -13t-3 -8q-113 -243 -354 -243q-278 0 -392 264q-48 116 -48 258q0 220 109 364q72 100 196 138q61 20 133 20q145 0 247 -76t136 -221h-43q-19 102 -109 180q-89 78 -229 80q-192 0 -303 -151q-94 -135 -94 -335t100 -336q70 -95 177 -130
q54 -19 117 -19q174 0 273 138q90 120 90 290h-327v37h367v-479z" />
    <glyph glyph-name="H" unicode="H" horiz-adv-x="985" 
d="M131 1000h43v-455h637v455h43v-1000h-43v506h-637v-506h-43v1000z" />
    <glyph glyph-name="I" unicode="I" horiz-adv-x="313" 
d="M135 1000h43v-1000h-43v1000z" />
    <glyph glyph-name="J" unicode="J" horiz-adv-x="698" 
d="M100 284q0 -268 216 -268q165 0 198 143q10 47 10 109v732h44v-732q0 -222 -138 -269q-50 -17 -123 -17q-247 0 -247 302h40z" />
    <glyph glyph-name="K" unicode="K" horiz-adv-x="907" 
d="M131 1000h43v-602l606 602h50l-410 -410l446 -590h-49l-424 563l-219 -219v-344h-43v1000z" />
    <glyph glyph-name="L" unicode="L" horiz-adv-x="751" 
d="M131 1000h43v-963h543v-37h-586v1000z" />
    <glyph glyph-name="M" unicode="M" horiz-adv-x="1173" 
d="M1042 1000v-1000h-42v954l-394 -954h-36l-382 920l-14 36v-956h-43v1000h65l392 -947l389 947h65z" />
    <glyph glyph-name="N" unicode="N" horiz-adv-x="991" 
d="M131 1000h65l621 -953v953h43v-1000h-57l-629 960v-960h-43v1000z" />
    <glyph glyph-name="O" unicode="O" horiz-adv-x="1036" 
d="M916 466q0 94 -17 185q-17 90 -65 159q-49 70 -93 104q-94 72 -223 71q-252 0 -354 -251q-41 -100 -42 -198q-4 -319 173 -451q95 -71 223 -71q68 0 124 19q158 54 230 231q44 108 44 202zM78 500q0 222 110 364q72 100 195 138q61 20 135 20q277 0 392 -265
q48 -114 48 -257q0 -223 -109 -364q-70 -98 -196 -139q-61 -19 -135 -19q-273 0 -392 264q-48 116 -48 258z" />
    <glyph glyph-name="P" unicode="P" horiz-adv-x="880" 
d="M174 482h344q179 0 232 133q18 46 18 108q0 180 -148 225q-46 14 -102 14h-344v-480zM131 1000h409q126 0 198 -75q71 -75 71 -205q0 -131 -72 -204q-72 -72 -197 -72h-366v-444h-43v1000z" />
    <glyph glyph-name="Q" unicode="Q" horiz-adv-x="1036" 
d="M916 500q0 193 -103 339t-295 146q-252 0 -354 -251q-41 -100 -42 -198q-4 -319 173 -451q95 -71 226 -71t225 72l-142 114l22 28l146 -120q144 136 144 392zM78 500q0 222 110 364q72 100 195 138q61 20 135 20q277 0 392 -265q48 -114 48 -257q0 -265 -155 -416
l143 -117l-24 -25l-146 120q-107 -84 -258 -84q-274 0 -392 264q-48 116 -48 258z" />
    <glyph glyph-name="R" unicode="R" horiz-adv-x="934" 
d="M174 498h364q161 0 230 132q20 43 20 98q0 54 -16 98q-48 135 -225 136h-373v-464zM131 1000h424q117 0 197 -67t80 -172t-26 -153t-64 -78q-37 -30 -99 -51q145 -34 170 -270q2 -24 4 -51t5 -71t18 -87h-44q-16 52 -19 146q-9 252 -156 303q-37 12 -85 12h-362v-461h-43
v1000z" />
    <glyph glyph-name="S" unicode="S" horiz-adv-x="880" 
d="M123 295q0 -194 174 -255q109 -41 228 -20q66 8 114 36q49 28 71 54q50 58 50 142q0 149 -176 203q-26 8 -52 14l-212 51q-96 24 -135 61q-73 70 -73 167q0 98 60 173q80 101 254 101q133 0 230 -74t108 -202h-43q-26 169 -191 222q-50 15 -105 15q-182 0 -250 -133
q-21 -44 -21 -94q0 -87 45 -131t129 -64l231 -57q109 -27 156 -68q88 -77 87 -175t-54 -169q-82 -114 -300 -114q-168 0 -260 75q-106 83 -106 242h41z" />
    <glyph glyph-name="T" unicode="T" horiz-adv-x="782" 
d="M39 1000h705v-36h-332v-964h-44v964h-329v36z" />
    <glyph glyph-name="U" unicode="U" horiz-adv-x="958" 
d="M794 389v611h44v-644q0 -260 -194 -346q-68 -30 -148 -30t-132 14q-237 62 -243 362v644h43v-611q-4 -371 315 -371q315 0 315 371z" />
    <glyph glyph-name="V" unicode="V" horiz-adv-x="866" 
d="M51 1000h45l336 -955l336 955h45l-361 -1000h-40z" />
    <glyph glyph-name="W" unicode="W" horiz-adv-x="1280" 
d="M51 1000h45l252 -974l262 974h68l264 -961l244 961h45l-258 -1000h-63l-265 960l-264 -960h-67z" />
    <glyph glyph-name="X" unicode="X" horiz-adv-x="811" 
d="M764 0h-52l-308 473l-310 -473h-49l334 512l-317 488h50l294 -449l292 449h50l-318 -488z" />
    <glyph glyph-name="Y" unicode="Y" horiz-adv-x="870" 
d="M456 0h-42v414l-363 586h51l334 -548l336 548h47l-363 -586v-414z" />
    <glyph glyph-name="Z" unicode="Z" horiz-adv-x="803" 
d="M86 1000h649v-34l-645 -936h645v-30h-694v33l645 935h-600v32z" />
    <glyph glyph-name="bracketleft" unicode="[" horiz-adv-x="338" 
d="M129 -268v1290h180v-37h-137v-1217h137v-36h-180z" />
    <glyph glyph-name="backslash" unicode="\" horiz-adv-x="465" 
d="M43 1020l420 -1040h-39l-422 1040h41z" />
    <glyph glyph-name="bracketright" unicode="]" horiz-adv-x="338" 
d="M28 -268v36h138v1217h-138v37h181v-1290h-181z" />
    <glyph glyph-name="asciicircum" unicode="^" horiz-adv-x="839" 
d="M86 350l310 600h46l310 -600h-40l-294 566q-34 -67 -70 -139t-73 -144l-74 -144t-70 -139h-45z" />
    <glyph glyph-name="underscore" unicode="_" horiz-adv-x="698" 
d="M0 -156v42h698v-42h-698z" />
    <glyph glyph-name="grave" unicode="`" horiz-adv-x="358" 
d="M92 1010h60q30 -42 62 -85t62 -83h-28z" />
    <glyph glyph-name="a" unicode="a" horiz-adv-x="725" 
d="M78 176q0 122 98 170q79 42 217 56q96 13 125 34q52 37 52 92q0 143 -122 179q-38 10 -80 10q-137 0 -196 -90q-20 -32 -26 -78h-38q20 150 166 187q44 12 82 12q189 0 236 -136q10 -34 10 -78v-413q0 -51 16 -71t62 -20v-30q-68 0 -90 29t-22 106q-71 -151 -275 -151
q-154 0 -199 108q-16 38 -16 84zM112 176q0 -40 16 -72q46 -91 163 -90q117 0 198 72t81 192v162q-34 -52 -191 -74q-216 -28 -256 -124q-11 -26 -11 -66z" />
    <glyph glyph-name="b" unicode="b" horiz-adv-x="809" 
d="M152 555q71 193 267 193q195 0 269 -194q31 -81 31 -174q0 -274 -158 -366q-55 -30 -113 -30q-109 0 -176 43q-68 43 -120 153v-180h-33v1008h33v-453zM686 364q0 44 -7 88q-31 193 -171 251q-36 14 -82 14q-177 0 -246 -183q-28 -78 -28 -145q0 -218 125 -322
q66 -53 151 -53q134 0 196 108t62 242z" />
    <glyph glyph-name="c" unicode="c" horiz-adv-x="749" 
d="M194 608q-71 -98 -71 -242t70 -245q45 -63 122 -91q39 -14 81 -14q84 0 147 55t79 150h36q-16 -103 -86 -169t-161 -66q-237 0 -302 231q-19 67 -19 131q0 174 78 283q52 72 138 100q42 15 92 15q149 0 221 -117q23 -39 35 -91h-36q-10 42 -30 76q-64 101 -202 101
q-52 0 -105 -29q-52 -30 -87 -78z" />
    <glyph glyph-name="d" unicode="d" horiz-adv-x="809" 
d="M381 748q206 0 277 -193v453h32v-1008h-32v180q-75 -162 -201 -188q-38 -8 -96 -8t-113 30q-158 88 -158 350q0 101 32 191q32 89 95 138q66 55 164 55zM586 126q72 102 72 243t-66 238q-44 65 -123 96q-39 14 -85 14q-82 0 -147 -53q-114 -94 -114 -300q0 -205 108 -298
q63 -52 150 -52q129 0 205 112z" />
    <glyph glyph-name="e" unicode="e" horiz-adv-x="766" 
d="M382 712q-106 0 -176 -89q-69 -89 -81 -223h506q-4 62 -24 118q-42 118 -128 168q-44 26 -97 26zM90 348q0 94 23 163q78 235 261 235t259 -198q31 -76 35 -182h-543q-5 -203 103 -300q65 -54 155 -54q178 0 237 186h36q-58 -216 -273 -216q-146 0 -219 102
q-74 102 -74 264z" />
    <glyph glyph-name="f" unicode="f" horiz-adv-x="381" 
d="M358 981l-49 2q-69 -1 -91 -45t-22 -131v-78h144v-31h-144v-698h-32v698h-123v31h123v82q0 97 22 132q42 65 126 65h22q10 0 22 -2z" />
    <glyph glyph-name="g" unicode="g" horiz-adv-x="792" 
d="M383 -270q258 0 258 315v162q-1 -5 -3 -11q-11 -44 -50 -86q-91 -102 -205 -102q-146 0 -220 107q-73 107 -73 265t77 263t208 105t210 -92q45 -51 53 -97q2 -5 3 -14v184h31v-684q0 -252 -154 -320q-100 -44 -205 -18q-162 39 -190 168h33q39 -145 227 -145zM151 210
q66 -171 227 -171t232 171q31 79 31 167q0 135 -56 218q-56 84 -124 108q-35 14 -79 14q-44 -1 -81 -13q-67 -23 -122 -103q-56 -81 -56 -198t28 -193z" />
    <glyph glyph-name="h" unicode="h" horiz-adv-x="762" 
d="M610 473q0 239 -198 239q-107 0 -182 -81q-74 -81 -78 -207v-424h-33v1008h33v-457q4 9 12 38t47 66q89 85 199 85q237 0 233 -269v-471h-33v473z" />
    <glyph glyph-name="i" unicode="i" horiz-adv-x="295" 
d="M129 1008h37v-113h-37v113zM131 0v729h33v-729h-33z" />
    <glyph glyph-name="j" unicode="j" horiz-adv-x="295" 
d="M129 1008h37v-113h-37v113zM35 -248q96 0 96 146v831h33v-821q0 -184 -127 -184h-17q-8 0 -16 2v26h31z" />
    <glyph glyph-name="k" unicode="k" horiz-adv-x="723" 
d="M119 1008h33v-688l432 409h42l-282 -268l310 -461h-42l-292 436l-168 -158v-278h-33v1008z" />
    <glyph glyph-name="l" unicode="l" horiz-adv-x="293" 
d="M129 1008h33v-1008h-33v1008z" />
    <glyph glyph-name="m" unicode="m" horiz-adv-x="1157" 
d="M370 746q196 0 216 -193q27 138 140 179q38 14 90 14q106 0 164 -60t58 -182v-504h-32v506q0 158 -111 197q-36 14 -79 14q-151 0 -201 -156q-21 -63 -21 -147v-414h-33v498q-3 152 -97 202q-33 17 -85 17q-104 0 -166 -90q-61 -90 -61 -223v-404h-33v729h33v-153
q4 10 6 18q33 87 110 126q52 26 102 26z" />
    <glyph glyph-name="n" unicode="n" horiz-adv-x="766" 
d="M102 729h33v-172q24 81 93 135q73 54 152 54q204 0 263 -152q19 -48 19 -112v-482h-34v477q0 174 -141 222q-41 13 -95 13t-102 -24q-98 -48 -136 -164q-18 -54 -19 -114v-410h-33v729z" />
    <glyph glyph-name="o" unicode="o" horiz-adv-x="778" 
d="M114 362q0 -141 76 -245q76 -105 198 -105q121 0 201 107q73 105 73 243q0 91 -34 172q-73 178 -250 178q-53 0 -104 -28q-103 -57 -140 -190q-20 -64 -20 -132zM389 746q190 0 273 -193q36 -85 36 -177q0 -270 -177 -364q-58 -30 -132 -30q-144 0 -229 113
q-80 102 -80 264t82 274q81 113 227 113z" />
    <glyph glyph-name="p" unicode="p" horiz-adv-x="809" 
d="M119 729h33v-189q2 8 11 37t49 71q39 42 87 70t114 28q67 0 109 -14q116 -40 168 -178q30 -81 30 -174q1 -177 -75 -287q-75 -111 -217 -111q-91 0 -138 28q-107 63 -138 170v-446h-33v995zM184 531q-32 -78 -32 -171q0 -141 69 -244q69 -104 207 -104q160 0 230 183
q28 78 28 173t-20 150q-36 101 -93 149q-58 48 -145 48q-169 0 -244 -184z" />
    <glyph glyph-name="q" unicode="q" horiz-adv-x="809" 
d="M690 -266h-32v446q-14 -57 -53 -100q-38 -42 -86 -70t-130 -28q-220 0 -281 237q-18 69 -18 163t31 176q31 83 97 136q66 52 155 52q90 0 137 -28q88 -51 137 -146q5 -7 11 -32v189h32v-995zM123 353q0 -131 67 -236t191 -105q178 0 248 183q29 87 29 149q0 109 -32 187
q-53 130 -163 170q-38 14 -83 14t-83 -14q-174 -66 -174 -348z" />
    <glyph glyph-name="r" unicode="r" horiz-adv-x="454" 
d="M119 729h31v-199q5 28 20 57q62 114 174 143q36 10 70 10v-32q-109 0 -186 -92q-76 -92 -76 -218v-398h-33v729z" />
    <glyph glyph-name="s" unicode="s" horiz-adv-x="674" 
d="M131 573q0 -90 48 -121t77 -38q30 -8 47 -12l109 -30q184 -47 184 -184q0 -102 -82 -157q-68 -47 -174 -47q-162 0 -228 118q-23 40 -32 94h32q20 -136 152 -173q38 -11 68 -11q118 0 191 69q40 42 40 108t-46 101t-130 58l-107 27q-83 17 -131 62q-49 45 -49 109
q0 151 152 191q42 11 84 11q92 0 155 -49q64 -49 79 -142h-34q-11 79 -68 119t-150 42q-94 1 -160 -75q-26 -30 -27 -70z" />
    <glyph glyph-name="t" unicode="t" horiz-adv-x="393" 
d="M190 729h148v-31h-148v-556q0 -65 20 -92q20 -26 81 -26h47v-26h-49q-73 0 -95 23t-30 51q-6 28 -6 70v556h-123v31h123v233h32v-233z" />
    <glyph glyph-name="u" unicode="u" horiz-adv-x="760" 
d="M660 0h-34v168q-4 -12 -7 -18t-12 -28q-9 -20 -33 -48q-79 -90 -204 -90t-197 68q-73 68 -73 196v481h33v-477q0 -116 66 -177t146 -61q81 0 130 26q151 79 151 280v409h34v-729z" />
    <glyph glyph-name="v" unicode="v" horiz-adv-x="647" 
d="M49 729h37l242 -690l237 690h37l-258 -729h-35z" />
    <glyph glyph-name="w" unicode="w" horiz-adv-x="1030" 
d="M49 729h37l203 -692l205 692h40l208 -692l200 692h37l-219 -729h-41l-207 688l-203 -688h-41z" />
    <glyph glyph-name="x" unicode="x" horiz-adv-x="674" 
d="M82 729h39l215 -321l215 321h39l-236 -350l256 -379h-40l-234 348l-234 -348h-38l252 377z" />
    <glyph glyph-name="y" unicode="y" horiz-adv-x="647" 
d="M148 -266h-40v28h40q65 0 98 50q21 30 72 174l-271 743h37l248 -699l236 699h34l-288 -845q-27 -80 -64 -115t-102 -35z" />
    <glyph glyph-name="z" unicode="z" horiz-adv-x="651" 
d="M590 28v-28h-532v24l474 676h-442v29h486v-25l-476 -676h490z" />
    <glyph glyph-name="braceleft" unicode="{" horiz-adv-x="465" 
d="M240 637v237q0 76 16 100q30 46 84 46h47v-37h-47q-29 0 -44 -23q-14 -23 -14 -86v-266q0 -177 -92 -236q92 -50 92 -230v-263q0 -109 58 -109h47v-36h-47q-83 0 -96 86q-4 26 -4 59v235q0 222 -100 242v37q100 20 100 244z" />
    <glyph glyph-name="bar" unicode="|" horiz-adv-x="311" 
d="M135 1020h41v-1040h-41v1040z" />
    <glyph glyph-name="braceright" unicode="}" horiz-adv-x="465" 
d="M228 114v-235q0 -106 -52 -135q-20 -10 -49 -10h-47v36h47q29 0 43 24t14 85v263q0 127 53 196q17 22 39 34q-92 54 -92 236v266q0 88 -33 104q-11 5 -24 5h-47v37h47q101 0 101 -146v-237q0 -224 100 -244v-37q-100 -20 -100 -242z" />
    <glyph glyph-name="asciitilde" unicode="~" horiz-adv-x="839" 
d="M721 389q-65 -100 -148 -100q-40 0 -92 21q-51 21 -71 29q-41 16 -88 33q-66 23 -112 -13t-60 -70l-29 27q67 100 151 100q63 0 192 -58q71 -32 106 -32q67 0 126 88z" />
    <glyph glyph-name="uni00A0" unicode="&#xa0;" horiz-adv-x="170" 
 />
    <glyph glyph-name="cent" unicode="&#xa2;" horiz-adv-x="778" 
d="M154 487q-34 -122 -1 -246t127 -187q47 -32 109 -38v696q-118 -14 -187 -117q-32 -48 -48 -108zM422 -146h-33v130q-134 13 -211 120q-76 107 -76 257t79 260t208 125v102h33v-100q90 -4 155 -57t89 -155h-38q-42 169 -206 179v-699q77 6 138 61t73 146h37
q-16 -103 -82 -167t-166 -72v-130z" />
    <glyph glyph-name="sterling" unicode="&#xa3;" horiz-adv-x="778" 
d="M242 309q0 55 -19 96q-19 42 -27 60h-140v37h122l-28 56q-52 99 -52 177q0 140 87 212q87 71 220 71t210 -76t81 -225h-42q-3 190 -148 244q-48 18 -103 18q-181 0 -240 -129q-21 -46 -21 -94q0 -94 56 -196q16 -29 30 -58h245v-37h-227q36 -86 36 -155q0 -142 -124 -263
q69 29 95 29h36q49 0 133 -29t142 -29t140 68l25 -33q-79 -71 -176 -71q-52 0 -148 29t-136 30q-40 0 -68 -10t-85 -41l-28 40q154 130 154 279z" />
    <glyph glyph-name="yen" unicode="&#xa5;" horiz-adv-x="903" 
d="M690 293v-39h-217v-254h-43v254h-217v39h217v121l-18 28h-199v40h174l-319 518h51l333 -548l336 548h48l-322 -518h176v-40h-200l-17 -28v-121h217z" />
    <glyph glyph-name="copyright" unicode="&#xa9;" horiz-adv-x="1118" 
d="M569 750q-55 0 -93 -22q-73 -41 -101 -139q-13 -47 -13 -97q0 -108 51 -180t148 -72q61 0 105 41t57 115h43q-18 -134 -130 -180q-36 -14 -86 -14t-94 24q-132 68 -132 266t135 270q45 24 112 24t106 -32q67 -55 87 -138h-41q-15 64 -57 99t-97 35zM1042 500
q0 201 -138 345q-142 145 -346 145t-342 -145t-138 -347q0 -203 139 -345q139 -143 342 -143q130 0 247 67q170 104 220 293q16 62 16 130zM560 1024q222 0 373 -151t151 -372t-151 -375q-153 -150 -373 -150t-374 150q-151 152 -151 374t151 373t374 151z" />
    <glyph glyph-name="guillemotleft" unicode="&#xab;" horiz-adv-x="596" 
d="M100 348v76l154 139v-51l-138 -127l138 -127v-58zM326 348v76l153 139v-51l-137 -127l137 -127v-58z" />
    <glyph glyph-name="registered" unicode="&#xae;" horiz-adv-x="1118" 
d="M576 514q164 0 164 119t-138 119h-174v-238h148zM780 633q0 -133 -160 -158l174 -260h-48l-170 267h-148v-267h-41v569h215q94 0 136 -38t42 -113zM1042 500q0 201 -138 345q-142 145 -346 145t-342 -145t-138 -347q0 -203 139 -345q139 -143 342 -143q130 0 247 67
q170 104 220 293q16 62 16 130zM560 1024q222 0 373 -151t151 -372t-151 -375q-153 -150 -373 -150t-374 150q-151 152 -151 374t151 373t374 151z" />
    <glyph glyph-name="guillemotright" unicode="&#xbb;" horiz-adv-x="596" 
d="M116 565q52 -47 154 -141v-76l-154 -145v55l136 127l-136 127v53zM342 565q52 -47 154 -141v-76l-154 -145v55l135 127l-135 127v53z" />
    <glyph glyph-name="onequarter" unicode="&#xbc;" horiz-adv-x="1167" 
d="M286 983v-557h-32v463q-36 -45 -168 -45v28q77 5 106 18q57 25 70 93h24zM954 168v379l-244 -379h244zM985 600v-432h88v-28h-88v-140h-31v140h-278v26l280 434h29zM878 1000h42l-598 -1000h-44z" />
    <glyph glyph-name="onehalf" unicode="&#xbd;" horiz-adv-x="1167" 
d="M286 983v-557h-32v463q-36 -45 -168 -45v28q77 5 106 18q57 25 70 93h24zM1084 0h-365q13 102 115 186q29 24 57 44h-2l19 12q140 97 140 198t-85 131q-25 9 -58 9t-60 -14q-76 -41 -83 -158h-31q6 135 103 183q32 15 72 15q119 0 162 -93q14 -31 14 -69t-18 -84t-56 -82
q-38 -34 -69 -54q-30 -20 -77 -57q-81 -64 -100 -134h322v-33zM819 1000h41l-598 -1000h-43z" />
    <glyph glyph-name="threequarters" unicode="&#xbe;" horiz-adv-x="1167" 
d="M975 168v379l-244 -379h244zM1006 600v-432h88v-28h-88v-140h-31v140h-279v26l281 434h29zM496 548q0 -132 -120 -172q-36 -12 -76 -12q-80 0 -135 51t-59 142h31q2 -72 44 -118t113 -47t121 40t50 110q0 106 -95 139q-28 9 -61 9h-35v27h35q51 -2 80 21q53 42 53 106
q0 127 -141 127q-63 0 -102 -45t-47 -113h-31q8 80 42 119q58 68 133 68t113 -28q66 -51 65 -136t-97 -132q58 -16 87 -62q32 -44 32 -94zM954 1000h42l-598 -1000h-44z" />
    <glyph glyph-name="multiply" unicode="&#xd7;" horiz-adv-x="694" 
d="M377 356l247 -248l-30 -30l-246 248l-248 -248l-30 32l246 246l-246 246l30 31l246 -246l246 246l32 -31z" />
    <glyph glyph-name="divide" unicode="&#xf7;" horiz-adv-x="839" 
d="M468 150q20 -20 20 -44t-20 -49q-20 -24 -49 -23t-48 23q-19 21 -19 46q0 26 19 46q19 21 48 21t49 -20zM352 608q0 22 20 42t40 20q34 0 55 -21t21 -46t-19 -48t-41 -23t-34 6q-42 16 -42 70zM82 336v36h674v-36h-674z" />
    <glyph glyph-name="kokaithai" unicode="&#xe01;" horiz-adv-x="862" 
d="M408 858q330 0 330 -346v-512h-38v520q0 234 -190 290q-44 13 -97 13q-171 0 -263 -119q-33 -42 -42 -80q38 -28 51 -69t13 -105v-450h-37v450q0 68 -13 100t-58 68q57 175 227 224q55 16 117 16z" />
    <glyph glyph-name="khokhaithai" unicode="&#xe02;" horiz-adv-x="696" 
d="M47 807v33h139l184 -764l185 764h39l-205 -840h-37l-196 807h-109z" />
    <glyph glyph-name="khokhuatthai" unicode="&#xe03;" horiz-adv-x="770" 
d="M645 244q-1 -262 -251 -262q-114 0 -182 66t-68 196v36q0 101 16 138t37 58l63 60t71 83q29 42 29 104v61q-47 -80 -140 -80t-132 82q-12 26 -16 54h36q10 -73 74 -95q20 -7 54 -7t72 29q37 35 44 73h44v-119q0 -100 -87 -185q-21 -20 -39 -36t-32 -31q-58 -62 -58 -153
v-62q0 -180 129 -226q41 -14 87 -14q212 0 212 246v580h37v-596z" />
    <glyph glyph-name="khokhwaithai" unicode="&#xe04;" horiz-adv-x="882" 
d="M162 0h-37v506q0 217 123 301q80 51 194 51q316 0 316 -352v-506h-37v506q0 253 -180 307q-43 13 -99 13q-109 0 -172 -48q-108 -77 -108 -272v-272q19 76 58 122q88 105 232 105v-33q-181 0 -258 -178q-32 -76 -32 -162v-88z" />
    <glyph glyph-name="khokhonthai" unicode="&#xe05;" horiz-adv-x="893" 
d="M768 540v-540h-37v540q0 181 -94 245q-23 17 -55 26l-136 -145l-139 145q-145 -35 -145 -271v-302q0 14 4 22q34 102 115 152q81 49 171 49v-33q-181 0 -258 -178q-32 -76 -32 -162v-88h-37v540q-1 125 29 182q30 56 67 86t95 42l130 -138l126 138q196 -41 196 -310z" />
    <glyph glyph-name="khorakhangthai" unicode="&#xe06;" horiz-adv-x="856" 
d="M348 790q-38 -86 -144 -86q-122 0 -153 136h39q23 -102 118 -102t132 102h43v-119q0 -103 -86 -185q-21 -20 -39 -36t-32 -31q-59 -63 -57 -149q3 -133 90 -223q89 -89 210 -89q167 0 211 144q14 46 14 104v586h37v-584q0 -202 -146 -263q-51 -19 -107 -19
q-217 0 -304 182q-3 6 -6 24v-182h-37v280q0 104 19 142q12 32 33 53t64 61t72 83q29 42 29 104v67z" />
    <glyph glyph-name="ngonguthai" unicode="&#xe07;" horiz-adv-x="618" 
d="M340 18q102 0 113 97q3 27 3 55v637h-134v33h172v-676q0 -146 -93 -171q-26 -7 -57 -7q-62 0 -100 34t-66 109l-112 323h38l109 -310q43 -124 127 -124z" />
    <glyph glyph-name="chochanthai" unicode="&#xe08;" horiz-adv-x="751" 
d="M123 418v32h129l158 -411q196 378 208 529q6 178 -132 238q-46 20 -100 20q-154 0 -225 -84q-25 -28 -38 -66h-41q40 127 184 168q48 14 118 14q140 0 208 -81t64 -216q-5 -134 -226 -561h-43l-159 418h-105z" />
    <glyph glyph-name="chochingthai" unicode="&#xe09;" horiz-adv-x="874" 
d="M712 174q-68 -198 -316 -198q-124 0 -200 83q-73 83 -71 215v176h37v-176q0 -192 144 -248q46 -18 113 -18t123 27q170 82 170 315v178q0 232 -186 284q-43 12 -103 12q-170 0 -239 -90q-18 -26 -24 -56h-41q9 36 31 69q75 109 273 109q327 0 327 -346v-510h-38v174z" />
    <glyph glyph-name="chochangthai" unicode="&#xe0a;" horiz-adv-x="741" 
d="M174 824q-53 0 -98 -32v36q39 26 98 26q133 0 133 -127q1 -50 -29 -93q-30 -44 -63 -85q-67 -83 -67 -183v-118q0 -116 66 -174t161 -58q172 0 210 154q9 36 9 82v88q0 103 -20 138q-20 34 -44 52q-32 23 -153 23h-23v33h23q103 0 172 53q23 17 44 52t21 149h38
q0 -22 -1 -46q0 -171 -151 -216q104 -15 126 -155q4 -25 4 -47t1 -38v-88q0 -195 -152 -250q-47 -16 -105 -16q-187 0 -245 152q-19 50 -19 114v116q2 110 83 210q51 67 65 95q14 29 14 56q0 97 -98 97z" />
    <glyph glyph-name="sosothai" unicode="&#xe0b;" horiz-adv-x="741" 
d="M630 376q0 -22 1 -38v-88q0 -195 -152 -250q-47 -16 -105 -16q-187 0 -245 152q-19 50 -19 114v66q0 108 99 215q62 67 79 107q18 40 19 79v67q-37 -74 -129 -74q-118 0 -148 130h34q27 -98 115 -98q89 0 120 98h43v-119q0 -99 -97 -204q-60 -65 -78 -110
q-19 -45 -19 -91v-68q0 -116 66 -174t161 -58q172 0 210 154q9 36 9 82v88q0 103 -20 138q-20 34 -44 52q-32 23 -153 23h-23v33h23q103 0 172 53q23 17 44 52t21 149h38q0 -22 -1 -46q0 -171 -151 -216q104 -15 126 -155q4 -25 4 -47z" />
    <glyph glyph-name="chochoethai" unicode="&#xe0c;" horiz-adv-x="1329" 
d="M172 450v-417h98v-33h-135v450q0 94 -32 131q-13 16 -39 33q47 163 201 222q57 22 127 22q183 0 260 -107q46 -69 52 -132t6 -107v-174q0 -118 69 -221t183 -103q206 0 206 260v566h36v-568q0 -146 -58 -218t-190 -72t-207 113q-25 36 -39 79v-174h-36v512
q0 249 -177 298q-43 12 -105 12q-120 0 -196 -67q-65 -52 -90 -133q66 -40 66 -172z" />
    <glyph glyph-name="yoyingthai" unicode="&#xe0d;" horiz-adv-x="1329" 
d="M172 450v-417h98v-33h-135v450q0 94 -32 131q-13 16 -39 33q47 163 201 222q57 22 127 22q183 0 260 -107q46 -69 52 -132t6 -107v-174q0 -252 206 -252q78 0 142 50q79 68 103 203q7 40 7 81v420h36v-696q0 -238 -170 -314q-56 -24 -116 -24q-206 0 -260 151h36
q45 -119 219 -119t234 159q25 65 25 147v114q-62 -201 -252 -204q-190 -4 -234 169q-12 52 -12 113v176q0 249 -177 298q-43 12 -105 12q-120 0 -196 -67q-65 -52 -90 -133q66 -40 66 -172z" />
    <glyph glyph-name="dochadathai" unicode="&#xe0e;" horiz-adv-x="878" 
d="M188 450v-450h-135v30h99v420q0 66 -14 100q-14 33 -58 68q57 174 227 224q55 16 119 16q178 0 261 -107q47 -67 57 -131t10 -108v-784h-35q-111 98 -234 98t-249 -110v38q118 102 246 102q129 0 235 -84v748q5 179 -113 256q-69 46 -180 46q-161 0 -258 -119
q-30 -39 -41 -79q52 -38 61 -117q2 -26 2 -57z" />
    <glyph glyph-name="topatakthai" unicode="&#xe0f;" horiz-adv-x="878" 
d="M754 -272h-44q-16 40 -53 71t-97 31t-108 -60q-16 -18 -24 -42h-30q-11 43 -48 72q-38 30 -73 30q-86 0 -123 -61q-10 -19 -14 -41h-36q7 55 56 95t91 40q66 0 107 -27t56 -68q26 45 67 70q62 37 133 18q70 -19 103 -79v743q5 179 -113 256q-69 46 -180 46
q-161 0 -258 -119q-30 -39 -41 -79q52 -38 61 -117q2 -26 2 -57v-450h-135v30h99v420q0 66 -14 100q-14 33 -58 68q57 174 227 224q55 16 119 16q178 0 261 -107q47 -67 57 -131t10 -108v-784z" />
    <glyph glyph-name="thothanthai" unicode="&#xe10;" horiz-adv-x="758" 
d="M391 858q62 0 111 -16q55 4 96 33q41 30 47 67h41q-5 -30 -39 -69q-33 -38 -96 -54q94 -51 114 -174q13 -71 -1 -127q-15 -56 -47 -147q-39 -112 -173 -371h-42l-160 418h-105v32h129l158 -411q204 409 209 529q6 177 -133 238q-46 20 -100 20q-151 0 -225 -84
q-25 -28 -38 -66h-41q40 126 184 168q48 14 111 14zM492 -121q65 0 106 -51v82h33v-166h-31q-4 42 -26 64t-41 30t-41 8t-41 -8q-60 -25 -66 -94h-29q-4 36 -35 69t-63 33t-50 -8q-59 -26 -66 -94h-34q4 54 33 83q54 54 109 53t99 -48q13 -14 21 -30q24 50 83 71q19 6 39 6z
" />
    <glyph glyph-name="thonangmonthothai" unicode="&#xe11;" horiz-adv-x="862" 
d="M654 852q84 0 84 -142v-710h-38v710q0 77 -15 92t-32 15q-53 0 -203 -138q-251 -233 -266 -350q-6 -45 -6 -85v-244h-36v240q0 92 14 126t27 60q28 50 87 114t68 92q10 28 10 58v94q-36 -76 -129 -76q-117 0 -147 132h32q27 -98 116 -98t120 98h43v-174q199 186 271 186z
" />
    <glyph glyph-name="thophuthaothai" unicode="&#xe12;" horiz-adv-x="1380" 
d="M162 546v-495l305 363h-129v32h176v-28l-352 -418h-37v530q0 278 187 325l132 -133l128 133q115 -27 157 -122q27 -63 30 -115t3 -88v-198q0 -176 113 -270q61 -48 127 -48q116 0 166 68t50 192v566h38v-568q0 -290 -240 -290q-120 0 -200 89q-46 54 -54 105v-176h-37
v546q0 225 -141 272l-140 -144l-143 144q-139 -50 -139 -272z" />
    <glyph glyph-name="nonenthai" unicode="&#xe13;" horiz-adv-x="1329" 
d="M674 278v236q0 249 -177 298q-43 12 -105 12q-117 1 -196 -66q-64 -52 -90 -134q66 -40 66 -172v-419h98v-33h-135v452q0 94 -32 131q-13 15 -39 33q48 164 201 221q57 21 127 21q182 0 260 -105q46 -67 52 -131t6 -108v-234q0 -266 204 -266q76 0 141 49q86 71 105 194
q8 39 8 77v506h36v-840h-36v178q-2 -6 -9 -32t-46 -74q-81 -90 -199 -90q-240 0 -240 296z" />
    <glyph glyph-name="dodekthai" unicode="&#xe14;" horiz-adv-x="889" 
d="M444 858q320 0 320 -352v-506h-37v506q0 254 -181 306q-44 12 -102 12q-113 0 -176 -46q-106 -73 -106 -272v-455l305 363h-133v32h180v-28l-352 -418h-37v506q0 157 66 245q48 69 143 93q48 14 110 14z" />
    <glyph glyph-name="totaothai" unicode="&#xe15;" horiz-adv-x="903" 
d="M162 530v-479l305 363h-133v32h180v-28l-352 -418h-37v530q0 128 30 188t68 91q39 32 97 46l132 -133l128 133q168 -47 191 -219q7 -50 7 -106v-530h-36v532q0 110 -22 161t-52 79t-78 46l-138 -144l-143 144q-147 -46 -147 -288z" />
    <glyph glyph-name="thothungthai" unicode="&#xe16;" horiz-adv-x="862" 
d="M408 858q330 0 330 -346v-512h-38v520q0 234 -190 290q-142 39 -264 -25q-83 -44 -124 -126q-10 -21 -14 -35q38 -28 51 -69t13 -105v-417h98v-33h-135v450q0 68 -13 100t-58 68q57 175 227 224q55 16 117 16z" />
    <glyph glyph-name="thothahanthai" unicode="&#xe17;" horiz-adv-x="870" 
d="M708 563q0 261 -226 261q-139 0 -230 -103q-90 -103 -90 -246v-475h-37v840h37v-203q4 14 24 52q20 37 58 75q98 96 233 93q269 4 269 -294v-563h-38v563z" />
    <glyph glyph-name="thothongthai" unicode="&#xe18;" horiz-adv-x="792" 
d="M375 826q-91 0 -158 -38t-67 -113q0 -101 189 -163q45 -14 73 -25t63 -23q124 -44 170 -102q45 -59 45 -132q0 -126 -87 -191q-78 -53 -203 -53q-126 0 -207 58t-81 175v133h38v-133q0 -140 134 -183q103 -37 228 -2q66 19 99 59q43 45 43 129t-58 138t-204 97
q-145 43 -194 80q-48 37 -68 69q-38 62 -6 132q42 91 191 116q30 4 73 4q168 0 238 -95q26 -34 34 -81h-40q-33 144 -245 144z" />
    <glyph glyph-name="nonuthai" unicode="&#xe19;" horiz-adv-x="870" 
d="M162 278q0 -262 231 -262q133 0 224 104t91 246v474h38v-840h-38v203q-59 -153 -214 -205q-48 -14 -101 -14q-272 0 -268 294v562h37v-562z" />
    <glyph glyph-name="bobaimaithai" unicode="&#xe1a;" horiz-adv-x="872" 
d="M436 18q274 0 274 316v506h38v-504q0 -279 -200 -337q-48 -13 -112 -13q-173 0 -252 108q-59 88 -59 242v504h37v-506q0 -249 174 -302q42 -14 100 -14z" />
    <glyph glyph-name="poplathai" unicode="&#xe1b;" horiz-adv-x="872" 
d="M436 18q274 0 274 316v874h38v-872q0 -279 -200 -337q-48 -13 -112 -13q-173 0 -252 108q-59 88 -59 242v504h37v-506q0 -249 174 -302q42 -14 100 -14z" />
    <glyph glyph-name="phophungthai" unicode="&#xe1c;" horiz-adv-x="930" 
d="M641 18q127 0 127 218v604h37v-604q0 -199 -97 -238q-30 -12 -65 -12q-137 0 -178 143q-41 -143 -172 -143q-168 0 -168 250v604h151v-33h-114v-571q0 -218 138 -218q67 0 106 64q40 64 40 170v120h38v-120q0 -111 29 -156q51 -78 128 -78z" />
    <glyph glyph-name="fofathai" unicode="&#xe1d;" horiz-adv-x="930" 
d="M641 18q127 0 127 218v972h37v-972q0 -199 -97 -238q-30 -12 -65 -12q-137 0 -178 143q-41 -143 -172 -143q-168 0 -168 250v604h151v-33h-114v-571q0 -218 138 -218q67 0 106 64q40 64 40 170v120h38v-120q0 -111 29 -156q51 -78 128 -78z" />
    <glyph glyph-name="phophanthai" unicode="&#xe1e;" horiz-adv-x="1048" 
d="M536 840l214 -764l186 764h41l-215 -840h-24l-216 774l-217 -774h-25l-208 840h38l183 -762l213 762h30z" />
    <glyph glyph-name="fofanthai" unicode="&#xe1f;" horiz-adv-x="1048" 
d="M536 840l214 -764l280 1132h41l-309 -1208h-24l-216 774l-217 -774h-25l-208 840h38l183 -762l213 762h30z" />
    <glyph glyph-name="phosamphaothai" unicode="&#xe20;" horiz-adv-x="878" 
d="M188 0h-135v30h99v420q0 66 -14 100q-14 33 -58 68q57 174 227 224q55 16 119 16q178 0 261 -107q47 -67 57 -131t10 -108v-512h-37v520q5 179 -113 256q-69 46 -180 46q-161 0 -258 -119q-30 -39 -41 -79q52 -38 61 -117q2 -26 2 -57v-450z" />
    <glyph glyph-name="momathai" unicode="&#xe21;" horiz-adv-x="870" 
d="M746 286q0 -302 -269 -302q-85 0 -136 26q-114 59 -173 176q-5 10 -6 19v-205h-37v840h37v-474q0 -88 40 -170t112 -131q71 -49 163 -49q231 0 231 270v554h38v-554z" />
    <glyph glyph-name="yoyakthai" unicode="&#xe22;" horiz-adv-x="837" 
d="M712 289q0 -307 -310 -307q-122 0 -213 70t-91 196t97 190q24 16 55 25q-69 23 -111 78q-41 55 -41 104q0 131 108 179q36 16 83 16h77v-33h-77q-74 -2 -115 -46q-67 -72 -23 -170q44 -97 177 -112h38v-33h-38q-191 -9 -191 -204q-1 -78 31 -116q32 -40 58 -58
q77 -54 188 -54q187 0 244 149q20 52 20 126v551h34v-551z" />
    <glyph glyph-name="roruathai" unicode="&#xe23;" horiz-adv-x="706" 
d="M344 824q-75 0 -116 -23q-42 -23 -68 -54t-26 -73q1 -44 10 -66t25 -40t38 -33t49 -28q31 -15 143 -63t155 -89q42 -41 56 -73t14 -81t-21 -92q-60 -123 -242 -123t-253 112q-25 38 -32 90h36q16 -82 81 -126t177 -44t177 71q41 45 41 122q0 96 -130 164q-44 23 -137 63
q-162 69 -200 138q-38 70 -16 136q23 65 57 89q80 56 152 56q126 0 190 -43t88 -135h-37q-36 145 -211 145z" />
    <glyph glyph-name="ruthai" unicode="&#xe24;" horiz-adv-x="862" 
d="M408 858q330 0 330 -346v-784h-38v792q0 234 -190 290q-144 39 -263 -24q-85 -42 -124 -125q-11 -21 -15 -37q38 -28 51 -69t13 -105v-417h98v-33h-135v450q0 68 -13 100t-58 68q57 175 227 224q55 16 117 16z" />
    <glyph glyph-name="lolingthai" unicode="&#xe25;" horiz-adv-x="833" 
d="M436 856q76 0 117 -14q155 -53 155 -211v-631h-36v530q0 -4 -17 -26q-54 -72 -279 -107q-82 -13 -109 -21q-148 -47 -148 -178q0 -141 135 -168q50 -10 135 -10v-30q-17 -2 -33 -2h-34q-167 0 -221 110q-19 38 -19 88q0 87 36 135t93 71q58 23 107 32q48 8 85 14
q269 44 269 193q0 193 -246 193q-225 0 -266 -172h-37q35 204 313 204z" />
    <glyph glyph-name="luthai" unicode="&#xe26;" horiz-adv-x="878" 
d="M424 858q330 0 330 -346v-784h-37v792q6 232 -190 290q-144 39 -263 -24q-52 -26 -91 -74q-38 -47 -48 -88q52 -38 61 -116q2 -26 2 -58v-450h-135v30h99v420q0 93 -36 134q-14 16 -36 34q57 174 227 224q54 16 117 16z" />
    <glyph glyph-name="wowaenthai" unicode="&#xe27;" horiz-adv-x="731" 
d="M335 14q128 0 202 103q73 103 73 307q0 205 -70 302q-70 96 -192 96q-78 0 -146 -53t-86 -147h-38q20 102 95 169q75 68 164 67q314 -3 310 -434q0 -212 -73 -321q-77 -121 -226 -121q-111 0 -181 62t-89 171h38q20 -102 86 -152q66 -49 133 -49z" />
    <glyph glyph-name="sosalathai" unicode="&#xe28;" horiz-adv-x="882" 
d="M758 506v-506h-37v506q0 253 -180 307q-43 13 -99 13q-109 0 -172 -48q-108 -77 -108 -272v-268l14 42q12 36 44 74q87 103 232 107v-33q-181 0 -258 -178q-32 -76 -32 -162v-88h-37v506q0 217 123 301q80 51 180 51t158 -24q113 8 145 100h39q-34 -103 -139 -123
q127 -85 127 -305z" />
    <glyph glyph-name="sorusithai" unicode="&#xe29;" horiz-adv-x="878" 
d="M162 334q0 -316 276 -316q200 0 256 168q18 54 21 148v120h-256v134h35v-100h221v352h37v-352h82v-34h-82v-118q0 -278 -202 -337q-48 -13 -112 -13q-271 0 -308 262q-6 44 -5 88v504h37v-506z" />
    <glyph glyph-name="sosuathai" unicode="&#xe2a;" horiz-adv-x="833" 
d="M708 631v-631h-36v532q-21 -63 -107 -89.5t-126.5 -33.5t-66.5 -12t-52 -9.5t-72 -18t-87.5 -54t-41.5 -99.5t9.5 -88t35.5 -57t83 -39.5t142 -11.5v-30q-18 -2 -21 -2h-46q-168 0 -204 75t-36 124t10 81t28 56t43 41t53 28.5t59 19t61 13.5t67 12t100 23t116 58t53 112
q0 193 -246 193q-102 0 -152.5 -28t-77 -61t-36.5 -83h-37q35 204 313 204q78 0 142 -24q90 8 118 46t33 56h39q-27 -93 -148 -125q88 -60 88 -178z" />
    <glyph glyph-name="hohipthai" unicode="&#xe2b;" horiz-adv-x="846" 
d="M162 840v-432l522 432h56l-195 -162q149 -57 169 -212q6 -46 7 -94v-372h-37v372q0 112 -28 163t-60 77t-82 42l-352 -296v-358h-37v840h37z" />
    <glyph glyph-name="lochulathai" unicode="&#xe2c;" horiz-adv-x="1030" 
d="M890 677q0 130 -122 130v33q81 0 130 42t68 112h38q-14 -59 -56 -110t-104 -63q46 -6 70 -70t2 -161q-16 -47 -40 -147q-24 -99 -49 -194q-26 -95 -67 -249h-35l-205 664l-206 -664h-36l-212 840h38l193 -776l205 653h34l206 -653l134 520q14 56 14 93z" />
    <glyph glyph-name="oangthai" unicode="&#xe2d;" horiz-adv-x="831" 
d="M428 858q74 0 137 -32q177 -91 177 -404q0 -190 -82 -317t-246 -127q-271 0 -318 328q-8 56 -8 116v22h272v-32h-235q0 -289 169 -375q54 -27 120 -27q136 0 213 106t77 306q0 300 -169 378q-53 25 -110 25q-101 0 -173 -45t-104 -127h-40q84 205 320 205z" />
    <glyph glyph-name="honokhukthai" unicode="&#xe2e;" horiz-adv-x="833" 
d="M108 652q84 205 314 205q68 0 137 -31q84 6 129 68q12 18 16 38h40q-9 -60 -82 -105q-27 -16 -66 -23q146 -105 146 -382q0 -265 -140 -382q-74 -62 -188 -62q-221 0 -294 223q-32 98 -32 221v22h272v-32h-235q0 -289 169 -375q54 -27 120 -27t120 26q170 83 170 386
t-171 378q-53 24 -109 24t-96 -12q-131 -38 -180 -160h-40z" />
    <glyph glyph-name="paiyannoithai" unicode="&#xe2f;" horiz-adv-x="837" 
d="M676 0v545q-28 -77 -103 -123q-75 -47 -169 -47q-161 0 -242 71q-74 68 -74 187q0 109 76 163q62 44 154 44h67v-33h-67q-86 0 -123 -30q-70 -57 -70 -146q0 -154 138 -205q49 -18 113 -18q127 0 214 68q86 68 86 190v174h36v-840h-36z" />
    <glyph glyph-name="saraathai" unicode="&#xe30;" horiz-adv-x="454" 
d="M110 170v116h34v-86h212v-30h-246zM110 610v119h34v-86h212v-33h-246z" />
    <glyph glyph-name="maihanakatthai" unicode="&#xe31;" 
d="M-475 1014v137h37v-103h424v-34h-461z" />
    <glyph glyph-name="saraaathai" unicode="&#xe32;" horiz-adv-x="681" 
d="M288 850q130 0 197 -63q71 -71 71 -195v-592h-36v596q0 108 -62 166q-57 57 -152 55q-123 0 -186 -81q-20 -26 -28 -64h-38q18 88 93 133q69 45 141 45z" />
    <glyph glyph-name="saraamthai" unicode="&#xe33;" horiz-adv-x="681" 
d="M288 850q130 0 197 -63q71 -71 71 -195v-592h-36v596q0 108 -62 166q-57 57 -152 55q-123 0 -186 -81q-20 -26 -28 -64h-38q18 88 93 133q69 45 141 45zM-155 1040q59 0 80 45q5 15 5 31q0 51 -46 70q-14 6 -30 6t-30 -6t-24 -16t-16 -24t-6 -39t22 -46q20 -21 45 -21z
M-250 1116q0 43 29 73q29 31 63 31t54 -8q64 -26 63 -96q0 -70 -63 -97q-20 -7 -42 -7t-42 7q-62 27 -62 97z" />
    <glyph glyph-name="saraithai" unicode="&#xe34;" 
d="M-125 1048v-34h-613l17 34h596z" />
    <glyph glyph-name="saraiithai" unicode="&#xe35;" 
d="M-162 1048v128h37v-162h-613l17 34h559z" />
    <glyph glyph-name="sarauethai" unicode="&#xe36;" 
d="M-226 1048q25 0 39 6q45 19 45 70t-45 70q-15 6 -31 6t-30 -6t-24 -16t-16 -24t-6 -39t22 -46q21 -21 46 -21zM-295 1202q31 31 66 31q87 1 114 -65q9 -20 9 -55t-31 -67t-80 -32h-531l17 34h438q-33 28 -33 75q0 48 31 79z" />
    <glyph glyph-name="saraueethai" unicode="&#xe37;" 
d="M-336 1048v128h37v-128h137v128h37v-162h-613l17 34h385z" />
    <glyph glyph-name="sarauthai" unicode="&#xe38;" 
d="M-162 -352v178h-74v34h111v-212h-37z" />
    <glyph glyph-name="sarauuthai" unicode="&#xe39;" 
d="M-297 -372q-174 0 -176 153v47h-78v32h113v-79q0 -123 141 -123q67 0 93 22q44 38 44 105v75h37v-75q1 -68 -29 -101q-52 -56 -145 -56z" />
    <glyph glyph-name="phinthuthai" unicode="&#xe3a;" 
d="M-178 -228q-33 13 -33 47t33 50q10 4 20 4q35 0 48 -33q4 -10 4 -26t-15 -31t-31 -15t-26 4z" />
    <glyph glyph-name="PUCR2005" unicode="&#xe3e;" 
 />
    <glyph glyph-name="bahtthai" unicode="&#xe3f;" horiz-adv-x="934" 
d="M174 540h256v422h-256v-422zM518 540q121 0 189 61q67 61 67 153q0 208 -258 208h-45v-422h47zM174 39h256v465h-256v-465zM518 504h-47v-465h47q288 -5 291 235q0 230 -291 230zM850 272q0 -109 -56 -174q-77 -98 -276 -98h-47v-74h-41v74h-299v1000h299v65h41v-65h47
q202 0 270 -125q24 -45 24 -95t-6 -85q-20 -117 -167 -173q211 -42 211 -250z" />
    <glyph glyph-name="saraethai" unicode="&#xe40;" horiz-adv-x="340" 
d="M154 0v840h32v-840h-32z" />
    <glyph glyph-name="saraaethai" unicode="&#xe41;" horiz-adv-x="538" 
d="M379 0v840h33v-840h-33zM125 0v840h33v-840h-33z" />
    <glyph glyph-name="saraothai" unicode="&#xe42;" horiz-adv-x="379" 
d="M205 33h92v-33h-129v964q0 155 -117 200l9 18h329l13 -29h-281q77 -43 84 -185v-935z" />
    <glyph glyph-name="saraaimaimuanthai" unicode="&#xe43;" horiz-adv-x="379" 
d="M-6 1071q25 141 182 141q156 0 156 -122q0 -38 -18 -67t-36 -53t-32 -45q-40 -61 -41 -143v-749h92v-33h-129v762q0 124 78 219q51 67 51 109q0 94 -125 94t-146 -113h-32z" />
    <glyph glyph-name="saraaimaimalaithai" unicode="&#xe44;" horiz-adv-x="379" 
d="M205 33h92v-33h-129v968q0 87 46 149q16 23 40 36h-282l12 29h330l8 -18q-113 -43 -117 -200v-931z" />
    <glyph glyph-name="lakkhangyaothai" unicode="&#xe45;" horiz-adv-x="681" 
d="M288 850q130 0 197 -63q71 -71 71 -195v-864h-36v868q0 108 -62 166q-57 57 -152 55q-123 0 -186 -81q-20 -26 -28 -64h-38q18 88 93 133q69 45 141 45z" />
    <glyph glyph-name="maiyamokthai" unicode="&#xe46;" horiz-adv-x="782" 
d="M314 432v-30h-34q-82 0 -138 50q-85 78 -50 223q19 88 86 137q34 26 84 38l123 -115l113 117q110 -14 144 -101q22 -54 24 -104t2 -84v-835h-37v854q-1 22 -1 46q0 170 -120 189l-127 -127l-131 125q-131 -44 -133 -225q-2 -63 43 -110q45 -48 118 -48h34z" />
    <glyph glyph-name="maitaikhuthai" unicode="&#xe47;" 
d="M-482 1258q-157 0 -157 -110q-1 -51 31 -80q32 -30 91 -30t101 52q12 16 18 34h30q8 -34 41 -60t77 -26q45 0 74 24q30 24 30 62h34q-4 -49 -39 -82q-34 -32 -101 -32t-110 50q-14 16 -21 36q-36 -86 -143 -86q-109 6 -139 86q-9 24 -9 58q0 68 57 101t135 33h424v-30
h-424z" />
    <glyph glyph-name="maiekthai" unicode="&#xe48;" 
d="M-160 1489h35v-160h-35v160z" />
    <glyph glyph-name="maithothai" unicode="&#xe49;" 
d="M-330 1329v123h-74v28h107v-120h45q155 0 215 79q17 21 23 41h32q-28 -101 -160 -138q-48 -13 -112 -13h-76z" />
    <glyph glyph-name="maitrithai" unicode="&#xe4a;" 
d="M-172 1424q-61 0 -72 -95h-28q-7 60 -47 87q-12 8 -28 8t-29 -8q-38 -24 -42 -87h-32q6 85 65 116q17 9 35 9q61 0 92 -74q20 74 88 74q79 0 94 -98q49 0 93 40t49 84h28q-7 -63 -58 -107q-50 -44 -112 -44h-24q-11 95 -72 95z" />
    <glyph glyph-name="maichattawathai" unicode="&#xe4b;" 
d="M-125 1424v-107h-35v107h-124v30h124v104h35v-104h129v-30h-129z" />
    <glyph glyph-name="thanthakhatthai" unicode="&#xe4c;" 
d="M-10 1344q-107 -13 -152 -69q-14 -20 -22 -48h-39q33 129 213 147v-30z" />
    <glyph glyph-name="nikhahitthai" unicode="&#xe4d;" 
d="M-155 1040q59 0 80 45q5 15 5 31q0 51 -46 70q-14 6 -30 6t-30 -6t-24 -16t-16 -24t-6 -39t22 -46q20 -21 45 -21zM-250 1116q0 43 29 73q29 31 63 31t54 -8q64 -26 63 -96q0 -70 -63 -97q-20 -7 -42 -7t-42 7q-62 27 -62 97z" />
    <glyph glyph-name="yamakkanthai" unicode="&#xe4e;" 
d="M-8 1254q-79 0 -108 -70q-9 -22 -11 -48q-88 -5 -106 -72q-7 -22 -11 -48h-40q10 66 27 90q35 50 99 60q9 53 48 84q40 38 102 38v-34z" />
    <glyph glyph-name="fongmanthai" unicode="&#xe4f;" horiz-adv-x="1007" 
d="M378 294q52 -52 124 -52t127 52q53 54 53 126t-53 125t-124 53t-125 -52t-54 -124t52 -128zM504 49q154 1 262 109t108 262t-108 262t-262 108t-262 -108t-109 -262q0 -153 109 -262t262 -109zM289 420q0 89 63 152t152 63t152 -62t63 -152t-62 -153t-152 -63t-153 63
t-63 152zM96 422q0 170 120 288t290 118t288 -120t118 -290t-120 -288t-290 -118t-288 120t-118 290z" />
    <glyph glyph-name="zerothai" unicode="&#xe50;" horiz-adv-x="887" 
d="M760 358q0 238 -166 316q-66 30 -149 30t-135 -23q-90 -40 -135 -119q-46 -79 -46 -180q0 -177 86 -269q86 -91 227 -91q142 0 230 91t88 245zM444 735q180 0 265 -102t85 -280q0 -177 -99 -270t-253 -93t-245 90q-103 94 -103 278q0 266 192 349q66 28 158 28z" />
    <glyph glyph-name="onethai" unicode="&#xe51;" horiz-adv-x="915" 
d="M162 496q0 -174 234 -174v-36q-193 0 -250 117q-18 39 -18 98q1 116 93 178q93 63 235 63q267 0 333 -190q25 -66 25 -158t-26 -166q-54 -154 -202 -212q-75 -30 -138 -30q-64 0 -100 2q-142 6 -246 68l23 28q108 -68 281 -68q172 0 272 100t100 275q0 319 -322 319
q-135 0 -214 -59q-80 -58 -80 -155z" />
    <glyph glyph-name="twothai" unicode="&#xe52;" horiz-adv-x="1026" 
d="M500 240q-166 0 -166 214v62q0 122 107 190q34 20 75 29l106 -98l101 98q88 -12 128 -50q71 -68 71 -143v-235q0 -148 -102 -234q-94 -85 -234 -85h-76q-180 0 -284 88q-105 88 -105 231v365q0 121 -65 149l4 35q98 -27 98 -184v-365q0 -199 215 -265q71 -22 151 -22
q243 0 327 150q33 62 33 135v237q0 90 -88 134q-28 12 -63 22l-111 -106l-116 106q-87 -31 -124 -109q-14 -30 -14 -71v-66q0 -106 48 -148q30 -30 82 -30h2v-34z" />
    <glyph glyph-name="threethai" unicode="&#xe53;" horiz-adv-x="936" 
d="M144 410v-84q0 -129 18 -180q18 -50 38 -72q42 -50 107 -50h49v-32h-49q-87 0 -132 53t-57 125q-12 71 -12 154v84q0 235 130 300q42 20 98 27l125 -125l133 125q221 -27 221 -256v-479h-37v479q0 93 -49 152t-127 63l-141 -133l-133 133q-70 -10 -101 -40
q-33 -30 -57 -79t-24 -165z" />
    <glyph glyph-name="fourthai" unicode="&#xe54;" horiz-adv-x="927" 
d="M610 727q155 0 172 129h37q-10 -111 -114 -148q-39 -14 -95 -14h-166q-162 0 -231 -61t-69 -201v-123q0 -193 148 -255q48 -20 110 -21h170q-128 75 -128 194t128 143v-34q-77 -21 -94 -83q-16 -63 34 -129t119 -85q19 -6 31 -6h159v-33h-419q-206 0 -271 170
q-25 65 -25 139v125q0 232 194 278q62 15 144 15h166z" />
    <glyph glyph-name="fivethai" unicode="&#xe55;" horiz-adv-x="927" 
d="M398 800q0 -50 44 -68q14 -6 30 -6t28 6q44 20 45 69q0 49 -45 68q-14 5 -29 5t-29 -5q-44 -19 -44 -69zM610 727q155 0 172 129h37q-10 -111 -114 -148q-39 -14 -95 -14h-166q-162 0 -231 -61t-69 -201v-123q0 -193 148 -255q48 -20 110 -21h170q-128 75 -128 194
t128 143v-34q-77 -21 -94 -83q-16 -63 34 -129t119 -85q19 -6 31 -6h159v-33h-419q-206 0 -271 170q-25 65 -25 139v125q0 215 166 270q54 18 124 21q-32 32 -32 77t31 74q30 32 64 32q55 0 87 -32t32 -72t-31 -77h63z" />
    <glyph glyph-name="sixthai" unicode="&#xe56;" horiz-adv-x="925" 
d="M196 649q147 89 286 89t219 -50q129 -85 129 -295v-57q0 -139 -86 -242q-86 -104 -265 -104q-137 0 -216 63t-79 160q0 132 116 174q36 13 81 13h2v-36q-164 -4 -164 -151q-2 -81 75 -136t192 -55t210 83q96 83 96 225v59q0 242 -166 297q-54 18 -124 18
q-173 -4 -316 -102l-137 244l29 16z" />
    <glyph glyph-name="seventhai" unicode="&#xe57;" horiz-adv-x="1073" 
d="M106 291v98q0 245 128 312q42 23 98 30l100 -119l110 119q171 -28 202 -210q10 -58 10 -128v-151q0 -142 -39 -207q181 52 212 242q7 31 7 54v321q0 137 54 176q18 13 40 20l10 -31q-34 -15 -52 -49t-18 -116v-288q0 -249 -183 -338q-41 -20 -93 -30l-22 20q47 99 47 226
v151q0 203 -90 267q-30 22 -72 34l-123 -133l-112 133q-56 -15 -80 -36q-24 -20 -49 -52q-47 -61 -47 -217v-96q0 -214 116 -259q30 -14 72 -14v-28q-226 -9 -226 299z" />
    <glyph glyph-name="eightthai" unicode="&#xe58;" horiz-adv-x="905" 
d="M628 694h-210q-147 0 -209 -63q-63 -63 -63 -195v-186q0 -95 47 -155t119 -69l140 134l150 -134q158 10 158 214q0 164 -123 164v30q157 0 157 -194q0 -236 -202 -248l-140 122l-128 -122q-103 8 -159 81q-57 73 -57 177v186q0 289 310 291h210q122 0 150 75q10 24 14 54
h36q-15 -162 -200 -162z" />
    <glyph glyph-name="ninethai" unicode="&#xe59;" horiz-adv-x="915" 
d="M108 393q0 343 213 343q82 0 117 -23q34 -23 52 -45t36 -52l111 105q16 14 33 14h61q68 0 87 24t26 93h34q-4 -20 -6 -39q-9 -66 -43 -87q-35 -22 -98 -22h-47q-17 0 -35 -16l-109 -102l256 -586h-40l-238 549q-39 85 -78 120q-38 35 -94 35t-91 -13q-70 -26 -97 -143
q-12 -60 -12 -155v-92q0 -135 42 -201q42 -67 152 -67v-37q-175 0 -215 155q-17 64 -17 150v92z" />
    <glyph glyph-name="angkhankhuthai" unicode="&#xe5a;" horiz-adv-x="1050" 
d="M668 0v545q-3 -11 -16 -37q-46 -74 -118 -102t-152 -30q-145 -3 -228 70q-74 68 -74 187q0 109 76 163q62 44 153 44h68v-33h-68q-132 0 -177 -93q-16 -34 -16 -80q0 -100 63 -163t190 -63t213 68t86 190v174h36v-840h-36zM901 840h37v-840h-37v840z" />
    <glyph glyph-name="khomutthai" unicode="&#xe5b;" horiz-adv-x="1775" 
d="M80 412q0 170 86 282t240 111q182 -3 243 -142q19 -41 23 -87h-37q-8 89 -71 144q-63 54 -141 54q-211 0 -282 -206q-22 -64 -22 -128q0 -213 165 -318q81 -48 169 -48q281 0 374 264q37 116 45 270l36 18q100 -127 165 -226q45 73 84 119q39 47 51 63l121 -166l86 114
h244l21 -36h-248q-51 -62 -101 -138q-19 26 -35 48t-35 46t-55 74q-18 -23 -42 -54q-54 -69 -91 -140q-19 32 -38 60t-50 73t-75 105q-8 -269 -126 -401t-319 -132q-232 -4 -351 225q-34 66 -34 152z" />
    <glyph glyph-name="ZWSP" unicode="&#x200b;" 
 />
    <glyph glyph-name="endash" unicode="&#x2013;" horiz-adv-x="698" 
d="M0 366v42h698v-42h-698z" />
    <glyph glyph-name="emdash" unicode="&#x2014;" horiz-adv-x="1399" 
d="M0 366v42h1399v-42h-1399z" />
    <glyph glyph-name="quoteleft" unicode="&#x2018;" horiz-adv-x="389" 
d="M152 702v86q0 93 49 155q15 18 35 28v-39q-32 -24 -46 -101q-4 -23 -4 -47h50v-82h-84z" />
    <glyph glyph-name="quoteright" unicode="&#x2019;" horiz-adv-x="389" 
d="M236 971v-87q-3 -97 -50 -153q-14 -19 -34 -29v40q48 36 48 147h-48v82h84z" />
    <glyph glyph-name="quotedblleft" unicode="&#x201c;" horiz-adv-x="518" 
d="M326 702v86q0 93 49 155q15 18 35 28v-39q-32 -24 -46 -101q-4 -23 -4 -47h50v-82h-84zM110 702v86q0 92 50 155q14 18 34 28v-39q-48 -36 -48 -148h48v-82h-84z" />
    <glyph glyph-name="quotedblright" unicode="&#x201d;" horiz-adv-x="518" 
d="M408 971v-87q-3 -97 -50 -153q-14 -19 -34 -29v40q48 36 48 147h-48v82h84zM192 971v-87q0 -94 -49 -153q-15 -19 -35 -29v40q40 30 46 100q4 22 4 47h-50v82h84z" />
    <glyph glyph-name="bullet" unicode="&#x2022;" horiz-adv-x="483" 
d="M62 412q0 38 14 71t38 57t57 38t71 14t71 -14q67 -29 95 -96q14 -32 14 -70t-14 -71q-29 -67 -96 -95q-32 -14 -70 -14t-71 14t-57 38t-38 57t-14 71z" />
    <glyph glyph-name="Euro" unicode="&#x20ac;" horiz-adv-x="1034" 
d="M135 454v64q0 36 5 60h-110v34h114q44 285 190 347.5t225 62.5q150 0 252 -76.5t129 -212.5h-41q-50 182 -158.5 217t-181.5 35t-202.5 -57t-170.5 -316h392v-34h-396q-4 -20 -4 -25v-54q0 -49 2 -65h398v-34h-394q37 -230 158.5 -308t213.5 -78q162 0 250.5 92.5
t109.5 243.5h40q-37 -274 -169.5 -323t-204.5 -49t-154 22.5t-154.5 100t-98 159.5t-33.5 140h-112v34h107q-2 16 -2 20z" />
    <glyph glyph-name="trademark" unicode="&#x2122;" horiz-adv-x="1384" 
d="M686 467v533h45l237 -486l234 486h48v-533h-34v489l-237 -489h-21l-239 487v-487h-33zM324 467v499h-189v34h407v-34h-186v-499h-32z" />
    <glyph glyph-name="uni25CC" unicode="&#x25cc;" horiz-adv-x="934" 
d="M658 586l-44 -98q-16 29 -67 67zM641 223l-92 29q33 23 65 64zM295 586l94 -33q-45 -21 -69 -63zM209 406l92 46q-8 -55 0 -94zM725 404l-94 -44q16 44 6 90zM464 230q20 0 46 8l-43 -92l-45 90q22 -6 42 -6zM467 662l45 -90q-47 9 -94 -7zM276 226l42 96q25 -41 65 -68z
" />
    <glyph glyph-name="thothannobasethai" unicode="&#xf700;" horiz-adv-x="758" 
d="M391 858q62 0 111 -16q55 4 96 33q41 30 47 67h41q-5 -30 -39 -69q-33 -38 -96 -54q94 -51 114 -174q13 -71 -1 -127q-15 -56 -47 -147q-39 -112 -173 -371h-42l-160 418h-105v32h129l158 -411q204 409 209 529q6 177 -133 238q-46 20 -100 20q-151 0 -225 -84
q-25 -28 -38 -66h-41q40 126 184 168q48 14 111 14z" />
    <glyph glyph-name="saraileftthai" unicode="&#xf701;" 
d="M-295 1048v-34h-557l16 34h541z" />
    <glyph glyph-name="saraiileftthai" unicode="&#xf702;" 
d="M-332 1048v128h37v-162h-557l16 34h504z" />
    <glyph glyph-name="saraueleftthai" unicode="&#xf703;" 
d="M-374 1200q-82 0 -82 -85q0 -25 20 -46t46 -21q25 0 39 6t24 16t16 24t6 30q0 32 -22 54q-23 22 -47 22zM-459 1202q31 31 66 31q87 1 114 -65q9 -20 9 -55t-31 -67t-80 -32h-471l16 34h380q-34 28 -34 76q0 47 31 78z" />
    <glyph glyph-name="saraueeleftthai" unicode="&#xf704;" 
d="M-506 1048v128h37v-128h137v128h37v-162h-557l16 34h330z" />
    <glyph glyph-name="maieklowleftthai" unicode="&#xf705;" 
d="M-412 1227h37v-211h-37v211z" />
    <glyph glyph-name="maitholowleftthai" unicode="&#xf706;" 
d="M-633 1016v122h-73v30h106v-122h45q154 0 215 80q16 22 22 42h34q-28 -105 -161 -139q-48 -13 -112 -13h-76z" />
    <glyph glyph-name="maitrilowleftthai" unicode="&#xf707;" 
d="M-514 1110q-62 0 -72 -94h-28q-7 63 -47 86q-12 8 -28 8t-29 -8q-39 -24 -42 -86h-32q6 85 65 116q17 8 35 8q61 0 92 -73q20 73 88 73q80 0 94 -98q51 0 94 41t48 85h28q-8 -64 -58 -108t-112 -44h-24q-10 94 -72 94z" />
    <glyph glyph-name="maichattawalowleftthai" unicode="&#xf708;" 
d="M-430 1122v-106h-35v106h-125v31h125v105h35v-105h129v-31h-129z" />
    <glyph glyph-name="thanthakhatlowleftthai" unicode="&#xf709;" 
d="M-309 1132q-147 -17 -175 -116h-38q33 128 213 148v-32z" />
    <glyph glyph-name="maieklowrightthai" unicode="&#xf70a;" 
d="M-162 1227h37v-211h-37v211z" />
    <glyph glyph-name="maitholowrightthai" unicode="&#xf70b;" 
d="M-360 1016v122h-74v30h106v-122h46q194 0 237 122h33q-28 -106 -160 -139q-48 -13 -112 -13h-76z" />
    <glyph glyph-name="maitrilowrightthai" unicode="&#xf70c;" 
d="M-172 1016q-10 94 -72 94t-72 -94h-28q-7 63 -47 86q-12 8 -28 8t-36 -12q-35 -22 -35 -82h-32q6 85 65 116q17 8 42 8q54 0 85 -73q17 73 88 73q80 0 94 -98q51 0 94 41t48 85h28q-8 -67 -59 -109q-51 -43 -111 -43h-24z" />
    <glyph glyph-name="maichattawalowrightthai" unicode="&#xf70d;" 
d="M-125 1122v-106h-35v106h-124v31h124v105h35v-105h129v-31h-129z" />
    <glyph glyph-name="thanthakhatlowrightthai" unicode="&#xf70e;" 
d="M-12 1132q-108 -13 -152 -68q-14 -20 -22 -48h-40q35 128 214 148v-32z" />
    <glyph glyph-name="yoyingnobasethai" unicode="&#xf70f;" horiz-adv-x="1329" 
d="M172 448v-418h98v-30h-135v448q0 64 -16 100t-55 68q52 163 202 217q56 21 126 21q283 0 313 -257q5 -43 5 -87v-234q0 -116 71 -189q69 -67 163 -67t159 69t65 179v572h36v-574q0 -129 -77 -204q-77 -74 -190 -74q-114 0 -189 82q-74 85 -74 204v244q0 243 -177 292
q-43 14 -106 14q-115 0 -189 -61t-100 -143q70 -47 70 -172z" />
    <glyph glyph-name="maihanakatleftthai" unicode="&#xf710;" 
d="M-574 1014v137h38v-103h581v-34h-619z" />
    <glyph glyph-name="nikhahitleftthai" unicode="&#xf711;" 
d="M-500 1107q0 -25 21 -46t46 -21t39 6q46 20 46 70t-46 70q-14 6 -30 6t-30 -6t-24 -16t-16 -24t-6 -39zM-528 1116q0 70 62 96q20 8 42 8t41 -8q63 -27 63 -96t-62 -97q-19 -7 -42 -7t-42 7q-62 27 -62 97z" />
    <glyph glyph-name="maitaikhuleftthai" unicode="&#xf712;" 
d="M-691 1038q82 0 111 86h29q6 -33 35 -60q29 -26 72 -26q44 0 70 24t26 62h32q-10 -114 -124 -114q-93 0 -125 82q-41 -86 -122 -82t-107 34q-42 49 -42 96q0 148 189 148h387v-30h-387q-119 0 -145 -66q-9 -22 -9 -44q0 -74 64 -100q22 -10 46 -10z" />
    <glyph glyph-name="maiekupperleftthai" unicode="&#xf713;" 
d="M-328 1489h35v-160h-35v160z" />
    <glyph glyph-name="maithoupperleftthai" unicode="&#xf714;" 
d="M-512 1329v123h-74v28h107v-120h45q155 0 215 79q17 21 23 41h32q-28 -101 -160 -138q-48 -13 -112 -13h-76z" />
    <glyph glyph-name="maitriupperleftthai" unicode="&#xf715;" 
d="M-387 1454q86 0 101 -98q47 0 91 40t49 84h30q-8 -64 -59 -108q-52 -43 -111 -43h-26q-11 95 -71 95t-71 -95h-30q-7 61 -46 87q-12 8 -28 8t-29 -8q-41 -25 -41 -87h-34q6 86 66 116q17 9 35 9q63 0 92 -74q9 40 35 57q25 17 47 17z" />
    <glyph glyph-name="maichattawaupperleftthai" unicode="&#xf716;" 
d="M-297 1424v-107h-35v107h-124v30h124v104h35v-104h129v-30h-129z" />
    <glyph glyph-name="thanthakhatupperleftthai" unicode="&#xf717;" 
d="M-116 1344q-150 -18 -175 -117h-39q33 128 214 147v-30z" />
    <glyph glyph-name="saraulowthai" unicode="&#xf718;" 
d="M-162 -574v178h-74v36h111v-214h-37z" />
    <glyph glyph-name="sarauulowthai" unicode="&#xf719;" 
d="M-297 -594q-174 0 -176 154v47h-78v33h113v-80q0 -123 141 -123q67 0 93 22q44 38 44 105v76h37v-76q0 -158 -174 -158z" />
    <glyph glyph-name="phinthulowthai" unicode="&#xf71a;" 
d="M-184 -459q-33 13 -33 48t33 48q10 5 20 5t20 -4q32 -17 32 -45q0 -27 -15 -41t-31 -15q-16 0 -26 4z" />
    <glyph glyph-name="lochula.short" unicode="&#xf71d;" horiz-adv-x="1030" 
d="M896 710q0 132 -122 132v32q118 0 169 66q17 22 23 54h38q-14 -60 -54 -96t-100 -42q47 -9 71 -72q24 -64 1 -162q-4 -12 -13 -48t-17 -66t-17 -66q-9 -35 -19 -72t-32 -122t-64 -248h-35l-205 664l-206 -664h-36l-212 840h38l193 -776l205 653h34l206 -653l140 552
q14 56 14 94z" />
    <glyph glyph-name="rulakkhangyao" unicode="&#xf881;" horiz-adv-x="1300" 
d="M738 508v-780h-38v788q0 234 -190 290q-144 39 -263 -24q-85 -42 -124 -125q-11 -21 -15 -37q38 -28 51 -69t13 -105v-413h98v-33h-135v446q0 68 -13 100t-58 68q57 175 227 224q55 16 117 16q205 0 282 -135q44 90 163 123q37 8 82 8q102 0 169 -63q72 -74 72 -195v-864
h-38v868q0 110 -60 166q-57 57 -152 55q-124 0 -186 -80q-22 -27 -30 -63q28 -78 28 -166z" />
    <glyph glyph-name="lulakkhangyao" unicode="&#xf882;" horiz-adv-x="1317" 
d="M754 508v-780h-37v788q6 232 -190 290q-144 39 -263 -24q-52 -26 -91 -74q-38 -47 -48 -88q52 -38 61 -116q2 -26 2 -58v-446h-135v30h99v416q0 93 -36 134q-14 16 -36 34q57 174 227 224q53 16 113 16q157 0 244 -80q26 -25 42 -55q43 89 164 123q36 8 81 8
q103 0 170 -63q71 -71 71 -195v-864h-37v868q0 111 -61 166q-57 57 -152 55q-124 0 -186 -80q-21 -27 -29 -63q27 -75 27 -166z" />
    <glyph glyph-name="yamakkanleftthai" 
d="M-274 1243q-54 -1 -86 -31t-36 -82q-119 -6 -136 -114h-42q19 126 148 143q14 78 94 109q26 10 58 10v-35z" />
    <glyph glyph-name="saraamleft" horiz-adv-x="686" 
d="M-500 1107q0 -25 21 -46t46 -21t39 6q46 20 46 70t-46 70q-14 6 -30 6t-30 -6t-24 -16t-16 -24t-6 -39zM-528 1116q0 70 62 96q20 8 42 8t41 -8q63 -27 63 -96t-62 -97q-19 -7 -42 -7t-42 7q-62 27 -62 97zM294 850q129 0 196 -63q72 -74 72 -195v-592h-38v596
q0 108 -58 166t-169 57q-112 0 -171 -82q-20 -27 -28 -65h-38q18 89 92 133q70 45 142 45z" />
    <glyph glyph-name="uni0E33.alt1" horiz-adv-x="686" 
d="M-500 1107q0 -25 21 -46t46 -21t39 6q46 20 46 70t-46 70q-14 6 -30 6t-30 -6t-24 -16t-16 -24t-6 -39zM-528 1116q0 70 62 96q20 8 42 8t41 -8q63 -27 63 -96t-62 -97q-19 -7 -42 -7t-42 7q-62 27 -62 97zM294 850q129 0 196 -63q72 -74 72 -195v-592h-38v596
q0 108 -58 166t-169 57q-112 0 -171 -82q-20 -27 -28 -65h-38q18 89 92 133q70 45 142 45z" />
    <glyph glyph-name="saraithai.alt1" 
d="M-125 1048v-34h-489l16 34h473z" />
    <glyph glyph-name="saraiithai.alt1" 
d="M-162 1048v128h37v-162h-489l16 34h436z" />
    <glyph glyph-name="sarauethai.alt1" 
d="M-226 1048q25 0 39 6q45 19 45 70t-45 70q-15 6 -31 6t-30 -6t-24 -16t-16 -24t-6 -39t22 -46q21 -21 46 -21zM-295 1202q31 31 66 31q87 1 114 -65q9 -20 9 -55t-31 -67t-80 -32h-397l16 34h305q-33 28 -33 75q0 48 31 79z" />
    <glyph glyph-name="saraueethai.alt1" 
d="M-336 1048v128h37v-128h137v128h37v-162h-489l16 34h262z" />
    <glyph glyph-name="saraithai.alt2" 
d="M-254 1048v-34h-721l17 34h704z" />
    <glyph glyph-name="saraiithai.alt2" 
d="M-291 1048v128h37v-162h-721l17 34h667z" />
    <glyph glyph-name="sarauethai.alt2" 
d="M-396 1115q0 -25 21 -46t46 -21q60 0 80 46q5 14 5 30q0 50 -46 70q-14 6 -30 6t-30 -6t-24 -16t-16 -24t-6 -39zM-428 1111q0 87 66 115q20 8 43 8q48 0 79 -31t31 -67q0 -88 -66 -114q-21 -8 -45 -8h-655l17 34h562q-32 27 -32 63z" />
    <glyph glyph-name="saraueethai.alt2" 
d="M-465 1048v128h37v-128h137v128h37v-162h-721l17 34h493z" />
    <glyph glyph-name="maiekthai.alt2" 
d="M-289 1489h35v-160h-35v160z" />
    <glyph glyph-name="maithothai.alt2" 
d="M-502 1329v123h-74v28h107v-120h45q155 0 215 79q17 21 23 41h32q-28 -101 -160 -138q-48 -13 -112 -13h-76z" />
    <glyph glyph-name="maitrithai.alt2" 
d="M-404 1424q-61 0 -71 -95h-29q-7 61 -46 87q-12 8 -37 8t-43 -29q-19 -25 -19 -66h-33q6 86 66 116q18 9 34 9q61 0 92 -74q20 74 81 74q60 0 89 -52q10 -19 13 -46q51 0 94 40t47 84h29q-8 -64 -59 -108q-52 -43 -111 -43h-25q-11 95 -72 95z" />
    <glyph glyph-name="maichattawathai.alt2" 
d="M-254 1424v-107h-35v107h-125v30h125v104h35v-104h129v-30h-129z" />
    <glyph glyph-name="saraithai.alt3" 
d="M-125 1048v-34h-800l17 34h783z" />
    <glyph glyph-name="saraiithai.alt3" 
d="M-162 1048v128h37v-162h-800l17 34h746z" />
    <glyph glyph-name="sarauethai.alt3" 
d="M-210 1200q-83 0 -83 -85q0 -25 21 -46t46 -21t38.5 6t24 16t16 24t5.5 30q0 34 -22 55t-46 21zM-294.5 1202q31.5 33 66.5 33t55.5 -8.5t35 -23.5t23 -35t8.5 -54.5t-31 -67t-80 -32.5h-708l17 34h615q-33 28 -33 74q0 47 31.5 80z" />
    <glyph glyph-name="saraueethai.alt3" 
d="M-336 1048v128h37v-128h137v128h37v-162h-800l17 34h572z" />
    <glyph glyph-name="maiekthai.alt4" 
d="M-160 1386h35v-159h-35v159z" />
    <glyph glyph-name="maithothai.alt4" 
d="M-360 1227v123h-74v28h106v-120h46q154 0 192 50t45 70h33q-28 -104 -118 -127.5t-154 -23.5h-76z" />
    <glyph glyph-name="maitrithai.alt4" 
d="M-320 1278q20 74 90 74q14 0 48 -11.5t45 -86.5q48 0 92.5 39.5t48.5 84.5h29q-8 -66 -59.5 -108.5t-110.5 -42.5h-25q-10 94 -72 94q-48 0 -59 -37.5t-12 -56.5h-29q-7 63 -33.5 78.5t-42.5 15.5q-30 0 -48.5 -27t-20.5 -67h-33q6 85 44 105t56 20q61 0 92 -74z" />
    <glyph glyph-name="maichattawathai.alt4" 
d="M-125 1333v-106h-35v106h-124v31h124v104h35v-104h129v-31h-129z" />
    <glyph glyph-name="maiekthai.alt5" 
d="M-328 1386h35v-159h-35v159z" />
    <glyph glyph-name="maithothai.alt5" 
d="M-542 1227v123h-74v28h106v-120h45q155 0 215 79q16 21 22 41h34q-27 -101 -161 -138q-48 -13 -112 -13h-75z" />
    <glyph glyph-name="maitrithai.alt5" 
d="M-348 1227h-24q-7 62 -42 86q-12 8 -36 8t-44 -27t-22 -67h-29q-7 59 -47 86q-12 8 -33 8t-45 -29q-18 -32 -20 -65h-33q6 87 65 116q18 9 36 9q61 0 92 -74q20 74 88 74q32 0 60 -25t34 -73q51 0 94 40t47 84h29q-8 -68 -59 -109q-51 -42 -111 -42z" />
    <glyph glyph-name="maichattawathai.alt5" 
d="M-297 1333v-106h-35v106h-124v31h124v104h35v-104h129v-31h-129z" />
    <glyph glyph-name="sarauthai.alt6" 
d="M-316 -352v178h-71v34h109v-212h-38z" />
    <glyph glyph-name="sarauuthai.alt6" 
d="M-504 -219v47h-78v32h113v-79q-1 -123 139 -123t140 127v75h36v-75q0 -157 -175 -157t-175 153z" />
    <glyph glyph-name="phinthuthai.alt6" 
d="M-350.5 -142.5q15.5 15.5 31.5 15.5q26 0 41.5 -15.5t15.5 -37.5t-15 -37t-31 -15t-26 4t-21 15t-11 33t15.5 37.5z" />
    <glyph glyph-name="sarauthai.alt7" 
d="M-297 -352v178h-71v34h108v-212h-37z" />
    <glyph glyph-name="sarauuthai.alt7" 
d="M-596 -219v47h-78v32h113v-79q-1 -123 139 -123t140 127v75h36v-75q0 -157 -175 -157t-175 153z" />
    <glyph glyph-name="phinthuthai.alt7" 
d="M-354 -180q0 10 4 20t11.5 17t17 11.5t25 4.5t31 -15.5t15.5 -37.5t-15 -37t-31 -15t-25.5 4t-17 11t-11.5 17t-4 20z" />
    <glyph glyph-name="maihanakatthai.alt8" 
d="M-553 1014v137h37v-103h664v-34h-701z" />
    <glyph glyph-name="maiekthai.alt8" 
d="M-328 1489h35v-160h-35v160z" />
    <glyph glyph-name="maithothai.alt8" 
d="M-538 1329v123h-74v28h106v-120h45q155 0 215 79q16 21 23 41h33q-28 -101 -161 -138q-48 -13 -112 -13h-75z" />
    <glyph glyph-name="maitrithai.alt8" 
d="M-348 1329h-24q-11 95 -72 95q-32 0 -51 -26t-21 -69h-29q-7 60 -47 87q-12 8 -34 8t-44 -29q-18 -29 -20 -66h-33q6 87 65 116q18 9 36 9q61 0 92 -74q20 74 80 74q59 0 88 -52q10 -19 14 -46q51 0 94 40t47 84h29q-8 -65 -59 -108t-111 -43z" />
    <glyph glyph-name="maichattawathai.alt8" 
d="M-297 1424v-107h-35v107h-124v30h124v104h35v-104h129v-30h-129z" />
    </font>
</defs>
</svg>
