<?xml version="1.0" encoding="utf-8"?>
<!-- Generator: Adobe Illustrator 16.0.0, SVG Export Plug-In . SVG Version: 6.00 Build 0)  -->
<!DOCTYPE svg PUBLIC "-//W3C//DTD SVG 1.1//EN" "http://www.w3.org/Graphics/SVG/1.1/DTD/svg11.dtd">
<svg version="1.1" id="Layer_1" xmlns="http://www.w3.org/2000/svg" xmlns:xlink="http://www.w3.org/1999/xlink" x="0px" y="0px"
	 width="43.105px" height="38.259px" viewBox="0 0 43.105 38.259" enable-background="new 0 0 43.105 38.259" xml:space="preserve">
<path fill="#CA552A" d="M42.395,33.026L24.573,2.158c-1.662-2.878-4.381-2.878-6.042,0L0.708,33.026
	c-1.661,2.877-0.3,5.232,3.022,5.232h35.642C42.697,38.259,44.058,35.903,42.395,33.026z M20.169,10.522h2.766
	c1.108,0,1.945,0.902,1.859,2.007l-0.808,10.442c-0.087,1.105-1.062,2.009-2.171,2.009h-0.582c-1.108,0-2.082-0.903-2.163-2.01
	l-0.769-10.439C18.222,11.425,19.062,10.522,20.169,10.522z M21.551,34.247c-1.831,0-3.315-1.484-3.315-3.316
	c0-1.834,1.484-3.318,3.315-3.318c1.833,0,3.319,1.484,3.319,3.318C24.87,32.763,23.384,34.247,21.551,34.247z"/>
</svg>
