<?xml version="1.0" encoding="utf-8"?>
<!-- Generator: Adobe Illustrator 16.0.0, SVG Export Plug-In . SVG Version: 6.00 Build 0)  -->
<!DOCTYPE svg PUBLIC "-//W3C//DTD SVG 1.1//EN" "http://www.w3.org/Graphics/SVG/1.1/DTD/svg11.dtd">
<svg version="1.1" id="Layer_1" xmlns="http://www.w3.org/2000/svg" xmlns:xlink="http://www.w3.org/1999/xlink" x="0px" y="0px"
	 width="100px" height="32.232px" viewBox="0 0 100 32.232" enable-background="new 0 0 100 32.232" xml:space="preserve">
<g>
	<g>
		<g>
			<path d="M8.896,6.641c1.293,0,2.379,0.219,3.264,0.654c0.88,0.436,1.596,1.006,2.137,1.713c0.538,0.706,0.926,1.512,1.162,2.417
				c0.237,0.907,0.355,1.832,0.355,2.773c0,1.292-0.197,2.421-0.582,3.391c-0.392,0.96-0.93,1.75-1.624,2.363
				c-0.697,0.609-1.537,1.07-2.526,1.373c-0.986,0.307-2.082,0.461-3.281,0.461H5.084v10.06H0V6.641H8.896z M7.342,18.043
				c1.011,0,1.828-0.306,2.455-0.916c0.621-0.612,0.935-1.564,0.935-2.86c0-1.272-0.272-2.236-0.811-2.896
				c-0.542-0.657-1.45-0.989-2.722-0.989H5.084v7.661H7.342z"/>
			<path d="M26.755,6.641l6.672,25.204h-5.295l-1.163-5.329h-6.708l-1.166,5.329h-5.293l6.669-25.204H26.755z M26.083,22.35
				l-2.432-11.329H23.58L21.142,22.35H26.083z"/>
			<path d="M43.134,6.641c2.119,0,3.768,0.537,4.942,1.607c1.177,1.073,1.763,2.703,1.763,4.891c0,1.691-0.339,3.076-1.021,4.146
				c-0.684,1.07-1.741,1.759-3.177,2.065v0.07c1.27,0.191,2.199,0.601,2.789,1.236c0.587,0.635,0.951,1.658,1.093,3.07
				c0.048,0.473,0.084,0.983,0.107,1.537c0.022,0.551,0.043,1.172,0.07,1.852c0.048,1.343,0.117,2.366,0.209,3.07
				c0.145,0.708,0.451,1.189,0.92,1.45v0.21H45.32c-0.256-0.351-0.42-0.758-0.492-1.219c-0.07-0.458-0.12-0.935-0.142-1.43
				l-0.142-4.834c-0.045-0.988-0.292-1.764-0.739-2.329c-0.447-0.564-1.203-0.848-2.26-0.848h-2.718v10.661h-5.082V6.641H43.134z
				 M40.945,17.656c1.224,0,2.167-0.29,2.823-0.866c0.661-0.576,0.989-1.545,0.989-2.911c0-2.332-1.178-3.497-3.531-3.497h-2.399
				v7.273H40.945z"/>
			<path d="M52.171,6.641h5.082v25.204h-5.082V6.641z"/>
			<path d="M69.695,11.144c-0.436-0.837-1.229-1.253-2.383-1.253c-0.635,0-1.156,0.169-1.57,0.512
				c-0.413,0.34-0.736,0.893-0.972,1.657c-0.236,0.767-0.399,1.767-0.492,3c-0.095,1.236-0.143,2.75-0.143,4.537
				c0,1.908,0.064,3.447,0.193,4.624c0.132,1.177,0.329,2.087,0.599,2.736c0.275,0.646,0.612,1.082,1.028,1.304
				c0.408,0.224,0.886,0.337,1.427,0.337c0.447,0,0.868-0.077,1.253-0.231c0.388-0.152,0.725-0.458,1.006-0.916
				c0.283-0.46,0.506-1.104,0.671-1.941c0.167-0.834,0.248-1.936,0.248-3.304h5.082c0,1.368-0.106,2.663-0.318,3.885
				c-0.211,1.222-0.604,2.295-1.183,3.211c-0.576,0.918-1.388,1.638-2.436,2.154c-1.044,0.515-2.406,0.775-4.075,0.775
				c-1.908,0-3.427-0.306-4.552-0.918c-1.132-0.612-1.996-1.494-2.596-2.646c-0.601-1.151-0.991-2.528-1.166-4.129
				c-0.177-1.599-0.264-3.365-0.264-5.293c0-1.907,0.087-3.666,0.264-5.278c0.175-1.61,0.565-2.995,1.166-4.149
				c0.6-1.152,1.464-2.051,2.596-2.697c1.125-0.649,2.644-0.972,4.552-0.972c1.812,0,3.241,0.295,4.29,0.882
				c1.047,0.59,1.827,1.337,2.349,2.242c0.513,0.905,0.836,1.879,0.969,2.927c0.129,1.048,0.194,2.031,0.194,2.947h-5.083
				C70.349,13.312,70.129,11.979,69.695,11.144z"/>
			<path d="M82.173,6.641v9.639H88.1V6.641h5.085v25.204H88.1V20.656h-5.927v11.189h-5.084V6.641H82.173z"/>
		</g>
	</g>
	<g>
		<path d="M96.927,0c0.292,0,0.57,0.037,0.834,0.106c0.268,0.07,0.515,0.174,0.742,0.303c0.227,0.132,0.432,0.289,0.617,0.475
			c0.187,0.183,0.344,0.391,0.473,0.621c0.131,0.227,0.232,0.474,0.304,0.741C99.967,2.508,100,2.787,100,3.076
			c0,0.289-0.032,0.567-0.103,0.832c-0.071,0.263-0.173,0.511-0.304,0.736c-0.129,0.23-0.286,0.436-0.473,0.621
			c-0.186,0.182-0.391,0.343-0.617,0.472c-0.228,0.132-0.475,0.233-0.742,0.304c-0.264,0.073-0.542,0.11-0.834,0.11
			c-0.289,0-0.567-0.037-0.832-0.11c-0.264-0.07-0.511-0.171-0.738-0.304c-0.229-0.129-0.434-0.29-0.619-0.472
			c-0.185-0.185-0.339-0.39-0.471-0.621c-0.133-0.225-0.233-0.473-0.307-0.736c-0.069-0.265-0.107-0.542-0.107-0.832
			c0-0.29,0.038-0.568,0.107-0.829c0.073-0.267,0.174-0.514,0.307-0.741c0.132-0.23,0.286-0.438,0.471-0.621
			c0.186-0.186,0.391-0.343,0.619-0.475c0.228-0.129,0.475-0.233,0.735-0.303C96.357,0.037,96.635,0,96.927,0z M96.927,0.48
			c-0.242,0-0.475,0.033-0.693,0.095c-0.221,0.059-0.426,0.149-0.61,0.259c-0.188,0.114-0.359,0.25-0.511,0.407
			c-0.154,0.157-0.287,0.334-0.394,0.526c-0.106,0.191-0.191,0.398-0.247,0.618c-0.059,0.225-0.09,0.453-0.09,0.691
			s0.031,0.471,0.09,0.691c0.056,0.219,0.141,0.427,0.247,0.621s0.239,0.365,0.394,0.525c0.151,0.155,0.322,0.292,0.511,0.402
			c0.185,0.112,0.39,0.197,0.61,0.258c0.219,0.062,0.451,0.093,0.693,0.093c0.241,0,0.475-0.031,0.694-0.093
			c0.222-0.062,0.426-0.146,0.615-0.258c0.19-0.11,0.362-0.247,0.513-0.402c0.155-0.16,0.287-0.331,0.396-0.525
			c0.11-0.194,0.193-0.402,0.254-0.621c0.056-0.22,0.087-0.452,0.087-0.691S99.456,2.609,99.4,2.385
			c-0.061-0.219-0.144-0.427-0.254-0.618c-0.109-0.191-0.241-0.369-0.396-0.526c-0.15-0.157-0.322-0.292-0.513-0.407
			c-0.189-0.11-0.394-0.2-0.615-0.259C97.402,0.514,97.168,0.48,96.927,0.48z M96.279,4.862h-0.481V1.283h1.382
			c0.408,0,0.706,0.087,0.891,0.258c0.183,0.169,0.275,0.422,0.275,0.753c0,0.155-0.021,0.292-0.066,0.407
			C98.234,2.82,98.172,2.916,98.093,3c-0.078,0.082-0.169,0.149-0.27,0.197C97.719,3.247,97.61,3.281,97.495,3.3l1.042,1.562H97.96
			L96.961,3.3h-0.683V4.862z M96.83,2.882c0.087,0,0.174-0.003,0.254-0.006c0.088-0.003,0.17-0.008,0.246-0.02
			c0.075-0.011,0.145-0.03,0.213-0.056c0.064-0.028,0.12-0.062,0.169-0.104c0.047-0.042,0.087-0.096,0.112-0.163
			c0.027-0.068,0.041-0.149,0.041-0.239c0-0.118-0.024-0.214-0.069-0.292c-0.048-0.074-0.109-0.133-0.186-0.178
			c-0.078-0.045-0.165-0.075-0.264-0.092c-0.099-0.017-0.196-0.025-0.298-0.025h-0.77v1.174H96.83z"/>
	</g>
</g>
</svg>
